<svg width="59" height="53" viewBox="0 0 59 53" fill="none" xmlns="http://www.w3.org/2000/svg">
<path d="M25.9995 53C29.6866 53 32.7361 50.5344 33.2461 47.3246H18.7529C19.2629 50.5344 22.3131 53 25.9995 53Z" fill="#9D3F3F"/>
<path d="M51.3001 41.814C49.2444 40.6937 43.3688 36.7996 43.3688 28.8811V19.5431C43.3688 15.2018 41.4245 11.2707 38.2816 8.42661C35.1209 5.56547 30.747 3.8017 25.9184 3.82169C16.3417 3.86168 8.63132 10.9642 8.63132 19.6327V28.8811C8.63132 36.7996 2.75579 40.6937 0.700013 41.814C0.265297 42.0509 0 42.4767 0 42.9358V44.7299C0 45.4541 0.648147 46.0405 1.44763 46.0405H50.5525C51.3523 46.0405 52 45.4541 52 44.7299V42.9358C52 42.4767 51.7345 42.0509 51.3001 41.814Z" fill="#9D3F3F"/>
<path d="M25.9995 2.53806C27.8694 2.53806 29.6981 2.78399 31.4402 3.2583C30.5414 1.3435 28.4432 5.24521e-06 25.9995 5.24521e-06C23.5531 5.24521e-06 21.4542 1.3458 20.5576 3.26442C22.2728 2.79317 24.0716 2.54569 25.9117 2.53806H25.9995Z" fill="#9D3F3F"/>
<circle cx="45.5" cy="39.5" r="12" fill="#FFEE2D" stroke="white" stroke-width="3"/>
</svg>
