<svg width="52" height="53" viewBox="0 0 52 53" fill="none" xmlns="http://www.w3.org/2000/svg">
<path d="M26.0004 53C29.6876 53 32.7371 50.5344 33.2471 47.3246H18.7539C19.2639 50.5344 22.3141 53 26.0004 53Z" fill="#9D3F3F"/>
<path d="M51.3001 41.814C49.2444 40.6937 43.3688 36.7996 43.3688 28.8811V19.5431C43.3688 15.2018 41.4245 11.2707 38.2816 8.42661C35.1209 5.56547 30.747 3.8017 25.9184 3.82169C16.3417 3.86168 8.63132 10.9642 8.63132 19.6327V28.8811C8.63132 36.7996 2.75579 40.6937 0.700013 41.814C0.265297 42.0509 0 42.4767 0 42.9358V44.7299C0 45.4541 0.648147 46.0405 1.44763 46.0405H50.5525C51.3523 46.0405 52 45.4541 52 44.7299V42.9358C52 42.4767 51.7345 42.0509 51.3001 41.814Z" fill="#9D3F3F"/>
<path d="M26.0005 2.53806C27.8704 2.53806 29.6991 2.78399 31.4412 3.2583C30.5424 1.3435 28.4442 5.24521e-06 26.0005 5.24521e-06C23.5541 5.24521e-06 21.4552 1.3458 20.5586 3.26442C22.2738 2.79317 24.0726 2.54569 25.9127 2.53806H26.0005Z" fill="#9D3F3F"/>
</svg>
