<svg width="94" height="113" viewBox="0 0 94 113" fill="none" xmlns="http://www.w3.org/2000/svg">
<path d="M32.9021 0.0488751C40.0976 0.0865871 43.6503 5.3731 46.6168 11.107C50.6098 1.94573 61.0265 -5.29823 68.8669 5.13223C72.1803 9.54023 72.6823 15.8831 71.6649 21.2465C74.9064 18.2831 80.8671 16.7101 84.9172 18.5957C92.2657 22.0166 92.5407 32.0672 89.5601 38.5185C87.2029 43.6206 83.2793 47.9434 78.0486 49.9667C80.3889 53.0734 82.223 55.7921 83.1203 59.7012C84.2066 64.2977 83.3887 69.1381 80.8526 73.1224C78.0174 77.5883 73.7175 80.8197 68.5296 81.9668C62.0878 83.1323 59.2383 80.9167 53.5941 79.2564C51.2433 78.588 48.8113 78.2466 46.3672 78.2425C39.6057 78.2528 35.3732 81.3511 29.1311 82.189C19.7676 83.4459 10.132 75.1013 9.44581 65.7554C8.97834 59.3873 10.8817 54.7684 14.9267 49.8938C8.71969 46.2938 4.15765 41.4937 2.70148 34.2408C1.33731 27.4464 3.58308 19.4748 11.2334 18.0395C15.2318 17.2894 17.9815 18.2998 21.2672 20.522C21.211 20.1358 21.1663 19.7477 21.1334 19.3588C20.4344 11.4281 23.6077 0.786865 32.9021 0.0488751Z" fill="#671414"/>
<path d="M45.5076 30.5477C46.1335 30.4805 47.1608 30.5227 47.7925 30.5604C54.7868 30.9761 60.9032 34.7984 64.9725 40.394C66.0905 41.9513 66.8368 43.7106 68.077 45.1874C69.2687 46.607 70.5113 47.9428 71.8554 49.2204C73.0424 50.3482 74.2765 51.4649 75.3541 52.6965C78.1827 55.9302 80.0534 60.7726 79.7385 65.0787C79.4576 68.921 77.0658 72.742 74.2052 75.2016C70.4482 78.4342 65.3891 79.6844 60.6466 78.0858C58.7072 77.432 56.8973 76.4014 54.8771 75.7772C52.3659 75.0014 50.3848 74.7459 47.8183 74.5478C45.4251 74.5213 39.4162 74.6692 37.4186 75.6957C30.5376 79.232 25.1212 80.3442 18.4778 75.1017C10.734 68.9911 11.9565 57.9644 18.5543 51.3712C20.1775 49.749 22.0643 48.4132 23.5011 46.5958C25.4853 44.2556 26.9684 41.7247 28.8362 39.3154C33.5611 33.8403 38.3279 31.1192 45.5076 30.5477Z" fill="white"/>
<path d="M38.4444 37.1679C38.5415 37.1629 38.6384 37.1587 38.7355 37.1555C41.858 37.0668 45.1447 37.1532 48.2563 37.139C55.8551 37.1039 55.7074 36.1486 55.6718 43.6439C57.7529 43.6347 64.4681 43.1555 65.9539 44.3437C66.5801 44.8445 66.9769 45.623 67.0581 46.4154C67.1967 47.7645 67.1011 49.2091 67.1001 50.5667L67.1071 57.9317L67.1273 66.2633C67.1328 69.176 67.9924 72.9768 64.1146 73.1522L64.1046 74.8884L56.6438 74.8434L56.6261 73.0264L54.726 73.0356L36.4254 73.0603L36.4333 74.8424C33.9845 74.8431 31.5355 74.82 29.087 74.7731C29.0773 74.5373 29.0282 73.2284 28.9224 73.1365C28.24 72.6792 27.3716 72.9736 26.7545 72.2691C26.019 71.4228 26.1276 70.2262 26.1253 69.1788C26.1211 67.2602 26.1246 65.3386 26.1231 63.4195L26.0449 48.7539C26.0457 48.1418 26.0619 47.5169 26.084 46.9197C26.2314 42.9346 30.0773 43.6304 32.8699 43.6205C34.3341 43.6155 35.7689 43.6392 37.2039 43.6489C37.1899 41.9121 37.1563 40.1741 37.2295 38.4393C37.6186 37.7731 37.778 37.5509 38.4444 37.1679Z" fill="#671414"/>
<path d="M43.6839 50.1342C45.7754 50.1184 47.9668 50.0698 50.0482 50.1451L50.059 55.3197L55.0166 55.337C55.0311 57.5919 55.0333 59.8465 55.0235 62.1013L50.1011 62.0832C50.0779 63.1089 50.1276 66.4144 49.9928 67.1432L49.7947 67.2605L43.222 67.3271L43.2196 62.11C41.571 62.0914 39.8907 62.1083 38.2389 62.1078L38.2266 55.2969L43.1632 55.2942C43.2201 54.2093 43.0439 50.9075 43.3113 50.2243L43.6839 50.1342Z" fill="white"/>
<path d="M40.3378 40.4993C44.3082 40.4145 48.9609 40.4306 52.919 40.5081L52.9284 43.7858C48.7396 43.7692 44.519 43.8317 40.3359 43.786C40.3223 42.6904 40.323 41.5947 40.3378 40.4993Z" fill="white"/>
<path d="M59.6049 3.87226C65.0634 3.42753 68.3053 11.0952 68.2972 15.5611C68.285 22.3663 65.7715 29.6382 57.9161 29.7825C52.6839 29.2648 49.863 26.0628 49.2576 20.8869C48.7112 16.1839 50.0621 11.4571 53.0115 7.75305C54.6473 5.69935 56.9648 4.17454 59.6049 3.87226Z" fill="white"/>
<path d="M32.5317 3.96303C38.2127 3.31547 42.7664 10.2147 43.5469 15.1185C44.5398 21.3571 43.3063 28.3049 36.173 29.65C21.7534 31.7428 21.8997 5.92244 32.5317 3.96303Z" fill="white"/>
<path d="M79.9626 21.5477C80.0821 21.5359 80.2018 21.5289 80.3217 21.5264C85.5112 21.4398 87.4686 26.13 87.4465 30.6224C87.4516 35.0407 85.6861 39.2771 82.5449 42.3842C80.412 44.4915 78.1874 45.7208 75.1748 45.7173C73.7343 45.6553 72.1253 44.9472 70.9931 44.0831C65.7825 40.1072 67.4961 31.7304 70.9778 27.2087C73.0921 24.4625 76.4589 21.9984 79.9626 21.5477Z" fill="white"/>
<path d="M11.9965 21.7317C13.6307 21.6031 15.5372 21.7483 17.0609 22.4777C23.2332 25.4324 27.9373 34.1289 25.0421 40.7622C23.9911 43.1703 22.3743 44.4081 20.0181 45.3177C17.6068 45.9555 15.7274 45.6594 13.506 44.3182C7.21218 40.5178 4.24401 31.1335 7.67221 24.5494C8.48848 22.9818 10.3092 22.1297 11.9965 21.7317Z" fill="white"/>
<path fill-rule="evenodd" clip-rule="evenodd" d="M18.5753 82.4688C22.6455 82.5288 27.0495 82.4785 30.2677 85.418C33.2999 88.0425 34.4209 93.6645 31.4239 96.7393C28.4993 99.7396 23.1605 100.51 19.1895 100.561C19.1814 103.918 18.7272 109.077 21.3868 111.455C21.4868 111.545 21.4699 111.69 21.4522 111.801C20.9976 111.886 20.0701 111.847 19.5704 111.84C18.677 111.825 17.7833 111.816 16.8897 111.813L12.5001 111.806C11.8416 111.806 10.6277 111.844 10.0138 111.777C9.9053 111.65 9.86913 111.303 10.0196 111.199C11.6093 110.104 11.9168 108.198 12.128 106.404C12.3147 103.829 12.1968 100.287 12.1993 97.6035L12.1973 91.6611C12.1961 89.6547 12.4842 85.0363 10.9386 83.6426C6.72619 84.9292 6.03741 90.1765 8.56453 93.3076C9.04743 93.9058 9.86721 94.7845 10.0352 95.4844L10.0528 95.5625C9.64654 97.2001 8.2002 97.7146 6.71688 97.7598C-0.848346 97.9903 -2.12665 89.6031 3.40926 85.5303C6.88627 82.9723 10.106 82.6148 14.168 82.4932C15.5852 82.4206 17.1531 82.4594 18.5753 82.4688ZM21.1602 83.29C19.9815 85.0221 20.2037 88.9652 20.1964 91.0869L20.1641 99.6729C21.4929 99.4704 22.4887 98.9681 23.4639 97.9531C25.2066 96.0713 26.0735 93.6797 26.044 91.04C26.0192 88.8092 25.4598 86.5004 23.9249 84.8955C23.1127 84.0465 22.2213 83.6495 21.1602 83.29Z" fill="#671414"/>
<path d="M89.4713 89.1931C90.216 89.1377 91.0395 89.1684 91.7254 89.4923C92.3453 89.7776 92.8221 90.3062 93.0445 90.9551C93.7495 92.9999 92.5241 96.0877 91.7998 98.0206C91.2142 99.5829 90.5909 101.136 89.9397 102.671C89.2552 104.284 88.676 105.942 87.9027 107.518C87.0496 109.265 86.1585 111.311 84.1725 111.977C82.8654 112.427 81.0693 112.336 79.8493 111.702C77.7004 110.586 77.2415 108.621 76.6147 106.519C76.3143 105.487 75.9953 104.461 75.6581 103.442C74.4827 105.597 73.8352 108.239 72.5575 110.26C70.9616 112.785 66.5865 112.922 64.6271 110.753C63.4137 109.41 63.1691 108.185 62.6369 106.513C62.4059 105.809 62.1643 105.109 61.9121 104.412C60.9712 101.764 57.478 92.4523 55.5177 91.0044L55.4492 90.9548L55.4816 90.0327C56.3334 90.0086 57.2204 90.0265 58.0743 90.0332C60.8643 90.0548 63.5765 89.9162 66.343 89.5467L66.9471 89.4648C66.5363 90.4344 65.9524 91.7477 66.2779 92.8347C66.9084 94.9406 67.8861 96.9452 68.6667 99.0017L70.7747 104.601C71.0461 105.335 71.6321 107.074 71.9559 107.701C72.9457 105.705 74.6739 102.164 74.3298 99.9518C74.1471 98.7774 71.6751 93.1163 70.9689 92.0126C70.633 91.4877 70.2783 91.1115 69.7786 90.7434C69.7585 90.5068 69.7667 90.2451 69.768 90.0058C73.7087 90.0924 76.8856 90.0848 80.829 89.4904C80.7516 89.643 80.6772 89.7972 80.6056 89.9527C79.5497 92.2369 80.4604 93.8275 81.3287 96.0121L82.7825 99.6727C83.8503 102.438 84.8807 105.218 85.8736 108.011C88.691 102.55 89.9718 94.8773 84.445 90.6046C86.1532 89.8871 87.5976 89.3688 89.4713 89.1931Z" fill="#671414"/>
<path fill-rule="evenodd" clip-rule="evenodd" d="M45.0603 89.206C47.381 88.991 50.3142 89.7867 52.1072 91.1826C55.1874 93.581 55.2409 96.7753 55.2351 100.262C55.2307 102.951 54.7748 108.728 57.1258 110.526L57.1287 111.259L47.284 111.272C47.3411 110.028 47.4662 109.063 47.6414 107.833C46.1485 109.542 45.1278 111.11 42.7332 111.627C38.9841 112.436 35.533 111.115 34.5799 107.287C34.3268 106.003 34.432 104.676 34.8845 103.446C36.617 98.8428 42.5931 97.885 46.6795 96.4248C48.6849 95.4195 47.5445 90.9654 45.6062 90.4414C44.789 90.2313 44.0038 90.7349 43.7791 91.5156C43.3704 92.9362 43.8317 93.9958 44.6111 95.1621C42.7339 95.9618 40.9526 96.9369 39.1433 97.8662C38.5803 98.1553 37.7495 98.4039 37.2361 97.8779C35.6852 96.2885 36.2144 93.6473 37.6336 92.1504C39.5443 90.0716 42.297 89.3669 45.0603 89.206ZM47.3738 97.5723C45.1629 99.3321 42.8158 101.418 42.4656 104.392C42.3297 105.546 42.5393 106.562 43.3074 107.458C43.8304 107.905 44.2907 108.118 45.0017 108.066C46.6109 107.951 47.106 106.039 47.2967 104.727C47.5446 103.021 47.4472 101.269 47.4558 99.5488C47.4576 99.2112 47.4793 97.7554 47.3738 97.5723Z" fill="#671414"/>
</svg>
