<svg width="94" height="113" viewBox="0 0 94 113" fill="none" xmlns="http://www.w3.org/2000/svg">
<path d="M32.9016 0.0488751C40.0971 0.0865871 43.6498 5.3731 46.6163 11.107C50.6093 1.94573 61.026 -5.29823 68.8664 5.13223C72.1798 9.54023 72.6818 15.8831 71.6644 21.2465C74.9059 18.2831 80.8666 16.7101 84.9167 18.5957C92.2652 22.0166 92.5402 32.0672 89.5596 38.5185C87.2024 43.6206 83.2788 47.9434 78.0481 49.9667C80.3884 53.0734 82.2225 55.7921 83.1198 59.7012C84.2061 64.2977 83.3882 69.1381 80.8521 73.1224C78.0169 77.5883 73.717 80.8197 68.5292 81.9668C62.0873 83.1323 59.2378 80.9167 53.5936 79.2564C51.2428 78.588 48.8108 78.2466 46.3667 78.2425C39.6052 78.2528 35.3728 81.3511 29.1306 82.189C19.7671 83.4459 10.1315 75.1013 9.44532 65.7554C8.97785 59.3873 10.8812 54.7684 14.9262 49.8938C8.7192 46.2938 4.15716 41.4937 2.70099 34.2408C1.33682 27.4464 3.58259 19.4748 11.2329 18.0395C15.2313 17.2894 17.981 18.2998 21.2667 20.522C21.2105 20.1358 21.1658 19.7477 21.1329 19.3588C20.4339 11.4281 23.6072 0.786865 32.9016 0.0488751Z" fill="#671414"/>
<path d="M45.507 30.5477C46.1329 30.4805 47.1602 30.5227 47.7919 30.5604C54.7862 30.9761 60.9026 34.7984 64.9719 40.394C66.0899 41.9513 66.8362 43.7106 68.0763 45.1874C69.2681 46.607 70.5107 47.9428 71.8548 49.2204C73.0418 50.3482 74.2759 51.4649 75.3535 52.6965C78.1821 55.9302 80.0528 60.7726 79.7379 65.0787C79.4569 68.921 77.0652 72.742 74.2045 75.2016C70.4476 78.4342 65.3885 79.6844 60.646 78.0858C58.7066 77.432 56.8967 76.4014 54.8765 75.7772C52.3653 75.0014 50.3841 74.7459 47.8177 74.5478C45.4245 74.5213 39.4156 74.6692 37.4179 75.6957C30.5369 79.232 25.1206 80.3442 18.4772 75.1017C10.7334 68.9911 11.9559 57.9644 18.5537 51.3712C20.1769 49.749 22.0637 48.4132 23.5005 46.5958C25.4847 44.2556 26.9677 41.7247 28.8356 39.3154C33.5605 33.8403 38.3273 31.1192 45.507 30.5477Z" fill="white"/>
<path d="M38.4442 37.1679C38.5413 37.1629 38.6381 37.1587 38.7352 37.1555C41.8577 37.0668 45.1445 37.1532 48.256 37.139C55.8548 37.1039 55.7072 36.1486 55.6716 43.6439C57.7526 43.6347 64.4679 43.1555 65.9537 44.3437C66.5798 44.8445 66.9767 45.623 67.0578 46.4154C67.1965 47.7645 67.1009 49.2091 67.0999 50.5667L67.1069 57.9317L67.127 66.2633C67.1325 69.176 67.9922 72.9768 64.1143 73.1522L64.1044 74.8884L56.6435 74.8434L56.6258 73.0264L54.7258 73.0356L36.4251 73.0603L36.4331 74.8424C33.9843 74.8431 31.5353 74.82 29.0867 74.7731C29.077 74.5373 29.028 73.2284 28.9222 73.1365C28.2398 72.6792 27.3714 72.9736 26.7542 72.2691C26.0188 71.4228 26.1273 70.2262 26.1251 69.1788C26.1209 67.2602 26.1243 65.3386 26.1229 63.4195L26.0447 48.7539C26.0454 48.1418 26.0616 47.5169 26.0838 46.9197C26.2312 42.9346 30.0771 43.6304 32.8697 43.6205C34.3338 43.6155 35.7686 43.6392 37.2036 43.6489C37.1897 41.9121 37.1561 40.1741 37.2293 38.4393C37.6184 37.7731 37.7777 37.5509 38.4442 37.1679Z" fill="#671414"/>
<path d="M43.6841 50.1342C45.7756 50.1184 47.967 50.0698 50.0484 50.1451L50.0593 55.3197L55.0168 55.337C55.0313 57.5919 55.0336 59.8465 55.0237 62.1013L50.1013 62.0832C50.0782 63.1089 50.1279 66.4144 49.9931 67.1432L49.795 67.2605L43.2223 67.3271L43.2198 62.11C41.5712 62.0914 39.8909 62.1083 38.2391 62.1078L38.2268 55.2969L43.1635 55.2942C43.2203 54.2093 43.0441 50.9075 43.3116 50.2243L43.6841 50.1342Z" fill="white"/>
<path d="M40.3388 40.4993C44.3092 40.4145 48.9619 40.4306 52.92 40.5081L52.9293 43.7858C48.7405 43.7692 44.5199 43.8317 40.3368 43.786C40.3233 42.6904 40.324 41.5947 40.3388 40.4993Z" fill="white"/>
<path d="M59.6056 3.87226C65.0641 3.42753 68.306 11.0952 68.298 15.5611C68.2858 22.3663 65.7722 29.6382 57.9168 29.7825C52.6847 29.2648 49.8637 26.0628 49.2583 20.8869C48.7119 16.1839 50.0628 11.4571 53.0122 7.75305C54.648 5.69935 56.9655 4.17454 59.6056 3.87226Z" fill="white"/>
<path d="M32.5309 3.96303C38.2119 3.31547 42.7657 10.2147 43.5462 15.1185C44.539 21.3571 43.3055 28.3049 36.1723 29.65C21.7526 31.7428 21.899 5.92244 32.5309 3.96303Z" fill="white"/>
<path d="M79.9635 21.5477C80.083 21.5359 80.2028 21.5289 80.3227 21.5264C85.5122 21.4398 87.4696 26.13 87.4474 30.6224C87.4526 35.0407 85.6871 39.2771 82.5459 42.3842C80.413 44.4915 78.1883 45.7208 75.1757 45.7173C73.7353 45.6553 72.1263 44.9472 70.9941 44.0831C65.7835 40.1072 67.4971 31.7304 70.9788 27.2087C73.0931 24.4625 76.4599 21.9984 79.9635 21.5477Z" fill="white"/>
<path d="M11.9961 21.7317C13.6303 21.6031 15.5368 21.7483 17.0606 22.4777C23.2328 25.4324 27.9369 34.1289 25.0417 40.7622C23.9908 43.1703 22.374 44.4081 20.0178 45.3177C17.6064 45.9555 15.727 45.6594 13.5056 44.3182C7.21182 40.5178 4.24365 31.1335 7.67184 24.5494C8.48811 22.9818 10.3088 22.1297 11.9961 21.7317Z" fill="white"/>
<path fill-rule="evenodd" clip-rule="evenodd" d="M18.5753 82.4688C22.6455 82.5288 27.0495 82.4785 30.2677 85.418C33.2999 88.0425 34.4209 93.6645 31.4239 96.7393C28.4993 99.7396 23.1605 100.51 19.1895 100.561C19.1814 103.918 18.7272 109.077 21.3868 111.455C21.4868 111.545 21.4699 111.69 21.4522 111.801C20.9976 111.886 20.0701 111.847 19.5704 111.84C18.677 111.825 17.7833 111.816 16.8897 111.813L12.5001 111.806C11.8416 111.806 10.6277 111.844 10.0138 111.777C9.9053 111.65 9.86913 111.303 10.0196 111.199C11.6093 110.104 11.9168 108.198 12.128 106.404C12.3147 103.829 12.1968 100.287 12.1993 97.6035L12.1973 91.6611C12.1961 89.6547 12.4842 85.0363 10.9386 83.6426C6.72619 84.9292 6.03741 90.1765 8.56453 93.3076C9.04743 93.9058 9.86721 94.7845 10.0352 95.4844L10.0528 95.5625C9.64654 97.2001 8.2002 97.7146 6.71688 97.7598C-0.848346 97.9903 -2.12665 89.6031 3.40926 85.5303C6.88627 82.9723 10.106 82.6148 14.168 82.4932C15.5852 82.4206 17.1531 82.4594 18.5753 82.4688ZM21.1602 83.29C19.9815 85.0221 20.2037 88.9652 20.1964 91.0869L20.1641 99.6729C21.4929 99.4704 22.4887 98.9681 23.4639 97.9531C25.2066 96.0713 26.0735 93.6797 26.044 91.04C26.0192 88.8092 25.4598 86.5004 23.9249 84.8955C23.1127 84.0465 22.2213 83.6495 21.1602 83.29Z" fill="#671414"/>
<path d="M89.4718 89.1931C90.2165 89.1377 91.04 89.1684 91.7259 89.4923C92.3458 89.7776 92.8226 90.3062 93.045 90.9551C93.75 92.9999 92.5246 96.0877 91.8003 98.0206C91.2147 99.5829 90.5914 101.136 89.9402 102.671C89.2557 104.284 88.6765 105.942 87.9032 107.518C87.0501 109.265 86.159 111.311 84.173 111.977C82.8659 112.427 81.0698 112.336 79.8498 111.702C77.7009 110.586 77.2419 108.621 76.6152 106.519C76.3148 105.487 75.9958 104.461 75.6585 103.442C74.4832 105.597 73.8357 108.239 72.558 110.26C70.9621 112.785 66.587 112.922 64.6276 110.753C63.4142 109.41 63.1696 108.185 62.6374 106.513C62.4064 105.809 62.1648 105.109 61.9126 104.412C60.9717 101.764 57.4784 92.4523 55.5182 91.0044L55.4497 90.9548L55.4821 90.0327C56.3339 90.0086 57.2208 90.0265 58.0748 90.0332C60.8647 90.0548 63.577 89.9162 66.3435 89.5467L66.9476 89.4648C66.5368 90.4344 65.9529 91.7477 66.2784 92.8347C66.9089 94.9406 67.8866 96.9452 68.6672 99.0017L70.7752 104.601C71.0466 105.335 71.6326 107.074 71.9564 107.701C72.9461 105.705 74.6743 102.164 74.3303 99.9518C74.1476 98.7774 71.6756 93.1163 70.9694 92.0126C70.6334 91.4877 70.2788 91.1115 69.7791 90.7434C69.759 90.5068 69.7672 90.2451 69.7685 90.0058C73.7092 90.0924 76.8861 90.0848 80.8295 89.4904C80.7521 89.643 80.6776 89.7972 80.6061 89.9527C79.5502 92.2369 80.4609 93.8275 81.3292 96.0121L82.783 99.6727C83.8508 102.438 84.8812 105.218 85.8741 108.011C88.6914 102.55 89.9723 94.8773 84.4455 90.6046C86.1537 89.8871 87.5981 89.3688 89.4718 89.1931Z" fill="#671414"/>
<path fill-rule="evenodd" clip-rule="evenodd" d="M45.061 89.2055C47.3818 88.9905 50.3148 89.7871 52.1079 91.1831C55.1879 93.5813 55.2425 96.775 55.2368 100.261C55.2323 102.95 54.7757 108.727 57.1264 110.526L57.1303 111.258L47.2846 111.273C47.3417 110.029 47.4668 109.063 47.642 107.833C46.1492 109.543 45.1284 111.11 42.7338 111.626C38.9846 112.435 35.5335 111.115 34.5805 107.287C34.3276 106.003 34.4328 104.676 34.8852 103.447C36.6177 98.8433 42.5938 97.8855 46.6801 96.4253C48.6859 95.4203 47.5452 90.9659 45.6069 90.4419C44.7897 90.2318 44.0044 90.7353 43.7797 91.5161C43.3713 92.9365 43.8324 93.9964 44.6118 95.1626C42.7347 95.9622 40.9541 96.9374 39.145 97.8667C38.582 98.1557 37.7513 98.4038 37.2377 97.8784C35.6865 96.289 36.215 93.6478 37.6342 92.1508C39.5449 90.0718 42.2975 89.3664 45.061 89.2055ZM47.3745 97.5727C45.1636 99.3326 42.8165 101.417 42.4663 104.391C42.3303 105.546 42.5399 106.561 43.3081 107.457C43.8312 107.905 44.2913 108.119 45.0024 108.067C46.6116 107.951 47.1076 106.039 47.2983 104.727C47.5463 103.021 47.4478 101.268 47.4565 99.5483C47.4583 99.2101 47.4797 97.7572 47.3745 97.5727Z" fill="#671414"/>
</svg>
