<svg width="127" height="34" viewBox="0 0 127 34" fill="none" xmlns="http://www.w3.org/2000/svg">
<path d="M10.022 3.57956H14.1641C16.1072 3.57956 17.8331 4.01422 19.3416 4.88354C20.8501 5.75285 22.0348 6.96308 22.8956 8.51422C23.7564 10.0654 24.1868 11.8636 24.1868 13.9091C24.1868 15.9546 23.7564 17.7571 22.8956 19.3168C22.0348 20.8764 20.8501 22.0952 19.3416 22.973C17.8331 23.8509 16.1072 24.2898 14.1641 24.2898H10.022C8.07884 24.2898 6.35298 23.8551 4.84446 22.9858C3.33594 22.1165 2.15128 20.9063 1.29048 19.3551C0.429688 17.804 -0.00071013 16.0057 -0.00071013 13.9602C-0.00071013 11.9148 0.429688 10.1122 1.29048 8.55257C2.15128 6.99291 3.33594 5.77416 4.84446 4.89632C6.35298 4.01848 8.07884 3.57956 10.022 3.57956ZM10.022 6.39206C8.53906 6.39206 7.28622 6.70314 6.26349 7.3253C5.24929 7.94746 4.47798 8.8253 3.94957 9.95882C3.42969 11.0923 3.16974 12.4261 3.16974 13.9602C3.16974 15.4773 3.42969 16.7983 3.94957 17.9233C4.47798 19.0483 5.24929 19.9219 6.26349 20.544C7.28622 21.1662 8.53906 21.4773 10.022 21.4773H14.1641C15.647 21.4773 16.8956 21.1662 17.9098 20.544C18.9325 19.9219 19.7038 19.044 20.2237 17.9105C20.7521 16.777 21.0163 15.4432 21.0163 13.9091C21.0163 12.3921 20.7521 11.071 20.2237 9.94604C19.7038 8.82104 18.9325 7.94746 17.9098 7.3253C16.8956 6.70314 15.647 6.39206 14.1641 6.39206H10.022ZM13.7038 1.40667e-05V27.7159H10.5334V1.40667e-05H13.7038ZM32.1065 22.1932L41.5668 7.0057H45.044V26.6421H42.027V11.4546L32.6179 26.6421H29.0895V7.0057H32.1065V22.1932ZM48.8313 26.6421V23.8296H49.5472C50.1353 23.8296 50.6254 23.7145 51.0174 23.4844C51.4094 23.2458 51.7248 22.8324 51.9634 22.2443C52.2106 21.6477 52.3981 20.821 52.5259 19.7642C52.6623 18.6989 52.7603 17.3438 52.82 15.6989L53.1779 7.0057H66.2688V26.6421H63.2518V9.8182H56.0415L55.7347 16.8239C55.6665 18.4347 55.5217 19.8537 55.3001 21.081C55.087 22.2997 54.7589 23.3225 54.3157 24.1492C53.881 24.9759 53.3015 25.598 52.5771 26.0156C51.8526 26.4333 50.945 26.6421 49.854 26.6421H48.8313ZM74.4123 14.1136H80.0373C82.3384 14.1136 84.0984 14.6975 85.3171 15.8651C86.5359 17.0327 87.1452 18.5114 87.1452 20.3011C87.1452 21.4773 86.8725 22.5469 86.3271 23.51C85.7816 24.4645 84.9805 25.2273 83.9237 25.7983C82.8668 26.3608 81.5714 26.6421 80.0373 26.6421H71.8043V7.0057H74.8214V23.8296H80.0373C81.2305 23.8296 82.2106 23.5142 82.9776 22.8835C83.7447 22.2529 84.1282 21.4432 84.1282 20.4546C84.1282 19.4148 83.7447 18.5668 82.9776 17.9105C82.2106 17.2543 81.2305 16.9261 80.0373 16.9261H74.4123V14.1136ZM88.5739 9.8182V7.0057H104.528V9.8182H98.0852V26.6421H95.0682V9.8182H88.5739ZM108.929 34.0057V7.0057H111.844V10.125H112.202C112.424 9.7841 112.73 9.34945 113.123 8.82104C113.523 8.2841 114.094 7.80683 114.836 7.38922C115.586 6.96308 116.6 6.75001 117.878 6.75001C119.532 6.75001 120.989 7.16337 122.25 7.99007C123.512 8.81677 124.496 9.98865 125.203 11.5057C125.911 13.0227 126.265 14.8125 126.265 16.875C126.265 18.9546 125.911 20.7571 125.203 22.2827C124.496 23.7997 123.516 24.9759 122.263 25.8111C121.01 26.6378 119.566 27.0512 117.929 27.0512C116.668 27.0512 115.658 26.8423 114.9 26.4247C114.141 25.9986 113.557 25.5171 113.148 24.9801C112.739 24.4347 112.424 23.983 112.202 23.625H111.946V34.0057H108.929ZM111.895 16.8239C111.895 18.3068 112.113 19.6151 112.547 20.7486C112.982 21.8736 113.617 22.7557 114.452 23.3949C115.287 24.0256 116.31 24.3409 117.52 24.3409C118.782 24.3409 119.834 24.0085 120.678 23.3438C121.53 22.6705 122.169 21.7671 122.596 20.6335C123.03 19.4915 123.248 18.2216 123.248 16.8239C123.248 15.4432 123.034 14.1989 122.608 13.0909C122.191 11.9744 121.556 11.0923 120.703 10.4446C119.86 9.78837 118.799 9.46024 117.52 9.46024C116.293 9.46024 115.262 9.77132 114.426 10.3935C113.591 11.0071 112.961 11.8679 112.534 12.9759C112.108 14.0753 111.895 15.358 111.895 16.8239Z" fill="black"/>
</svg>
