<svg width="356" height="34" viewBox="0 0 356 34" fill="none" xmlns="http://www.w3.org/2000/svg">
<path d="M19.535 4.76837e-06V26.1818H16.3645V2.8125H3.17134V26.1818H0.00088793V4.76837e-06H19.535ZM25.5211 33.5455V6.54546H28.4359V9.66478H28.7939C29.0154 9.32387 29.3223 8.88921 29.7143 8.3608C30.1149 7.82387 30.6859 7.3466 31.4274 6.92898C32.1774 6.50285 33.1916 6.28978 34.47 6.28978C36.1234 6.28978 37.5808 6.70313 38.8422 7.52983C40.1035 8.35654 41.0879 9.52841 41.7953 11.0455C42.5027 12.5625 42.8564 14.3523 42.8564 16.4148C42.8564 18.4943 42.5027 20.2969 41.7953 21.8224C41.0879 23.3395 40.1078 24.5156 38.8549 25.3509C37.6021 26.1776 36.1575 26.5909 34.5211 26.5909C33.2598 26.5909 32.2498 26.3821 31.4913 25.9645C30.7328 25.5384 30.149 25.0568 29.7399 24.5199C29.3308 23.9744 29.0154 23.5227 28.7939 23.1648H28.5382V33.5455H25.5211ZM28.487 16.3636C28.487 17.8466 28.7044 19.1548 29.139 20.2884C29.5737 21.4134 30.2086 22.2955 31.0439 22.9347C31.8791 23.5653 32.9018 23.8807 34.112 23.8807C35.3734 23.8807 36.426 23.5483 37.2697 22.8835C38.122 22.2102 38.7612 21.3068 39.1873 20.1733C39.622 19.0313 39.8393 17.7614 39.8393 16.3636C39.8393 14.983 39.6262 13.7386 39.2001 12.6307C38.7825 11.5142 38.1476 10.6321 37.2953 9.98438C36.4515 9.32813 35.3904 9 34.112 9C32.8848 9 31.8535 9.31108 31.0183 9.93324C30.1831 10.5469 29.5524 11.4077 29.1262 12.5156C28.7001 13.6151 28.487 14.8977 28.487 16.3636ZM55.6916 26.5909C53.7995 26.5909 52.1674 26.1733 50.7953 25.3381C49.4316 24.4943 48.3791 23.3182 47.6376 21.8097C46.9047 20.2926 46.5382 18.5284 46.5382 16.5171C46.5382 14.5057 46.9047 12.733 47.6376 11.1989C48.3791 9.65626 49.4103 8.45455 50.7314 7.59375C52.0609 6.72444 53.612 6.28978 55.3848 6.28978C56.4075 6.28978 57.4174 6.46023 58.4146 6.80114C59.4118 7.14205 60.3194 7.69603 61.1376 8.46307C61.9558 9.2216 62.6078 10.2273 63.0936 11.4801C63.5794 12.733 63.8223 14.2756 63.8223 16.108V17.3864H48.6859V14.7784H60.7541C60.7541 13.6705 60.5325 12.6818 60.0893 11.8125C59.6547 10.9432 59.0325 10.2571 58.2228 9.75427C57.4217 9.25143 56.4757 9 55.3848 9C54.1831 9 53.1433 9.2983 52.2654 9.89489C51.3961 10.483 50.7271 11.25 50.2583 12.196C49.7896 13.1421 49.5552 14.1563 49.5552 15.2386V16.9773C49.5552 18.4602 49.8109 19.7173 50.3223 20.7486C50.8422 21.7713 51.5623 22.5511 52.4828 23.0881C53.4032 23.6165 54.4728 23.8807 55.6916 23.8807C56.4842 23.8807 57.2001 23.7699 57.8393 23.5483C58.487 23.3182 59.0453 22.9773 59.514 22.5256C59.9828 22.0653 60.345 21.4943 60.6007 20.8125L63.5154 21.6307C63.2086 22.6193 62.693 23.4886 61.9686 24.2386C61.2441 24.9801 60.3493 25.5597 59.2839 25.9773C58.2186 26.3864 57.0211 26.5909 55.6916 26.5909ZM66.3152 31.8068V23.3693H67.9515C68.3521 22.9517 68.6973 22.5 68.987 22.0142C69.2768 21.5284 69.5282 20.9531 69.7413 20.2884C69.9629 19.6151 70.1504 18.7969 70.3038 17.8338C70.4572 16.8622 70.5936 15.6903 70.7129 14.3182L71.3777 6.54546H83.8549V23.3693H86.872V31.8068H83.8549V26.1818H69.3322V31.8068H66.3152ZM71.3777 23.3693H80.8379V9.35796H74.1902L73.6788 14.3182C73.4657 16.3722 73.2015 18.1662 72.8862 19.7003C72.5708 21.2344 72.068 22.4574 71.3777 23.3693ZM89.138 26.1818V23.3693H89.8539C90.4419 23.3693 90.932 23.2543 91.324 23.0242C91.7161 22.7855 92.0314 22.3722 92.2701 21.7841C92.5172 21.1875 92.7047 20.3608 92.8326 19.304C92.9689 18.2386 93.0669 16.8835 93.1266 15.2386L93.4846 6.54546H106.575V26.1818H103.558V9.35796H96.3482L96.0414 16.3636C95.9732 17.9744 95.8283 19.3935 95.6067 20.6207C95.3936 21.8395 95.0655 22.8622 94.6223 23.6889C94.1877 24.5156 93.6081 25.1378 92.8837 25.5554C92.1593 25.973 91.2516 26.1818 90.1607 26.1818H89.138ZM120.088 26.5909C118.316 26.5909 116.76 26.169 115.422 25.3253C114.093 24.4815 113.053 23.3011 112.303 21.7841C111.561 20.2671 111.191 18.4943 111.191 16.4659C111.191 14.4205 111.561 12.6349 112.303 11.1094C113.053 9.58381 114.093 8.39915 115.422 7.5554C116.76 6.71165 118.316 6.28978 120.088 6.28978C121.861 6.28978 123.412 6.71165 124.742 7.5554C126.08 8.39915 127.119 9.58381 127.861 11.1094C128.611 12.6349 128.986 14.4205 128.986 16.4659C128.986 18.4943 128.611 20.2671 127.861 21.7841C127.119 23.3011 126.08 24.4815 124.742 25.3253C123.412 26.169 121.861 26.5909 120.088 26.5909ZM120.088 23.8807C121.435 23.8807 122.543 23.5355 123.412 22.8452C124.281 22.1548 124.925 21.2472 125.343 20.1222C125.76 18.9972 125.969 17.7784 125.969 16.4659C125.969 15.1534 125.76 13.9304 125.343 12.7969C124.925 11.6634 124.281 10.7472 123.412 10.0483C122.543 9.34944 121.435 9 120.088 9C118.742 9 117.634 9.34944 116.764 10.0483C115.895 10.7472 115.252 11.6634 114.834 12.7969C114.416 13.9304 114.208 15.1534 114.208 16.4659C114.208 17.7784 114.416 18.9972 114.834 20.1222C115.252 21.2472 115.895 22.1548 116.764 22.8452C117.634 23.5355 118.742 23.8807 120.088 23.8807ZM131.556 26.1818L139.533 16.2102L131.658 6.54546H135.237L141.783 14.9318H143.419V6.54546H146.436V14.9318H148.021L154.567 6.54546H158.146L150.323 16.2102L158.249 26.1818H154.618L147.97 17.7443H146.436V26.1818H143.419V17.7443H141.885L135.186 26.1818H131.556ZM175.702 14.983V17.7955H164.861V14.983H175.702ZM165.577 6.54546V26.1818H162.56V6.54546H165.577ZM178.003 6.54546V26.1818H174.986V6.54546H178.003ZM186.121 13.6534H191.746C194.047 13.6534 195.807 14.2372 197.026 15.4048C198.245 16.5724 198.854 18.0511 198.854 19.8409C198.854 21.0171 198.581 22.0867 198.036 23.0497C197.491 24.0043 196.689 24.7671 195.633 25.3381C194.576 25.9006 193.28 26.1818 191.746 26.1818H183.513V6.54546H186.53V23.3693H191.746C192.939 23.3693 193.92 23.054 194.687 22.4233C195.454 21.7926 195.837 20.983 195.837 19.9943C195.837 18.9546 195.454 18.1065 194.687 17.4503C193.92 16.794 192.939 16.4659 191.746 16.4659H186.121V13.6534ZM201.974 26.1818V6.54546H204.991V26.1818H201.974ZM218.746 26.5909C216.854 26.5909 215.222 26.1733 213.85 25.3381C212.486 24.4943 211.434 23.3182 210.692 21.8097C209.959 20.2926 209.593 18.5284 209.593 16.5171C209.593 14.5057 209.959 12.733 210.692 11.1989C211.434 9.65626 212.465 8.45455 213.786 7.59375C215.116 6.72444 216.667 6.28978 218.439 6.28978C219.462 6.28978 220.472 6.46023 221.469 6.80114C222.466 7.14205 223.374 7.69603 224.192 8.46307C225.01 9.2216 225.662 10.2273 226.148 11.4801C226.634 12.733 226.877 14.2756 226.877 16.108V17.3864H211.741V14.7784H223.809C223.809 13.6705 223.587 12.6818 223.144 11.8125C222.709 10.9432 222.087 10.2571 221.278 9.75427C220.476 9.25143 219.53 9 218.439 9C217.238 9 216.198 9.2983 215.32 9.89489C214.451 10.483 213.782 11.25 213.313 12.196C212.844 13.1421 212.61 14.1563 212.61 15.2386V16.9773C212.61 18.4602 212.866 19.7173 213.377 20.7486C213.897 21.7713 214.617 22.5511 215.537 23.0881C216.458 23.6165 217.528 23.8807 218.746 23.8807C219.539 23.8807 220.255 23.7699 220.894 23.5483C221.542 23.3182 222.1 22.9773 222.569 22.5256C223.037 22.0653 223.4 21.4943 223.655 20.8125L226.57 21.6307C226.263 22.6193 225.748 23.4886 225.023 24.2386C224.299 24.9801 223.404 25.5597 222.339 25.9773C221.273 26.3864 220.076 26.5909 218.746 26.5909ZM240.364 21.1705H243.586C243.654 22.0568 244.055 22.7301 244.787 23.1903C245.529 23.6506 246.492 23.8807 247.677 23.8807C248.887 23.8807 249.922 23.6335 250.783 23.1392C251.644 22.6364 252.074 21.8267 252.074 20.7102C252.074 20.054 251.912 19.483 251.589 18.9972C251.265 18.5028 250.809 18.1193 250.221 17.8466C249.633 17.5739 248.938 17.4375 248.137 17.4375H244.762V14.7273H248.137C249.339 14.7273 250.225 14.4546 250.796 13.9091C251.376 13.3636 251.665 12.6818 251.665 11.8636C251.665 10.9858 251.354 10.2827 250.732 9.75427C250.11 9.21733 249.228 8.94887 248.086 8.94887C246.935 8.94887 245.976 9.20881 245.209 9.7287C244.442 10.2401 244.037 10.9006 243.995 11.7102H240.824C240.858 10.6534 241.182 9.72018 241.796 8.91052C242.41 8.09233 243.245 7.45313 244.302 6.9929C245.358 6.52415 246.569 6.28978 247.932 6.28978C249.313 6.28978 250.51 6.53268 251.525 7.01847C252.547 7.49574 253.336 8.14773 253.89 8.97444C254.452 9.79262 254.733 10.7216 254.733 11.7614C254.733 12.8693 254.422 13.7642 253.8 14.446C253.178 15.1278 252.398 15.6136 251.461 15.9034V16.108C252.202 16.1591 252.846 16.3977 253.391 16.8239C253.945 17.2415 254.376 17.7912 254.682 18.473C254.989 19.1463 255.143 19.8921 255.143 20.7102C255.143 21.9034 254.823 22.9432 254.184 23.8296C253.545 24.7074 252.667 25.3892 251.55 25.875C250.434 26.3523 249.16 26.5909 247.728 26.5909C246.339 26.5909 245.094 26.3651 243.995 25.9134C242.895 25.4531 242.022 24.8182 241.374 24.0085C240.735 23.1903 240.398 22.2443 240.364 21.1705ZM265.159 26.6421C263.915 26.6421 262.785 26.4077 261.771 25.9389C260.757 25.4617 259.952 24.7756 259.355 23.8807C258.758 22.9773 258.46 21.8864 258.46 20.608C258.46 19.483 258.682 18.571 259.125 17.8722C259.568 17.1648 260.16 16.6108 260.902 16.2102C261.643 15.8097 262.461 15.5114 263.356 15.3153C264.26 15.1108 265.167 14.9489 266.079 14.8296C267.273 14.6761 268.24 14.5611 268.981 14.4844C269.731 14.3992 270.277 14.2585 270.618 14.0625C270.967 13.8665 271.142 13.5256 271.142 13.0398V12.9375C271.142 11.6761 270.797 10.696 270.106 9.99716C269.425 9.2983 268.389 8.94887 267 8.94887C265.559 8.94887 264.43 9.26421 263.612 9.89489C262.794 10.5256 262.219 11.1989 261.886 11.9148L259.023 10.8921C259.534 9.69887 260.216 8.76989 261.068 8.10512C261.929 7.43182 262.866 6.96307 263.881 6.69887C264.903 6.42614 265.909 6.28978 266.898 6.28978C267.528 6.28978 268.253 6.36648 269.071 6.51989C269.898 6.66478 270.694 6.96733 271.461 7.42756C272.237 7.88779 272.881 8.58239 273.392 9.51137C273.903 10.4403 274.159 11.6847 274.159 13.2443V26.1818H271.142V23.5227H270.988C270.784 23.9489 270.443 24.4048 269.966 24.8906C269.488 25.3764 268.854 25.7898 268.061 26.1307C267.268 26.4716 266.301 26.6421 265.159 26.6421ZM265.619 23.9318C266.812 23.9318 267.818 23.6974 268.636 23.2287C269.463 22.7599 270.085 22.1548 270.503 21.4134C270.929 20.6719 271.142 19.8921 271.142 19.0739V16.3125C271.014 16.4659 270.733 16.6065 270.298 16.7344C269.872 16.8537 269.378 16.9602 268.815 17.054C268.261 17.1392 267.72 17.2159 267.192 17.2841C266.672 17.3438 266.25 17.3949 265.926 17.4375C265.142 17.5398 264.409 17.706 263.727 17.9361C263.054 18.1577 262.508 18.4943 262.091 18.946C261.682 19.3892 261.477 19.9943 261.477 20.7614C261.477 21.8097 261.865 22.6023 262.64 23.1392C263.425 23.6676 264.417 23.9318 265.619 23.9318ZM291.478 26.1818V9.30682H286.262C285.086 9.30682 284.161 9.57955 283.488 10.125C282.815 10.6705 282.478 11.4205 282.478 12.375C282.478 13.3125 282.781 14.0497 283.386 14.5867C283.999 15.1236 284.839 15.3921 285.904 15.3921H292.245V18.2046H285.904C284.575 18.2046 283.428 17.9702 282.465 17.5014C281.502 17.0327 280.761 16.3636 280.241 15.4943C279.721 14.6165 279.461 13.5767 279.461 12.375C279.461 11.1648 279.734 10.125 280.279 9.25569C280.825 8.38637 281.605 7.71733 282.619 7.24858C283.642 6.77983 284.856 6.54546 286.262 6.54546H294.342V26.1818H291.478ZM278.387 26.1818L283.961 16.4148H287.234L281.66 26.1818H278.387ZM299.881 26.1818V6.54546H307.909C310.023 6.54546 311.702 7.02273 312.946 7.97728C314.19 8.93182 314.812 10.1932 314.812 11.7614C314.812 12.9546 314.459 13.8793 313.751 14.5355C313.044 15.1832 312.136 15.6222 311.028 15.8523C311.753 15.9546 312.456 16.2102 313.138 16.6193C313.828 17.0284 314.399 17.5909 314.851 18.3068C315.302 19.0142 315.528 19.8835 315.528 20.9148C315.528 21.9205 315.273 22.8196 314.761 23.6122C314.25 24.4048 313.517 25.0313 312.562 25.4915C311.608 25.9517 310.466 26.1818 309.136 26.1818H299.881ZM302.744 23.4205H309.136C310.176 23.4205 310.99 23.1733 311.578 22.679C312.166 22.1847 312.46 21.5114 312.46 20.6591C312.46 19.6449 312.166 18.848 311.578 18.2685C310.99 17.6804 310.176 17.3864 309.136 17.3864H302.744V23.4205ZM302.744 14.7784H307.909C308.719 14.7784 309.413 14.6676 309.993 14.446C310.572 14.2159 311.015 13.8921 311.322 13.4744C311.638 13.0483 311.795 12.5455 311.795 11.9659C311.795 11.1392 311.45 10.4915 310.76 10.0227C310.069 9.54546 309.119 9.30682 307.909 9.30682H302.744V14.7784ZM320.095 26.1818V6.54546H323.112V15.0852H325.107L332.164 6.54546H336.05L328.124 16.0057L336.152 26.1818H332.266L325.823 17.8977H323.112V26.1818H320.095ZM342.448 21.733L351.909 6.54546H355.386V26.1818H352.369V10.9943L342.96 26.1818H339.431V6.54546H342.448V21.733Z" fill="black"/>
</svg>
