<svg width="720" height="140" viewBox="0 0 720 140" fill="none" xmlns="http://www.w3.org/2000/svg">
<mask id="path-1-inside-1_450_62" fill="white">
<path d="M300 0H670C697.614 0 720 22.3858 720 50V140H300V0Z"/>
</mask>
<path d="M300 0H670C697.614 0 720 22.3858 720 50V140H300V0Z" fill="#FFEAEA"/>
<path d="M300 -5H670C700.376 -5 725 19.6243 725 50H715C715 25.1472 694.853 5 670 5H300V-5ZM725 145H300V135H715L725 145ZM715 135M300 140V0V140M670 -5C700.376 -5 725 19.6243 725 50V145L715 135V50C715 25.1472 694.853 5 670 5V-5Z" fill="#671414" mask="url(#path-1-inside-1_450_62)"/>
<path d="M430.799 85.358C429.112 85.358 427.607 85.0682 426.286 84.4886C424.974 83.9091 423.93 83.1037 423.154 82.0724C422.387 81.0327 421.969 79.8267 421.901 78.4545H425.123C425.191 79.2983 425.481 80.027 425.992 80.6406C426.504 81.2457 427.173 81.7145 427.999 82.0469C428.826 82.3793 429.742 82.5455 430.748 82.5455C431.873 82.5455 432.87 82.3494 433.739 81.9574C434.609 81.5653 435.29 81.0199 435.785 80.321C436.279 79.6222 436.526 78.8125 436.526 77.892C436.526 76.929 436.288 76.081 435.81 75.348C435.333 74.6065 434.634 74.027 433.714 73.6094C432.793 73.1918 431.668 72.983 430.339 72.983H428.242V70.1705H430.339C431.379 70.1705 432.29 69.983 433.075 69.608C433.867 69.233 434.485 68.7045 434.928 68.0227C435.38 67.3409 435.606 66.5398 435.606 65.6193C435.606 64.733 435.41 63.9616 435.018 63.3054C434.626 62.6491 434.072 62.1378 433.356 61.7713C432.648 61.4048 431.813 61.2216 430.85 61.2216C429.947 61.2216 429.094 61.3878 428.293 61.7202C427.501 62.044 426.853 62.517 426.35 63.1392C425.847 63.7528 425.575 64.4943 425.532 65.3636H422.464C422.515 63.9915 422.928 62.7898 423.704 61.7585C424.479 60.7187 425.494 59.9091 426.746 59.3295C428.008 58.75 429.393 58.4602 430.901 58.4602C432.521 58.4602 433.91 58.7884 435.069 59.4446C436.228 60.0923 437.119 60.9489 437.741 62.0142C438.363 63.0795 438.674 64.2301 438.674 65.4659C438.674 66.9403 438.286 68.1974 437.511 69.2372C436.744 70.277 435.7 70.9972 434.379 71.3977V71.6023C436.032 71.875 437.323 72.5781 438.252 73.7116C439.181 74.8366 439.646 76.2301 439.646 77.892C439.646 79.3153 439.258 80.5938 438.482 81.7273C437.715 82.8523 436.667 83.7386 435.337 84.3864C434.008 85.0341 432.495 85.358 430.799 85.358ZM450.704 85.4602C449.46 85.4602 448.33 85.2259 447.316 84.7571C446.302 84.2798 445.496 83.5938 444.9 82.6989C444.303 81.7955 444.005 80.7045 444.005 79.4261C444.005 78.3011 444.227 77.3892 444.67 76.6903C445.113 75.983 445.705 75.429 446.447 75.0284C447.188 74.6278 448.006 74.3295 448.901 74.1335C449.805 73.929 450.712 73.767 451.624 73.6477C452.817 73.4943 453.785 73.3793 454.526 73.3026C455.276 73.2173 455.822 73.0767 456.163 72.8807C456.512 72.6847 456.687 72.3437 456.687 71.858V71.7557C456.687 70.4943 456.342 69.5142 455.651 68.8153C454.969 68.1165 453.934 67.767 452.545 67.767C451.104 67.767 449.975 68.0824 449.157 68.7131C448.339 69.3437 447.763 70.017 447.431 70.733L444.567 69.7102C445.079 68.517 445.761 67.5881 446.613 66.9233C447.474 66.25 448.411 65.7812 449.425 65.517C450.448 65.2443 451.454 65.108 452.442 65.108C453.073 65.108 453.798 65.1847 454.616 65.3381C455.442 65.483 456.239 65.7855 457.006 66.2457C457.782 66.706 458.425 67.4006 458.937 68.3295C459.448 69.2585 459.704 70.5028 459.704 72.0625V85H456.687V82.3409H456.533C456.329 82.767 455.988 83.223 455.511 83.7088C455.033 84.1946 454.398 84.608 453.606 84.9489C452.813 85.2898 451.846 85.4602 450.704 85.4602ZM451.164 82.75C452.357 82.75 453.363 82.5156 454.181 82.0469C455.008 81.5781 455.63 80.973 456.048 80.2315C456.474 79.4901 456.687 78.7102 456.687 77.892V75.1307C456.559 75.2841 456.278 75.4247 455.843 75.5526C455.417 75.6719 454.923 75.7784 454.36 75.8722C453.806 75.9574 453.265 76.0341 452.737 76.1023C452.217 76.1619 451.795 76.2131 451.471 76.2557C450.687 76.358 449.954 76.5241 449.272 76.7543C448.599 76.9759 448.053 77.3125 447.636 77.7642C447.227 78.2074 447.022 78.8125 447.022 79.5795C447.022 80.6278 447.41 81.4205 448.185 81.9574C448.969 82.4858 449.962 82.75 451.164 82.75ZM465.211 85V65.3636H473.239C475.353 65.3636 477.032 65.8409 478.276 66.7955C479.52 67.75 480.142 69.0114 480.142 70.5795C480.142 71.7727 479.789 72.6974 479.081 73.3537C478.374 74.0014 477.466 74.4403 476.358 74.6705C477.083 74.7727 477.786 75.0284 478.468 75.4375C479.158 75.8466 479.729 76.4091 480.181 77.125C480.632 77.8324 480.858 78.7017 480.858 79.733C480.858 80.7386 480.603 81.6378 480.091 82.4304C479.58 83.223 478.847 83.8494 477.892 84.3097C476.938 84.7699 475.796 85 474.466 85H465.211ZM468.074 82.2386H474.466C475.506 82.2386 476.32 81.9915 476.908 81.4972C477.496 81.0028 477.79 80.3295 477.79 79.4773C477.79 78.4631 477.496 77.6662 476.908 77.0866C476.32 76.4986 475.506 76.2045 474.466 76.2045H468.074V82.2386ZM468.074 73.5966H473.239C474.049 73.5966 474.743 73.4858 475.323 73.2642C475.902 73.0341 476.346 72.7102 476.652 72.2926C476.968 71.8665 477.125 71.3636 477.125 70.7841C477.125 69.9574 476.78 69.3097 476.09 68.8409C475.4 68.3636 474.449 68.125 473.239 68.125H468.074V73.5966ZM493.658 85.4091C491.766 85.4091 490.134 84.9915 488.762 84.1562C487.398 83.3125 486.346 82.1364 485.604 80.6278C484.871 79.1108 484.505 77.3466 484.505 75.3352C484.505 73.3239 484.871 71.5511 485.604 70.017C486.346 68.4744 487.377 67.2727 488.698 66.4119C490.028 65.5426 491.579 65.108 493.352 65.108C494.374 65.108 495.384 65.2784 496.381 65.6193C497.379 65.9602 498.286 66.5142 499.104 67.2812C499.923 68.0398 500.575 69.0455 501.06 70.2983C501.546 71.5511 501.789 73.0937 501.789 74.9261V76.2045H486.653V73.5966H498.721C498.721 72.4886 498.499 71.5 498.056 70.6307C497.621 69.7614 496.999 69.0753 496.19 68.5724C495.388 68.0696 494.442 67.8182 493.352 67.8182C492.15 67.8182 491.11 68.1165 490.232 68.7131C489.363 69.3011 488.694 70.0682 488.225 71.0142C487.756 71.9602 487.522 72.9744 487.522 74.0568V75.7955C487.522 77.2784 487.778 78.5355 488.289 79.5668C488.809 80.5895 489.529 81.3693 490.45 81.9062C491.37 82.4347 492.44 82.6989 493.658 82.6989C494.451 82.6989 495.167 82.5881 495.806 82.3665C496.454 82.1364 497.012 81.7955 497.481 81.3438C497.95 80.8835 498.312 80.3125 498.567 79.6307L501.482 80.4489C501.175 81.4375 500.66 82.3068 499.935 83.0568C499.211 83.7983 498.316 84.3778 497.251 84.7955C496.185 85.2045 494.988 85.4091 493.658 85.4091ZM506.379 92.3636V65.3636H509.293V68.483H509.651C509.873 68.142 510.18 67.7074 510.572 67.179C510.972 66.642 511.543 66.1648 512.285 65.7472C513.035 65.321 514.049 65.108 515.327 65.108C516.981 65.108 518.438 65.5213 519.7 66.348C520.961 67.1747 521.945 68.3466 522.653 69.8636C523.36 71.3807 523.714 73.1705 523.714 75.233C523.714 77.3125 523.36 79.1151 522.653 80.6406C521.945 82.1577 520.965 83.3338 519.712 84.169C518.46 84.9957 517.015 85.4091 515.379 85.4091C514.117 85.4091 513.107 85.2003 512.349 84.7827C511.59 84.3565 511.006 83.875 510.597 83.3381C510.188 82.7926 509.873 82.3409 509.651 81.983H509.396V92.3636H506.379ZM509.344 75.1818C509.344 76.6648 509.562 77.973 509.996 79.1065C510.431 80.2315 511.066 81.1136 511.901 81.7528C512.737 82.3835 513.759 82.6989 514.969 82.6989C516.231 82.6989 517.283 82.3665 518.127 81.7017C518.979 81.0284 519.619 80.125 520.045 78.9915C520.479 77.8494 520.697 76.5795 520.697 75.1818C520.697 73.8011 520.484 72.5568 520.058 71.4489C519.64 70.3324 519.005 69.4503 518.153 68.8026C517.309 68.1463 516.248 67.8182 514.969 67.8182C513.742 67.8182 512.711 68.1293 511.876 68.7514C511.04 69.3651 510.41 70.2259 509.984 71.3338C509.558 72.4332 509.344 73.7159 509.344 75.1818ZM528.316 65.3636H531.333V82.1875H538.748V65.3636H541.765V82.1875H549.18V65.3636H552.197V85H528.316V65.3636ZM565.94 85.4091C564.048 85.4091 562.415 84.9915 561.043 84.1562C559.68 83.3125 558.627 82.1364 557.886 80.6278C557.153 79.1108 556.786 77.3466 556.786 75.3352C556.786 73.3239 557.153 71.5511 557.886 70.017C558.627 68.4744 559.658 67.2727 560.979 66.4119C562.309 65.5426 563.86 65.108 565.633 65.108C566.656 65.108 567.665 65.2784 568.663 65.6193C569.66 65.9602 570.567 66.5142 571.386 67.2812C572.204 68.0398 572.856 69.0455 573.342 70.2983C573.827 71.5511 574.07 73.0937 574.07 74.9261V76.2045H558.934V73.5966H571.002C571.002 72.4886 570.781 71.5 570.337 70.6307C569.903 69.7614 569.281 69.0753 568.471 68.5724C567.67 68.0696 566.724 67.8182 565.633 67.8182C564.431 67.8182 563.391 68.1165 562.513 68.7131C561.644 69.3011 560.975 70.0682 560.506 71.0142C560.038 71.9602 559.803 72.9744 559.803 74.0568V75.7955C559.803 77.2784 560.059 78.5355 560.57 79.5668C561.09 80.5895 561.81 81.3693 562.731 81.9062C563.651 82.4347 564.721 82.6989 565.94 82.6989C566.732 82.6989 567.448 82.5881 568.087 82.3665C568.735 82.1364 569.293 81.7955 569.762 81.3438C570.231 80.8835 570.593 80.3125 570.849 79.6307L573.763 80.4489C573.457 81.4375 572.941 82.3068 572.217 83.0568C571.492 83.7983 570.597 84.3778 569.532 84.7955C568.467 85.2045 567.269 85.4091 565.94 85.4091ZM561.798 62.0909C561.261 62.0909 560.783 61.8864 560.366 61.4773C559.957 61.0597 559.752 60.5824 559.752 60.0455C559.752 59.4574 559.957 58.9716 560.366 58.5881C560.783 58.196 561.261 58 561.798 58C562.386 58 562.871 58.196 563.255 58.5881C563.647 58.9716 563.843 59.4574 563.843 60.0455C563.843 60.5824 563.647 61.0597 563.255 61.4773C562.871 61.8864 562.386 62.0909 561.798 62.0909ZM569.161 62.0909C568.624 62.0909 568.147 61.8864 567.729 61.4773C567.32 61.0597 567.116 60.5824 567.116 60.0455C567.116 59.4574 567.32 58.9716 567.729 58.5881C568.147 58.196 568.624 58 569.161 58C569.749 58 570.235 58.196 570.619 58.5881C571.011 58.9716 571.207 59.4574 571.207 60.0455C571.207 60.5824 571.011 61.0597 570.619 61.4773C570.235 61.8864 569.749 62.0909 569.161 62.0909ZM591.802 73.8011V76.6136H580.961V73.8011H591.802ZM581.677 65.3636V85H578.66V65.3636H581.677ZM594.103 65.3636V85H591.086V65.3636H594.103ZM612.755 73.8011V76.6136H601.914V73.8011H612.755ZM602.63 65.3636V85H599.613V65.3636H602.63ZM615.056 65.3636V85H612.039V65.3636H615.056ZM623.174 72.4716H628.799C631.1 72.4716 632.86 73.0554 634.079 74.223C635.298 75.3906 635.907 76.8693 635.907 78.6591C635.907 79.8352 635.634 80.9048 635.089 81.8679C634.543 82.8224 633.742 83.5852 632.685 84.1562C631.629 84.7188 630.333 85 628.799 85H620.566V65.3636H623.583V82.1875H628.799C629.992 82.1875 630.972 81.8722 631.739 81.2415C632.506 80.6108 632.89 79.8011 632.89 78.8125C632.89 77.7727 632.506 76.9247 631.739 76.2685C630.972 75.6122 629.992 75.2841 628.799 75.2841H623.174V72.4716ZM639.026 85V65.3636H642.043V85H639.026ZM655.799 85.4091C653.907 85.4091 652.275 84.9915 650.903 84.1562C649.539 83.3125 648.487 82.1364 647.745 80.6278C647.012 79.1108 646.646 77.3466 646.646 75.3352C646.646 73.3239 647.012 71.5511 647.745 70.017C648.487 68.4744 649.518 67.2727 650.839 66.4119C652.168 65.5426 653.719 65.108 655.492 65.108C656.515 65.108 657.525 65.2784 658.522 65.6193C659.519 65.9602 660.427 66.5142 661.245 67.2812C662.063 68.0398 662.715 69.0455 663.201 70.2983C663.687 71.5511 663.93 73.0937 663.93 74.9261V76.2045H648.793V73.5966H660.862C660.862 72.4886 660.64 71.5 660.197 70.6307C659.762 69.7614 659.14 69.0753 658.33 68.5724C657.529 68.0696 656.583 67.8182 655.492 67.8182C654.29 67.8182 653.251 68.1165 652.373 68.7131C651.504 69.3011 650.835 70.0682 650.366 71.0142C649.897 71.9602 649.663 72.9744 649.663 74.0568V75.7955C649.663 77.2784 649.918 78.5355 650.43 79.5668C650.95 80.5895 651.67 81.3693 652.59 81.9062C653.511 82.4347 654.58 82.6989 655.799 82.6989C656.592 82.6989 657.308 82.5881 657.947 82.3665C658.594 82.1364 659.153 81.7955 659.621 81.3438C660.09 80.8835 660.452 80.3125 660.708 79.6307L663.623 80.4489C663.316 81.4375 662.8 82.3068 662.076 83.0568C661.352 83.7983 660.457 84.3778 659.391 84.7955C658.326 85.2045 657.129 85.4091 655.799 85.4091Z" fill="black"/>
<mask id="path-4-inside-2_450_62" fill="white">
<path d="M0 0H315C342.614 0 365 22.3858 365 50V140H0V0Z"/>
</mask>
<path d="M0 0H315C342.614 0 365 22.3858 365 50V140H0V0Z" fill="#FFEAEA"/>
<path d="M0 -5H315C345.376 -5 370 19.6243 370 50H360C360 25.1472 339.853 5 315 5H0V-5ZM370 145H0V135H360L370 145ZM360 135M0 140V0V140M315 -5C345.376 -5 370 19.6243 370 50V145L360 135V50C360 25.1472 339.853 5 315 5V-5Z" fill="#671414" mask="url(#path-4-inside-2_450_62)"/>
<path d="M32.4455 84H29.1216L38.7353 57.8182H42.008L51.6216 84H48.2978L40.4739 61.9602H40.2694L32.4455 84ZM33.6728 73.7727H47.0705V76.5852H33.6728V73.7727ZM55.2907 84V64.3636H58.3077V72.9034H60.302L67.3588 64.3636H71.2452L63.3191 73.8239L71.3475 84H67.4611L61.0179 75.7159H58.3077V84H55.2907ZM73.5016 67.1761V64.3636H89.4561V67.1761H83.013V84H79.9959V67.1761H73.5016ZM96.8741 79.5511L106.334 64.3636H109.812V84H106.795V68.8125L97.3855 84H93.8571V64.3636H96.8741V79.5511ZM115.338 84V64.3636H123.366C125.48 64.3636 127.159 64.8409 128.403 65.7955C129.647 66.75 130.269 68.0114 130.269 69.5795C130.269 70.7727 129.916 71.6974 129.208 72.3537C128.501 73.0014 127.593 73.4403 126.485 73.6705C127.21 73.7727 127.913 74.0284 128.595 74.4375C129.285 74.8466 129.856 75.4091 130.308 76.125C130.759 76.8324 130.985 77.7017 130.985 78.733C130.985 79.7386 130.73 80.6378 130.218 81.4304C129.707 82.223 128.974 82.8494 128.019 83.3097C127.065 83.7699 125.923 84 124.593 84H115.338ZM118.201 81.2386H124.593C125.633 81.2386 126.447 80.9915 127.035 80.4972C127.623 80.0028 127.917 79.3295 127.917 78.4773C127.917 77.4631 127.623 76.6662 127.035 76.0866C126.447 75.4986 125.633 75.2045 124.593 75.2045H118.201V81.2386ZM118.201 72.5966H123.366C124.176 72.5966 124.87 72.4858 125.45 72.2642C126.029 72.0341 126.472 71.7102 126.779 71.2926C127.095 70.8665 127.252 70.3636 127.252 69.7841C127.252 68.9574 126.907 68.3097 126.217 67.8409C125.526 67.3636 124.576 67.125 123.366 67.125H118.201V72.5966ZM148.694 72.8011V75.6136H137.854V72.8011H148.694ZM138.569 64.3636V84H135.552V64.3636H138.569ZM150.996 64.3636V84H147.979V64.3636H150.996ZM159.113 71.4716H164.738C167.04 71.4716 168.8 72.0554 170.018 73.223C171.237 74.3906 171.846 75.8693 171.846 77.6591C171.846 78.8352 171.574 79.9048 171.028 80.8679C170.483 81.8224 169.682 82.5852 168.625 83.1562C167.568 83.7188 166.273 84 164.738 84H156.506V64.3636H159.523V81.1875H164.738C165.932 81.1875 166.912 80.8722 167.679 80.2415C168.446 79.6108 168.829 78.8011 168.829 77.8125C168.829 76.7727 168.446 75.9247 167.679 75.2685C166.912 74.6122 165.932 74.2841 164.738 74.2841H159.113V71.4716ZM174.966 84V64.3636H177.983V84H174.966ZM191.738 84.4091C189.846 84.4091 188.214 83.9915 186.842 83.1562C185.479 82.3125 184.426 81.1364 183.684 79.6278C182.952 78.1108 182.585 76.3466 182.585 74.3352C182.585 72.3239 182.952 70.5511 183.684 69.017C184.426 67.4744 185.457 66.2727 186.778 65.4119C188.108 64.5426 189.659 64.108 191.432 64.108C192.454 64.108 193.464 64.2784 194.461 64.6193C195.459 64.9602 196.366 65.5142 197.184 66.2812C198.003 67.0398 198.655 68.0455 199.14 69.2983C199.626 70.5511 199.869 72.0937 199.869 73.9261V75.2045H184.733V72.5966H196.801C196.801 71.4886 196.579 70.5 196.136 69.6307C195.702 68.7614 195.079 68.0753 194.27 67.5724C193.469 67.0696 192.523 66.8182 191.432 66.8182C190.23 66.8182 189.19 67.1165 188.312 67.7131C187.443 68.3011 186.774 69.0682 186.305 70.0142C185.836 70.9602 185.602 71.9744 185.602 73.0568V74.7955C185.602 76.2784 185.858 77.5355 186.369 78.5668C186.889 79.5895 187.609 80.3693 188.53 80.9062C189.45 81.4347 190.52 81.6989 191.738 81.6989C192.531 81.6989 193.247 81.5881 193.886 81.3665C194.534 81.1364 195.092 80.7955 195.561 80.3438C196.03 79.8835 196.392 79.3125 196.648 78.6307L199.562 79.4489C199.256 80.4375 198.74 81.3068 198.015 82.0568C197.291 82.7983 196.396 83.3778 195.331 83.7955C194.265 84.2045 193.068 84.4091 191.738 84.4091ZM213.356 78.9886H216.578C216.646 79.875 217.047 80.5483 217.78 81.0085C218.521 81.4688 219.484 81.6989 220.669 81.6989C221.879 81.6989 222.915 81.4517 223.775 80.9574C224.636 80.4545 225.067 79.6449 225.067 78.5284C225.067 77.8722 224.905 77.3011 224.581 76.8153C224.257 76.321 223.801 75.9375 223.213 75.6648C222.625 75.392 221.93 75.2557 221.129 75.2557H217.754V72.5455H221.129C222.331 72.5455 223.217 72.2727 223.788 71.7273C224.368 71.1818 224.657 70.5 224.657 69.6818C224.657 68.804 224.346 68.1009 223.724 67.5724C223.102 67.0355 222.22 66.767 221.078 66.767C219.927 66.767 218.969 67.027 218.202 67.5469C217.434 68.0582 217.03 68.7187 216.987 69.5284H213.817C213.851 68.4716 214.175 67.5384 214.788 66.7287C215.402 65.9105 216.237 65.2713 217.294 64.8111C218.351 64.3423 219.561 64.108 220.925 64.108C222.305 64.108 223.503 64.3509 224.517 64.8366C225.54 65.3139 226.328 65.9659 226.882 66.7926C227.444 67.6108 227.726 68.5398 227.726 69.5795C227.726 70.6875 227.415 71.5824 226.792 72.2642C226.17 72.946 225.39 73.4318 224.453 73.7216V73.9261C225.194 73.9773 225.838 74.2159 226.383 74.642C226.937 75.0597 227.368 75.6094 227.675 76.2912C227.981 76.9645 228.135 77.7102 228.135 78.5284C228.135 79.7216 227.815 80.7614 227.176 81.6477C226.537 82.5256 225.659 83.2074 224.542 83.6932C223.426 84.1705 222.152 84.4091 220.72 84.4091C219.331 84.4091 218.086 84.1832 216.987 83.7315C215.888 83.2713 215.014 82.6364 214.366 81.8267C213.727 81.0085 213.39 80.0625 213.356 78.9886ZM238.151 84.4602C236.907 84.4602 235.778 84.2259 234.763 83.7571C233.749 83.2798 232.944 82.5938 232.347 81.6989C231.751 80.7955 231.452 79.7045 231.452 78.4261C231.452 77.3011 231.674 76.3892 232.117 75.6903C232.56 74.983 233.153 74.429 233.894 74.0284C234.635 73.6278 235.454 73.3295 236.349 73.1335C237.252 72.929 238.16 72.767 239.072 72.6477C240.265 72.4943 241.232 72.3793 241.974 72.3026C242.724 72.2173 243.269 72.0767 243.61 71.8807C243.959 71.6847 244.134 71.3437 244.134 70.858V70.7557C244.134 69.4943 243.789 68.5142 243.099 67.8153C242.417 67.1165 241.381 66.767 239.992 66.767C238.552 66.767 237.422 67.0824 236.604 67.7131C235.786 68.3437 235.211 69.017 234.878 69.733L232.015 68.7102C232.526 67.517 233.208 66.5881 234.06 65.9233C234.921 65.25 235.858 64.7812 236.873 64.517C237.895 64.2443 238.901 64.108 239.89 64.108C240.52 64.108 241.245 64.1847 242.063 64.3381C242.89 64.483 243.687 64.7855 244.454 65.2457C245.229 65.706 245.873 66.4006 246.384 67.3295C246.895 68.2585 247.151 69.5028 247.151 71.0625V84H244.134V81.3409H243.981C243.776 81.767 243.435 82.223 242.958 82.7088C242.481 83.1946 241.846 83.608 241.053 83.9489C240.26 84.2898 239.293 84.4602 238.151 84.4602ZM238.611 81.75C239.805 81.75 240.81 81.5156 241.628 81.0469C242.455 80.5781 243.077 79.973 243.495 79.2315C243.921 78.4901 244.134 77.7102 244.134 76.892V74.1307C244.006 74.2841 243.725 74.4247 243.29 74.5526C242.864 74.6719 242.37 74.7784 241.807 74.8722C241.253 74.9574 240.712 75.0341 240.184 75.1023C239.664 75.1619 239.242 75.2131 238.918 75.2557C238.134 75.358 237.401 75.5241 236.719 75.7543C236.046 75.9759 235.501 76.3125 235.083 76.7642C234.674 77.2074 234.469 77.8125 234.469 78.5795C234.469 79.6278 234.857 80.4205 235.633 80.9574C236.417 81.4858 237.41 81.75 238.611 81.75ZM250.561 89.625V81.1875H252.198C252.598 80.7699 252.943 80.3182 253.233 79.8324C253.523 79.3466 253.774 78.7713 253.987 78.1065C254.209 77.4332 254.396 76.6151 254.55 75.652C254.703 74.6804 254.84 73.5085 254.959 72.1364L255.624 64.3636H268.101V81.1875H271.118V89.625H268.101V84H253.578V89.625H250.561ZM255.624 81.1875H265.084V67.1761H258.436L257.925 72.1364C257.712 74.1903 257.448 75.9844 257.132 77.5185C256.817 79.0526 256.314 80.2756 255.624 81.1875ZM280.901 84.4602C279.657 84.4602 278.528 84.2259 277.513 83.7571C276.499 83.2798 275.694 82.5938 275.097 81.6989C274.501 80.7955 274.202 79.7045 274.202 78.4261C274.202 77.3011 274.424 76.3892 274.867 75.6903C275.31 74.983 275.903 74.429 276.644 74.0284C277.385 73.6278 278.204 73.3295 279.099 73.1335C280.002 72.929 280.91 72.767 281.822 72.6477C283.015 72.4943 283.982 72.3793 284.724 72.3026C285.474 72.2173 286.019 72.0767 286.36 71.8807C286.709 71.6847 286.884 71.3437 286.884 70.858V70.7557C286.884 69.4943 286.539 68.5142 285.849 67.8153C285.167 67.1165 284.131 66.767 282.742 66.767C281.302 66.767 280.172 67.0824 279.354 67.7131C278.536 68.3437 277.961 69.017 277.628 69.733L274.765 68.7102C275.276 67.517 275.958 66.5881 276.81 65.9233C277.671 65.25 278.608 64.7812 279.623 64.517C280.645 64.2443 281.651 64.108 282.64 64.108C283.27 64.108 283.995 64.1847 284.813 64.3381C285.64 64.483 286.437 64.7855 287.204 65.2457C287.979 65.706 288.623 66.4006 289.134 67.3295C289.645 68.2585 289.901 69.5028 289.901 71.0625V84H286.884V81.3409H286.731C286.526 81.767 286.185 82.223 285.708 82.7088C285.231 83.1946 284.596 83.608 283.803 83.9489C283.01 84.2898 282.043 84.4602 280.901 84.4602ZM281.361 81.75C282.555 81.75 283.56 81.5156 284.378 81.0469C285.205 80.5781 285.827 79.973 286.245 79.2315C286.671 78.4901 286.884 77.7102 286.884 76.892V74.1307C286.756 74.2841 286.475 74.4247 286.04 74.5526C285.614 74.6719 285.12 74.7784 284.557 74.8722C284.003 74.9574 283.462 75.0341 282.934 75.1023C282.414 75.1619 281.992 75.2131 281.668 75.2557C280.884 75.358 280.151 75.5241 279.469 75.7543C278.796 75.9759 278.251 76.3125 277.833 76.7642C277.424 77.2074 277.219 77.8125 277.219 78.5795C277.219 79.6278 277.607 80.4205 278.383 80.9574C279.167 81.4858 280.16 81.75 281.361 81.75ZM310.544 64.3636V84H307.527V64.3636H310.544ZM309.368 73.7216V76.5341C308.686 76.7898 308.009 77.0156 307.335 77.2116C306.662 77.3991 305.955 77.5483 305.213 77.6591C304.472 77.7614 303.658 77.8125 302.771 77.8125C300.547 77.8125 298.762 77.2116 297.415 76.0099C296.077 74.8082 295.408 73.0057 295.408 70.6023V64.3125H298.425V70.6023C298.425 71.608 298.617 72.4347 299 73.0824C299.384 73.7301 299.904 74.2116 300.56 74.527C301.216 74.8423 301.953 75 302.771 75C304.05 75 305.205 74.8849 306.236 74.6548C307.276 74.4162 308.32 74.1051 309.368 73.7216ZM319.097 79.5511L328.557 64.3636H332.034V84H329.017V68.8125L319.608 84H316.08V64.3636H319.097V79.5511Z" fill="black"/>
</svg>
