<svg width="650" height="395" viewBox="0 0 650 395" fill="none" xmlns="http://www.w3.org/2000/svg">
<g filter="url(#filter0_d_99_43)">
<rect x="4" width="642" height="387" rx="10" fill="#FFEAEA"/>
<rect x="217" y="173" width="392" height="83" rx="10" fill="#EFA8A8"/>
<path d="M261.756 201.818V228H258.585V204.631H245.392V228H242.222V201.818H261.756ZM275.975 228.409C274.083 228.409 272.451 227.991 271.078 227.156C269.715 226.312 268.662 225.136 267.921 223.628C267.188 222.111 266.821 220.347 266.821 218.335C266.821 216.324 267.188 214.551 267.921 213.017C268.662 211.474 269.694 210.273 271.015 209.412C272.344 208.543 273.895 208.108 275.668 208.108C276.691 208.108 277.701 208.278 278.698 208.619C279.695 208.96 280.603 209.514 281.421 210.281C282.239 211.04 282.891 212.045 283.377 213.298C283.863 214.551 284.105 216.094 284.105 217.926V219.205H268.969V216.597H281.037C281.037 215.489 280.816 214.5 280.373 213.631C279.938 212.761 279.316 212.075 278.506 211.572C277.705 211.07 276.759 210.818 275.668 210.818C274.466 210.818 273.426 211.116 272.549 211.713C271.679 212.301 271.01 213.068 270.542 214.014C270.073 214.96 269.838 215.974 269.838 217.057V218.795C269.838 220.278 270.094 221.536 270.605 222.567C271.125 223.589 271.846 224.369 272.766 224.906C273.686 225.435 274.756 225.699 275.975 225.699C276.767 225.699 277.483 225.588 278.123 225.366C278.77 225.136 279.328 224.795 279.797 224.344C280.266 223.884 280.628 223.312 280.884 222.631L283.799 223.449C283.492 224.438 282.976 225.307 282.252 226.057C281.527 226.798 280.632 227.378 279.567 227.795C278.502 228.205 277.304 228.409 275.975 228.409ZM288.695 235.364V208.364H291.61V211.483H291.968C292.189 211.142 292.496 210.707 292.888 210.179C293.289 209.642 293.86 209.165 294.601 208.747C295.351 208.321 296.365 208.108 297.644 208.108C299.297 208.108 300.755 208.521 302.016 209.348C303.277 210.175 304.262 211.347 304.969 212.864C305.676 214.381 306.03 216.17 306.03 218.233C306.03 220.312 305.676 222.115 304.969 223.641C304.262 225.158 303.282 226.334 302.029 227.169C300.776 227.996 299.331 228.409 297.695 228.409C296.434 228.409 295.424 228.2 294.665 227.783C293.907 227.357 293.323 226.875 292.914 226.338C292.505 225.793 292.189 225.341 291.968 224.983H291.712V235.364H288.695ZM291.661 218.182C291.661 219.665 291.878 220.973 292.313 222.107C292.748 223.232 293.382 224.114 294.218 224.753C295.053 225.384 296.076 225.699 297.286 225.699C298.547 225.699 299.6 225.366 300.444 224.702C301.296 224.028 301.935 223.125 302.361 221.991C302.796 220.849 303.013 219.58 303.013 218.182C303.013 216.801 302.8 215.557 302.374 214.449C301.956 213.332 301.321 212.45 300.469 211.803C299.625 211.146 298.564 210.818 297.286 210.818C296.059 210.818 295.027 211.129 294.192 211.751C293.357 212.365 292.726 213.226 292.3 214.334C291.874 215.433 291.661 216.716 291.661 218.182ZM318.865 228.409C316.973 228.409 315.341 227.991 313.969 227.156C312.605 226.312 311.553 225.136 310.811 223.628C310.078 222.111 309.712 220.347 309.712 218.335C309.712 216.324 310.078 214.551 310.811 213.017C311.553 211.474 312.584 210.273 313.905 209.412C315.235 208.543 316.786 208.108 318.559 208.108C319.581 208.108 320.591 208.278 321.588 208.619C322.586 208.96 323.493 209.514 324.311 210.281C325.13 211.04 325.782 212.045 326.267 213.298C326.753 214.551 326.996 216.094 326.996 217.926V219.205H311.86V216.597H323.928C323.928 215.489 323.706 214.5 323.263 213.631C322.828 212.761 322.206 212.075 321.397 211.572C320.596 211.07 319.65 210.818 318.559 210.818C317.357 210.818 316.317 211.116 315.439 211.713C314.57 212.301 313.901 213.068 313.432 214.014C312.963 214.96 312.729 215.974 312.729 217.057V218.795C312.729 220.278 312.985 221.536 313.496 222.567C314.016 223.589 314.736 224.369 315.657 224.906C316.577 225.435 317.647 225.699 318.865 225.699C319.658 225.699 320.374 225.588 321.013 225.366C321.661 225.136 322.219 224.795 322.688 224.344C323.157 223.884 323.519 223.312 323.775 222.631L326.689 223.449C326.382 224.438 325.867 225.307 325.142 226.057C324.418 226.798 323.523 227.378 322.458 227.795C321.392 228.205 320.195 228.409 318.865 228.409ZM331.586 228V208.364H339.614C341.728 208.364 343.407 208.841 344.651 209.795C345.895 210.75 346.517 212.011 346.517 213.58C346.517 214.773 346.164 215.697 345.456 216.354C344.749 217.001 343.841 217.44 342.733 217.67C343.458 217.773 344.161 218.028 344.843 218.438C345.533 218.847 346.104 219.409 346.556 220.125C347.007 220.832 347.233 221.702 347.233 222.733C347.233 223.739 346.978 224.638 346.466 225.43C345.955 226.223 345.222 226.849 344.267 227.31C343.313 227.77 342.171 228 340.841 228H331.586ZM334.449 225.239H340.841C341.881 225.239 342.695 224.991 343.283 224.497C343.871 224.003 344.165 223.33 344.165 222.477C344.165 221.463 343.871 220.666 343.283 220.087C342.695 219.499 341.881 219.205 340.841 219.205H334.449V225.239ZM334.449 216.597H339.614C340.424 216.597 341.118 216.486 341.698 216.264C342.277 216.034 342.721 215.71 343.027 215.293C343.343 214.866 343.5 214.364 343.5 213.784C343.5 212.957 343.155 212.31 342.465 211.841C341.775 211.364 340.824 211.125 339.614 211.125H334.449V216.597ZM359.778 228.409C358.005 228.409 356.45 227.987 355.112 227.143C353.782 226.3 352.742 225.119 351.992 223.602C351.251 222.085 350.88 220.312 350.88 218.284C350.88 216.239 351.251 214.453 351.992 212.928C352.742 211.402 353.782 210.217 355.112 209.374C356.45 208.53 358.005 208.108 359.778 208.108C361.55 208.108 363.102 208.53 364.431 209.374C365.769 210.217 366.809 211.402 367.55 212.928C368.3 214.453 368.675 216.239 368.675 218.284C368.675 220.312 368.3 222.085 367.55 223.602C366.809 225.119 365.769 226.3 364.431 227.143C363.102 227.987 361.55 228.409 359.778 228.409ZM359.778 225.699C361.124 225.699 362.232 225.354 363.102 224.663C363.971 223.973 364.614 223.065 365.032 221.94C365.45 220.815 365.658 219.597 365.658 218.284C365.658 216.972 365.45 215.749 365.032 214.615C364.614 213.482 363.971 212.565 363.102 211.866C362.232 211.168 361.124 210.818 359.778 210.818C358.431 210.818 357.323 211.168 356.454 211.866C355.585 212.565 354.941 213.482 354.523 214.615C354.106 215.749 353.897 216.972 353.897 218.284C353.897 219.597 354.106 220.815 354.523 221.94C354.941 223.065 355.585 223.973 356.454 224.663C357.323 225.354 358.431 225.699 359.778 225.699ZM372.054 222.989H375.275C375.343 223.875 375.744 224.548 376.477 225.009C377.218 225.469 378.181 225.699 379.366 225.699C380.576 225.699 381.612 225.452 382.473 224.957C383.333 224.455 383.764 223.645 383.764 222.528C383.764 221.872 383.602 221.301 383.278 220.815C382.954 220.321 382.498 219.937 381.91 219.665C381.322 219.392 380.627 219.256 379.826 219.256H376.451V216.545H379.826C381.028 216.545 381.914 216.273 382.485 215.727C383.065 215.182 383.355 214.5 383.355 213.682C383.355 212.804 383.044 212.101 382.422 211.572C381.799 211.036 380.917 210.767 379.775 210.767C378.625 210.767 377.666 211.027 376.899 211.547C376.132 212.058 375.727 212.719 375.684 213.528H372.514C372.548 212.472 372.872 211.538 373.485 210.729C374.099 209.911 374.934 209.271 375.991 208.811C377.048 208.342 378.258 208.108 379.622 208.108C381.002 208.108 382.2 208.351 383.214 208.837C384.237 209.314 385.025 209.966 385.579 210.793C386.142 211.611 386.423 212.54 386.423 213.58C386.423 214.688 386.112 215.582 385.49 216.264C384.868 216.946 384.088 217.432 383.15 217.722V217.926C383.892 217.977 384.535 218.216 385.081 218.642C385.635 219.06 386.065 219.609 386.372 220.291C386.679 220.964 386.832 221.71 386.832 222.528C386.832 223.722 386.512 224.761 385.873 225.648C385.234 226.526 384.356 227.207 383.24 227.693C382.123 228.17 380.849 228.409 379.417 228.409C378.028 228.409 376.784 228.183 375.684 227.732C374.585 227.271 373.711 226.636 373.064 225.827C372.424 225.009 372.088 224.062 372.054 222.989ZM391.07 228V208.364H394.087V216.903H396.081L403.138 208.364H407.025L399.098 217.824L407.127 228H403.24L396.797 219.716H394.087V228H391.07ZM416.184 228.46C414.94 228.46 413.811 228.226 412.797 227.757C411.782 227.28 410.977 226.594 410.38 225.699C409.784 224.795 409.485 223.705 409.485 222.426C409.485 221.301 409.707 220.389 410.15 219.69C410.593 218.983 411.186 218.429 411.927 218.028C412.669 217.628 413.487 217.33 414.382 217.134C415.285 216.929 416.193 216.767 417.105 216.648C418.298 216.494 419.265 216.379 420.007 216.303C420.757 216.217 421.302 216.077 421.643 215.881C421.993 215.685 422.167 215.344 422.167 214.858V214.756C422.167 213.494 421.822 212.514 421.132 211.815C420.45 211.116 419.414 210.767 418.025 210.767C416.585 210.767 415.456 211.082 414.637 211.713C413.819 212.344 413.244 213.017 412.912 213.733L410.048 212.71C410.559 211.517 411.241 210.588 412.093 209.923C412.954 209.25 413.892 208.781 414.906 208.517C415.929 208.244 416.934 208.108 417.923 208.108C418.554 208.108 419.278 208.185 420.096 208.338C420.923 208.483 421.72 208.786 422.487 209.246C423.262 209.706 423.906 210.401 424.417 211.33C424.929 212.259 425.184 213.503 425.184 215.062V228H422.167V225.341H422.014C421.809 225.767 421.468 226.223 420.991 226.709C420.514 227.195 419.879 227.608 419.086 227.949C418.294 228.29 417.326 228.46 416.184 228.46ZM416.645 225.75C417.838 225.75 418.843 225.516 419.662 225.047C420.488 224.578 421.11 223.973 421.528 223.232C421.954 222.49 422.167 221.71 422.167 220.892V218.131C422.039 218.284 421.758 218.425 421.324 218.553C420.897 218.672 420.403 218.778 419.841 218.872C419.287 218.957 418.745 219.034 418.217 219.102C417.697 219.162 417.275 219.213 416.951 219.256C416.167 219.358 415.434 219.524 414.752 219.754C414.079 219.976 413.534 220.312 413.116 220.764C412.707 221.207 412.502 221.812 412.502 222.58C412.502 223.628 412.89 224.42 413.666 224.957C414.45 225.486 415.443 225.75 416.645 225.75Z" fill="black"/>
<path d="M239.756 74.8182V101H236.585V77.6307H223.392V101H220.222V74.8182H239.756ZM253.719 101.409C251.946 101.409 250.391 100.987 249.053 100.143C247.723 99.2997 246.684 98.1193 245.934 96.6023C245.192 95.0852 244.821 93.3125 244.821 91.2841C244.821 89.2386 245.192 87.4531 245.934 85.9276C246.684 84.402 247.723 83.2173 249.053 82.3736C250.391 81.5298 251.946 81.108 253.719 81.108C255.492 81.108 257.043 81.5298 258.373 82.3736C259.711 83.2173 260.75 84.402 261.492 85.9276C262.242 87.4531 262.617 89.2386 262.617 91.2841C262.617 93.3125 262.242 95.0852 261.492 96.6023C260.75 98.1193 259.711 99.2997 258.373 100.143C257.043 100.987 255.492 101.409 253.719 101.409ZM253.719 98.6989C255.066 98.6989 256.174 98.3537 257.043 97.6634C257.912 96.973 258.556 96.0653 258.973 94.9403C259.391 93.8153 259.6 92.5966 259.6 91.2841C259.6 89.9716 259.391 88.7486 258.973 87.6151C258.556 86.4815 257.912 85.5653 257.043 84.8665C256.174 84.1676 255.066 83.8182 253.719 83.8182C252.373 83.8182 251.265 84.1676 250.395 84.8665C249.526 85.5653 248.882 86.4815 248.465 87.6151C248.047 88.7486 247.838 89.9716 247.838 91.2841C247.838 92.5966 248.047 93.8153 248.465 94.9403C248.882 96.0653 249.526 96.973 250.395 97.6634C251.265 98.3537 252.373 98.6989 253.719 98.6989ZM277.961 96.9091L284.813 81.3636H287.677L279.188 101H276.734L268.398 81.3636H271.211L277.961 96.9091ZM270.239 81.3636V101H267.222V81.3636H270.239ZM285.683 101V81.3636H288.7V101H285.683ZM302.2 101.409C300.427 101.409 298.871 100.987 297.533 100.143C296.204 99.2997 295.164 98.1193 294.414 96.6023C293.673 95.0852 293.302 93.3125 293.302 91.2841C293.302 89.2386 293.673 87.4531 294.414 85.9276C295.164 84.402 296.204 83.2173 297.533 82.3736C298.871 81.5298 300.427 81.108 302.2 81.108C303.972 81.108 305.523 81.5298 306.853 82.3736C308.191 83.2173 309.231 84.402 309.972 85.9276C310.722 87.4531 311.097 89.2386 311.097 91.2841C311.097 93.3125 310.722 95.0852 309.972 96.6023C309.231 98.1193 308.191 99.2997 306.853 100.143C305.523 100.987 303.972 101.409 302.2 101.409ZM302.2 98.6989C303.546 98.6989 304.654 98.3537 305.523 97.6634C306.393 96.973 307.036 96.0653 307.454 94.9403C307.871 93.8153 308.08 92.5966 308.08 91.2841C308.08 89.9716 307.871 88.7486 307.454 87.6151C307.036 86.4815 306.393 85.5653 305.523 84.8665C304.654 84.1676 303.546 83.8182 302.2 83.8182C300.853 83.8182 299.745 84.1676 298.876 84.8665C298.006 85.5653 297.363 86.4815 296.945 87.6151C296.528 88.7486 296.319 89.9716 296.319 91.2841C296.319 92.5966 296.528 93.8153 296.945 94.9403C297.363 96.0653 298.006 96.973 298.876 97.6634C299.745 98.3537 300.853 98.6989 302.2 98.6989ZM327.822 81.3636V84.1761H318.72V101H315.703V81.3636H327.822ZM335.243 96.5511L344.703 81.3636H348.181V101H345.164V85.8125L335.755 101H332.226V81.3636H335.243V96.5511ZM351.035 84.1761V81.3636H366.989V84.1761H360.546V101H357.529V84.1761H351.035ZM378.604 101.409C376.712 101.409 375.08 100.991 373.707 100.156C372.344 99.3125 371.291 98.1364 370.55 96.6278C369.817 95.1108 369.45 93.3466 369.45 91.3352C369.45 89.3239 369.817 87.5511 370.55 86.017C371.291 84.4744 372.322 83.2727 373.643 82.4119C374.973 81.5426 376.524 81.108 378.297 81.108C379.32 81.108 380.33 81.2784 381.327 81.6193C382.324 81.9602 383.232 82.5142 384.05 83.2812C384.868 84.0398 385.52 85.0455 386.006 86.2983C386.491 87.5511 386.734 89.0937 386.734 90.9261V92.2045H371.598V89.5966H383.666C383.666 88.4886 383.445 87.5 383.001 86.6307C382.567 85.7614 381.945 85.0753 381.135 84.5724C380.334 84.0696 379.388 83.8182 378.297 83.8182C377.095 83.8182 376.055 84.1165 375.178 84.7131C374.308 85.3011 373.639 86.0682 373.17 87.0142C372.702 87.9602 372.467 88.9744 372.467 90.0568V91.7955C372.467 93.2784 372.723 94.5355 373.234 95.5668C373.754 96.5895 374.474 97.3693 375.395 97.9062C376.315 98.4347 377.385 98.6989 378.604 98.6989C379.396 98.6989 380.112 98.5881 380.751 98.3665C381.399 98.1364 381.957 97.7955 382.426 97.3438C382.895 96.8835 383.257 96.3125 383.513 95.6307L386.428 96.4489C386.121 97.4375 385.605 98.3068 384.881 99.0568C384.156 99.7983 383.261 100.378 382.196 100.795C381.131 101.205 379.933 101.409 378.604 101.409ZM416.023 74L417.557 75.8409C416.96 76.4205 416.27 76.8253 415.486 77.0554C414.702 77.2855 413.815 77.4261 412.827 77.4773C411.838 77.5284 410.739 77.5795 409.528 77.6307C408.165 77.6818 407.036 78.0142 406.141 78.6278C405.246 79.2415 404.555 80.1278 404.07 81.2869C403.584 82.446 403.273 83.8693 403.136 85.5568H403.392C404.057 84.3295 404.977 83.4261 406.153 82.8466C407.33 82.267 408.591 81.9773 409.938 81.9773C411.472 81.9773 412.852 82.3352 414.08 83.0511C415.307 83.767 416.278 84.8281 416.994 86.2344C417.71 87.6406 418.068 89.375 418.068 91.4375C418.068 93.4915 417.702 95.2642 416.969 96.7557C416.244 98.2472 415.226 99.3977 413.913 100.207C412.609 101.009 411.08 101.409 409.324 101.409C407.568 101.409 406.03 100.996 404.709 100.169C403.388 99.3338 402.361 98.098 401.628 96.4616C400.895 94.8168 400.528 92.7841 400.528 90.3636V88.267C400.528 83.8949 401.27 80.5795 402.753 78.321C404.244 76.0625 406.486 74.8949 409.477 74.8182C410.534 74.7841 411.476 74.7756 412.303 74.7926C413.129 74.8097 413.849 74.7713 414.463 74.6776C415.077 74.5838 415.597 74.358 416.023 74ZM409.324 98.6989C410.509 98.6989 411.527 98.4006 412.379 97.804C413.24 97.2074 413.901 96.3679 414.361 95.2855C414.821 94.1946 415.051 92.9119 415.051 91.4375C415.051 90.0057 414.817 88.7869 414.348 87.7812C413.888 86.7756 413.227 86.0085 412.366 85.4801C411.506 84.9517 410.474 84.6875 409.273 84.6875C408.395 84.6875 407.607 84.8366 406.908 85.1349C406.209 85.4332 405.612 85.8722 405.118 86.4517C404.624 87.0312 404.24 87.7386 403.967 88.5739C403.703 89.4091 403.562 90.3636 403.545 91.4375C403.545 93.6364 404.061 95.3963 405.092 96.7173C406.124 98.0384 407.534 98.6989 409.324 98.6989ZM430.916 101.409C429.024 101.409 427.392 100.991 426.02 100.156C424.656 99.3125 423.604 98.1364 422.862 96.6278C422.129 95.1108 421.763 93.3466 421.763 91.3352C421.763 89.3239 422.129 87.5511 422.862 86.017C423.604 84.4744 424.635 83.2727 425.956 82.4119C427.286 81.5426 428.837 81.108 430.609 81.108C431.632 81.108 432.642 81.2784 433.639 81.6193C434.636 81.9602 435.544 82.5142 436.362 83.2812C437.18 84.0398 437.832 85.0455 438.318 86.2983C438.804 87.5511 439.047 89.0937 439.047 90.9261V92.2045H423.911V89.5966H435.979C435.979 88.4886 435.757 87.5 435.314 86.6307C434.879 85.7614 434.257 85.0753 433.447 84.5724C432.646 84.0696 431.7 83.8182 430.609 83.8182C429.408 83.8182 428.368 84.1165 427.49 84.7131C426.621 85.3011 425.952 86.0682 425.483 87.0142C425.014 87.9602 424.78 88.9744 424.78 90.0568V91.7955C424.78 93.2784 425.036 94.5355 425.547 95.5668C426.067 96.5895 426.787 97.3693 427.707 97.9062C428.628 98.4347 429.697 98.6989 430.916 98.6989C431.709 98.6989 432.425 98.5881 433.064 98.3665C433.712 98.1364 434.27 97.7955 434.739 97.3438C435.207 96.8835 435.57 96.3125 435.825 95.6307L438.74 96.4489C438.433 97.4375 437.918 98.3068 437.193 99.0568C436.469 99.7983 435.574 100.378 434.509 100.795C433.443 101.205 432.246 101.409 430.916 101.409ZM441.54 106.625V98.1875H443.176C443.577 97.7699 443.922 97.3182 444.212 96.8324C444.501 96.3466 444.753 95.7713 444.966 95.1065C445.188 94.4332 445.375 93.6151 445.528 92.652C445.682 91.6804 445.818 90.5085 445.938 89.1364L446.602 81.3636H459.08V98.1875H462.097V106.625H459.08V101H444.557V106.625H441.54ZM446.602 98.1875H456.062V84.1761H449.415L448.903 89.1364C448.69 91.1903 448.426 92.9844 448.111 94.5185C447.795 96.0526 447.293 97.2756 446.602 98.1875ZM479.243 89.8011V92.6136H468.402V89.8011H479.243ZM469.118 81.3636V101H466.101V81.3636H469.118ZM481.544 81.3636V101H478.527V81.3636H481.544ZM495.032 101.409C493.259 101.409 491.703 100.987 490.365 100.143C489.036 99.2997 487.996 98.1193 487.246 96.6023C486.505 95.0852 486.134 93.3125 486.134 91.2841C486.134 89.2386 486.505 87.4531 487.246 85.9276C487.996 84.402 489.036 83.2173 490.365 82.3736C491.703 81.5298 493.259 81.108 495.032 81.108C496.804 81.108 498.355 81.5298 499.685 82.3736C501.023 83.2173 502.063 84.402 502.804 85.9276C503.554 87.4531 503.929 89.2386 503.929 91.2841C503.929 93.3125 503.554 95.0852 502.804 96.6023C502.063 98.1193 501.023 99.2997 499.685 100.143C498.355 100.987 496.804 101.409 495.032 101.409ZM495.032 98.6989C496.378 98.6989 497.486 98.3537 498.355 97.6634C499.225 96.973 499.868 96.0653 500.286 94.9403C500.703 93.8153 500.912 92.5966 500.912 91.2841C500.912 89.9716 500.703 88.7486 500.286 87.6151C499.868 86.4815 499.225 85.5653 498.355 84.8665C497.486 84.1676 496.378 83.8182 495.032 83.8182C493.685 83.8182 492.577 84.1676 491.708 84.8665C490.838 85.5653 490.195 86.4815 489.777 87.6151C489.36 88.7486 489.151 89.9716 489.151 91.2841C489.151 92.5966 489.36 93.8153 489.777 94.9403C490.195 96.0653 490.838 96.973 491.708 97.6634C492.577 98.3537 493.685 98.6989 495.032 98.6989ZM511.552 96.5511L521.012 81.3636H524.489V101H521.472V85.8125L512.063 101H508.535V81.3636H511.552V96.5511ZM519.018 74.8182H521.83C521.83 76.1989 521.353 77.3281 520.398 78.206C519.444 79.0838 518.148 79.5227 516.512 79.5227C514.901 79.5227 513.619 79.0838 512.664 78.206C511.718 77.3281 511.245 76.1989 511.245 74.8182H514.058C514.058 75.483 514.241 76.0668 514.607 76.5696C514.982 77.0724 515.617 77.3239 516.512 77.3239C517.407 77.3239 518.046 77.0724 518.43 76.5696C518.822 76.0668 519.018 75.483 519.018 74.8182ZM220.17 118.818H223.955L232.852 140.551H233.159L242.057 118.818H245.841V145H242.875V125.108H242.619L234.438 145H231.574L223.392 125.108H223.136V145H220.17V118.818ZM253.732 152.364C253.221 152.364 252.765 152.321 252.364 152.236C251.963 152.159 251.686 152.082 251.533 152.006L252.3 149.347C253.033 149.534 253.681 149.602 254.243 149.551C254.806 149.5 255.304 149.249 255.739 148.797C256.182 148.354 256.587 147.634 256.953 146.636L257.516 145.102L250.255 125.364H253.527L258.948 141.011H259.152L264.573 125.364H267.846L259.51 147.864C259.135 148.878 258.671 149.717 258.117 150.382C257.563 151.055 256.919 151.554 256.186 151.878C255.462 152.202 254.644 152.364 253.732 152.364ZM279.102 145.409C277.261 145.409 275.676 144.974 274.346 144.105C273.017 143.236 271.994 142.038 271.278 140.513C270.562 138.987 270.204 137.244 270.204 135.284C270.204 133.29 270.571 131.53 271.304 130.004C272.045 128.47 273.076 127.273 274.397 126.412C275.727 125.543 277.278 125.108 279.051 125.108C280.431 125.108 281.676 125.364 282.784 125.875C283.892 126.386 284.799 127.102 285.507 128.023C286.214 128.943 286.653 130.017 286.824 131.244H283.806C283.576 130.349 283.065 129.557 282.272 128.866C281.488 128.168 280.431 127.818 279.102 127.818C277.926 127.818 276.895 128.125 276.008 128.739C275.13 129.344 274.444 130.2 273.95 131.308C273.464 132.408 273.221 133.699 273.221 135.182C273.221 136.699 273.46 138.02 273.937 139.145C274.423 140.27 275.105 141.143 275.983 141.766C276.869 142.388 277.909 142.699 279.102 142.699C279.886 142.699 280.598 142.562 281.237 142.29C281.876 142.017 282.417 141.625 282.86 141.114C283.304 140.602 283.619 139.989 283.806 139.273H286.824C286.653 140.432 286.231 141.476 285.558 142.405C284.893 143.325 284.011 144.058 282.912 144.604C281.821 145.141 280.551 145.409 279.102 145.409ZM299.467 145.409C297.575 145.409 295.943 144.991 294.571 144.156C293.207 143.312 292.154 142.136 291.413 140.628C290.68 139.111 290.314 137.347 290.314 135.335C290.314 133.324 290.68 131.551 291.413 130.017C292.154 128.474 293.186 127.273 294.507 126.412C295.836 125.543 297.387 125.108 299.16 125.108C300.183 125.108 301.193 125.278 302.19 125.619C303.187 125.96 304.095 126.514 304.913 127.281C305.731 128.04 306.383 129.045 306.869 130.298C307.355 131.551 307.598 133.094 307.598 134.926V136.205H292.461V133.597H304.529C304.529 132.489 304.308 131.5 303.865 130.631C303.43 129.761 302.808 129.075 301.998 128.572C301.197 128.07 300.251 127.818 299.16 127.818C297.958 127.818 296.919 128.116 296.041 128.713C295.172 129.301 294.502 130.068 294.034 131.014C293.565 131.96 293.331 132.974 293.331 134.057V135.795C293.331 137.278 293.586 138.536 294.098 139.567C294.618 140.589 295.338 141.369 296.258 141.906C297.179 142.435 298.248 142.699 299.467 142.699C300.26 142.699 300.975 142.588 301.615 142.366C302.262 142.136 302.821 141.795 303.289 141.344C303.758 140.884 304.12 140.312 304.376 139.631L307.291 140.449C306.984 141.438 306.468 142.307 305.744 143.057C305.02 143.798 304.125 144.378 303.059 144.795C301.994 145.205 300.797 145.409 299.467 145.409Z" fill="black"/>
<rect x="65" y="271" width="542" height="80" rx="10" fill="#FFD0D0" stroke="#B37777" stroke-width="4"/>
<path d="M115.239 306H112.068C111.881 305.088 111.553 304.287 111.084 303.597C110.624 302.906 110.061 302.327 109.396 301.858C108.74 301.381 108.011 301.023 107.21 300.784C106.409 300.545 105.574 300.426 104.705 300.426C103.119 300.426 101.683 300.827 100.396 301.628C99.1179 302.429 98.0994 303.609 97.3409 305.169C96.5909 306.729 96.2159 308.642 96.2159 310.909C96.2159 313.176 96.5909 315.089 97.3409 316.649C98.0994 318.209 99.1179 319.389 100.396 320.19C101.683 320.991 103.119 321.392 104.705 321.392C105.574 321.392 106.409 321.273 107.21 321.034C108.011 320.795 108.74 320.442 109.396 319.973C110.061 319.496 110.624 318.912 111.084 318.222C111.553 317.523 111.881 316.722 112.068 315.818H115.239C115 317.156 114.565 318.354 113.935 319.411C113.304 320.467 112.52 321.366 111.582 322.108C110.645 322.841 109.592 323.399 108.425 323.783C107.266 324.166 106.026 324.358 104.705 324.358C102.472 324.358 100.486 323.812 98.7472 322.722C97.0085 321.631 95.6406 320.08 94.6435 318.068C93.6463 316.057 93.1477 313.67 93.1477 310.909C93.1477 308.148 93.6463 305.761 94.6435 303.75C95.6406 301.739 97.0085 300.188 98.7472 299.097C100.486 298.006 102.472 297.46 104.705 297.46C106.026 297.46 107.266 297.652 108.425 298.036C109.592 298.419 110.645 298.982 111.582 299.723C112.52 300.456 113.304 301.351 113.935 302.408C114.565 303.456 115 304.653 115.239 306ZM119.953 324V304.364H127.981C130.095 304.364 131.774 304.841 133.018 305.795C134.262 306.75 134.885 308.011 134.885 309.58C134.885 310.773 134.531 311.697 133.824 312.354C133.116 313.001 132.208 313.44 131.1 313.67C131.825 313.773 132.528 314.028 133.21 314.438C133.9 314.847 134.471 315.409 134.923 316.125C135.375 316.832 135.6 317.702 135.6 318.733C135.6 319.739 135.345 320.638 134.833 321.43C134.322 322.223 133.589 322.849 132.635 323.31C131.68 323.77 130.538 324 129.208 324H119.953ZM122.816 321.239H129.208C130.248 321.239 131.062 320.991 131.65 320.497C132.238 320.003 132.532 319.33 132.532 318.477C132.532 317.463 132.238 316.666 131.65 316.087C131.062 315.499 130.248 315.205 129.208 315.205H122.816V321.239ZM122.816 312.597H127.981C128.791 312.597 129.485 312.486 130.065 312.264C130.645 312.034 131.088 311.71 131.395 311.293C131.71 310.866 131.868 310.364 131.868 309.784C131.868 308.957 131.522 308.31 130.832 307.841C130.142 307.364 129.191 307.125 127.981 307.125H122.816V312.597ZM151.98 324V307.125H146.764C145.588 307.125 144.663 307.398 143.99 307.943C143.317 308.489 142.98 309.239 142.98 310.193C142.98 311.131 143.283 311.868 143.888 312.405C144.501 312.942 145.341 313.21 146.406 313.21H152.747V316.023H146.406C145.077 316.023 143.93 315.788 142.967 315.32C142.004 314.851 141.263 314.182 140.743 313.312C140.223 312.435 139.963 311.395 139.963 310.193C139.963 308.983 140.236 307.943 140.781 307.074C141.327 306.205 142.107 305.536 143.121 305.067C144.143 304.598 145.358 304.364 146.764 304.364H154.844V324H151.98ZM138.889 324L144.463 314.233H147.736L142.162 324H138.889ZM159.155 318.989H162.377C162.445 319.875 162.846 320.548 163.578 321.009C164.32 321.469 165.283 321.699 166.468 321.699C167.678 321.699 168.713 321.452 169.574 320.957C170.435 320.455 170.865 319.645 170.865 318.528C170.865 317.872 170.703 317.301 170.38 316.815C170.056 316.321 169.6 315.937 169.012 315.665C168.424 315.392 167.729 315.256 166.928 315.256H163.553V312.545H166.928C168.13 312.545 169.016 312.273 169.587 311.727C170.167 311.182 170.456 310.5 170.456 309.682C170.456 308.804 170.145 308.101 169.523 307.572C168.901 307.036 168.019 306.767 166.877 306.767C165.726 306.767 164.767 307.027 164 307.547C163.233 308.058 162.828 308.719 162.786 309.528H159.615C159.65 308.472 159.973 307.538 160.587 306.729C161.201 305.911 162.036 305.271 163.093 304.811C164.15 304.342 165.36 304.108 166.723 304.108C168.104 304.108 169.301 304.351 170.316 304.837C171.338 305.314 172.127 305.966 172.681 306.793C173.243 307.611 173.525 308.54 173.525 309.58C173.525 310.688 173.213 311.582 172.591 312.264C171.969 312.946 171.189 313.432 170.252 313.722V313.926C170.993 313.977 171.637 314.216 172.182 314.642C172.736 315.06 173.167 315.609 173.473 316.291C173.78 316.964 173.934 317.71 173.934 318.528C173.934 319.722 173.614 320.761 172.975 321.648C172.336 322.526 171.458 323.207 170.341 323.693C169.225 324.17 167.951 324.409 166.519 324.409C165.13 324.409 163.885 324.183 162.786 323.732C161.686 323.271 160.813 322.636 160.165 321.827C159.526 321.009 159.189 320.062 159.155 318.989ZM183.95 324.46C182.706 324.46 181.576 324.226 180.562 323.757C179.548 323.28 178.743 322.594 178.146 321.699C177.549 320.795 177.251 319.705 177.251 318.426C177.251 317.301 177.473 316.389 177.916 315.69C178.359 314.983 178.951 314.429 179.693 314.028C180.434 313.628 181.252 313.33 182.147 313.134C183.051 312.929 183.958 312.767 184.87 312.648C186.064 312.494 187.031 312.379 187.772 312.303C188.522 312.217 189.068 312.077 189.409 311.881C189.758 311.685 189.933 311.344 189.933 310.858V310.756C189.933 309.494 189.588 308.514 188.897 307.815C188.216 307.116 187.18 306.767 185.791 306.767C184.35 306.767 183.221 307.082 182.403 307.713C181.585 308.344 181.01 309.017 180.677 309.733L177.814 308.71C178.325 307.517 179.007 306.588 179.859 305.923C180.72 305.25 181.657 304.781 182.672 304.517C183.694 304.244 184.7 304.108 185.689 304.108C186.319 304.108 187.044 304.185 187.862 304.338C188.689 304.483 189.485 304.786 190.252 305.246C191.028 305.706 191.672 306.401 192.183 307.33C192.694 308.259 192.95 309.503 192.95 311.062V324H189.933V321.341H189.779C189.575 321.767 189.234 322.223 188.757 322.709C188.279 323.195 187.645 323.608 186.852 323.949C186.059 324.29 185.092 324.46 183.95 324.46ZM184.41 321.75C185.603 321.75 186.609 321.516 187.427 321.047C188.254 320.578 188.876 319.973 189.294 319.232C189.72 318.49 189.933 317.71 189.933 316.892V314.131C189.805 314.284 189.524 314.425 189.089 314.553C188.663 314.672 188.169 314.778 187.606 314.872C187.052 314.957 186.511 315.034 185.983 315.102C185.463 315.162 185.041 315.213 184.717 315.256C183.933 315.358 183.2 315.524 182.518 315.754C181.845 315.976 181.299 316.312 180.882 316.764C180.473 317.207 180.268 317.812 180.268 318.58C180.268 319.628 180.656 320.42 181.431 320.957C182.216 321.486 183.208 321.75 184.41 321.75ZM195.785 307.176V304.364H211.739V307.176H205.296V324H202.279V307.176H195.785ZM218.748 311.472H224.373C226.674 311.472 228.434 312.055 229.653 313.223C230.872 314.391 231.481 315.869 231.481 317.659C231.481 318.835 231.208 319.905 230.663 320.868C230.118 321.822 229.316 322.585 228.26 323.156C227.203 323.719 225.907 324 224.373 324H216.14V304.364H219.157V321.188H224.373C225.566 321.188 226.547 320.872 227.314 320.241C228.081 319.611 228.464 318.801 228.464 317.812C228.464 316.773 228.081 315.925 227.314 315.268C226.547 314.612 225.566 314.284 224.373 314.284H218.748V311.472ZM244.051 324.409C242.21 324.409 240.625 323.974 239.295 323.105C237.966 322.236 236.943 321.038 236.227 319.513C235.511 317.987 235.153 316.244 235.153 314.284C235.153 312.29 235.52 310.53 236.253 309.004C236.994 307.47 238.026 306.273 239.347 305.412C240.676 304.543 242.227 304.108 244 304.108C245.381 304.108 246.625 304.364 247.733 304.875C248.841 305.386 249.749 306.102 250.456 307.023C251.163 307.943 251.602 309.017 251.773 310.244H248.756C248.526 309.349 248.014 308.557 247.222 307.866C246.438 307.168 245.381 306.818 244.051 306.818C242.875 306.818 241.844 307.125 240.957 307.739C240.08 308.344 239.393 309.2 238.899 310.308C238.413 311.408 238.17 312.699 238.17 314.182C238.17 315.699 238.409 317.02 238.886 318.145C239.372 319.27 240.054 320.143 240.932 320.766C241.818 321.388 242.858 321.699 244.051 321.699C244.835 321.699 245.547 321.562 246.186 321.29C246.825 321.017 247.366 320.625 247.81 320.114C248.253 319.602 248.568 318.989 248.756 318.273H251.773C251.602 319.432 251.18 320.476 250.507 321.405C249.842 322.325 248.96 323.058 247.861 323.604C246.77 324.141 245.5 324.409 244.051 324.409ZM267.996 324V307.125H262.78C261.604 307.125 260.679 307.398 260.006 307.943C259.332 308.489 258.996 309.239 258.996 310.193C258.996 311.131 259.298 311.868 259.903 312.405C260.517 312.942 261.357 313.21 262.422 313.21H268.763V316.023H262.422C261.092 316.023 259.946 315.788 258.983 315.32C258.02 314.851 257.278 314.182 256.759 313.312C256.239 312.435 255.979 311.395 255.979 310.193C255.979 308.983 256.251 307.943 256.797 307.074C257.342 306.205 258.122 305.536 259.136 305.067C260.159 304.598 261.374 304.364 262.78 304.364H270.859V324H267.996ZM254.905 324L260.479 314.233H263.751L258.178 324H254.905ZM294.5 324.409C292.659 324.409 291.074 323.974 289.745 323.105C288.415 322.236 287.392 321.038 286.676 319.513C285.961 317.987 285.603 316.244 285.603 314.284C285.603 312.29 285.969 310.53 286.702 309.004C287.444 307.47 288.475 306.273 289.796 305.412C291.125 304.543 292.676 304.108 294.449 304.108C295.83 304.108 297.074 304.364 298.182 304.875C299.29 305.386 300.198 306.102 300.905 307.023C301.613 307.943 302.051 309.017 302.222 310.244H299.205C298.975 309.349 298.463 308.557 297.671 307.866C296.887 307.168 295.83 306.818 294.5 306.818C293.324 306.818 292.293 307.125 291.407 307.739C290.529 308.344 289.843 309.2 289.348 310.308C288.863 311.408 288.62 312.699 288.62 314.182C288.62 315.699 288.858 317.02 289.336 318.145C289.821 319.27 290.503 320.143 291.381 320.766C292.267 321.388 293.307 321.699 294.5 321.699C295.284 321.699 295.996 321.562 296.635 321.29C297.275 321.017 297.816 320.625 298.259 320.114C298.702 319.602 299.017 318.989 299.205 318.273H302.222C302.051 319.432 301.63 320.476 300.956 321.405C300.292 322.325 299.409 323.058 298.31 323.604C297.219 324.141 295.949 324.409 294.5 324.409ZM316.757 324V304.364H324.786C326.9 304.364 328.578 304.841 329.823 305.795C331.067 306.75 331.689 308.011 331.689 309.58C331.689 310.773 331.336 311.697 330.628 312.354C329.921 313.001 329.013 313.44 327.905 313.67C328.63 313.773 329.333 314.028 330.015 314.438C330.705 314.847 331.276 315.409 331.728 316.125C332.179 316.832 332.405 317.702 332.405 318.733C332.405 319.739 332.15 320.638 331.638 321.43C331.127 322.223 330.394 322.849 329.439 323.31C328.485 323.77 327.343 324 326.013 324H316.757ZM319.621 321.239H326.013C327.053 321.239 327.867 320.991 328.455 320.497C329.043 320.003 329.337 319.33 329.337 318.477C329.337 317.463 329.043 316.666 328.455 316.087C327.867 315.499 327.053 315.205 326.013 315.205H319.621V321.239ZM319.621 312.597H324.786C325.596 312.597 326.29 312.486 326.87 312.264C327.449 312.034 327.892 311.71 328.199 311.293C328.515 310.866 328.672 310.364 328.672 309.784C328.672 308.957 328.327 308.31 327.637 307.841C326.946 307.364 325.996 307.125 324.786 307.125H319.621V312.597ZM335.234 324V321.188H335.95C336.538 321.188 337.028 321.072 337.42 320.842C337.812 320.604 338.127 320.19 338.366 319.602C338.613 319.006 338.8 318.179 338.928 317.122C339.065 316.057 339.163 314.702 339.222 313.057L339.58 304.364H352.671V324H349.654V307.176H342.444L342.137 314.182C342.069 315.793 341.924 317.212 341.702 318.439C341.489 319.658 341.161 320.68 340.718 321.507C340.283 322.334 339.704 322.956 338.979 323.374C338.255 323.791 337.347 324 336.256 324H335.234ZM363.985 324.46C362.741 324.46 361.612 324.226 360.597 323.757C359.583 323.28 358.778 322.594 358.181 321.699C357.585 320.795 357.286 319.705 357.286 318.426C357.286 317.301 357.508 316.389 357.951 315.69C358.394 314.983 358.987 314.429 359.728 314.028C360.469 313.628 361.288 313.33 362.183 313.134C363.086 312.929 363.994 312.767 364.906 312.648C366.099 312.494 367.066 312.379 367.808 312.303C368.558 312.217 369.103 312.077 369.444 311.881C369.793 311.685 369.968 311.344 369.968 310.858V310.756C369.968 309.494 369.623 308.514 368.933 307.815C368.251 307.116 367.215 306.767 365.826 306.767C364.386 306.767 363.256 307.082 362.438 307.713C361.62 308.344 361.045 309.017 360.712 309.733L357.849 308.71C358.36 307.517 359.042 306.588 359.894 305.923C360.755 305.25 361.692 304.781 362.707 304.517C363.729 304.244 364.735 304.108 365.724 304.108C366.354 304.108 367.079 304.185 367.897 304.338C368.724 304.483 369.521 304.786 370.288 305.246C371.063 305.706 371.707 306.401 372.218 307.33C372.729 308.259 372.985 309.503 372.985 311.062V324H369.968V321.341H369.815C369.61 321.767 369.269 322.223 368.792 322.709C368.315 323.195 367.68 323.608 366.887 323.949C366.094 324.29 365.127 324.46 363.985 324.46ZM364.445 321.75C365.638 321.75 366.644 321.516 367.462 321.047C368.289 320.578 368.911 319.973 369.329 319.232C369.755 318.49 369.968 317.71 369.968 316.892V314.131C369.84 314.284 369.559 314.425 369.124 314.553C368.698 314.672 368.204 314.778 367.641 314.872C367.087 314.957 366.546 315.034 366.018 315.102C365.498 315.162 365.076 315.213 364.752 315.256C363.968 315.358 363.235 315.524 362.553 315.754C361.88 315.976 361.335 316.312 360.917 316.764C360.508 317.207 360.303 317.812 360.303 318.58C360.303 319.628 360.691 320.42 361.467 320.957C362.251 321.486 363.244 321.75 364.445 321.75ZM376.395 329.625V321.188H378.032C378.432 320.77 378.777 320.318 379.067 319.832C379.357 319.347 379.608 318.771 379.821 318.107C380.043 317.433 380.23 316.615 380.384 315.652C380.537 314.68 380.674 313.509 380.793 312.136L381.458 304.364H393.935V321.188H396.952V329.625H393.935V324H379.412V329.625H376.395ZM381.458 321.188H390.918V307.176H384.27L383.759 312.136C383.546 314.19 383.282 315.984 382.966 317.518C382.651 319.053 382.148 320.276 381.458 321.188ZM409.19 324.409C407.298 324.409 405.665 323.991 404.293 323.156C402.93 322.312 401.877 321.136 401.136 319.628C400.403 318.111 400.036 316.347 400.036 314.335C400.036 312.324 400.403 310.551 401.136 309.017C401.877 307.474 402.908 306.273 404.229 305.412C405.559 304.543 407.11 304.108 408.883 304.108C409.906 304.108 410.915 304.278 411.913 304.619C412.91 304.96 413.817 305.514 414.636 306.281C415.454 307.04 416.106 308.045 416.592 309.298C417.077 310.551 417.32 312.094 417.32 313.926V315.205H402.184V312.597H414.252C414.252 311.489 414.031 310.5 413.587 309.631C413.153 308.761 412.531 308.075 411.721 307.572C410.92 307.07 409.974 306.818 408.883 306.818C407.681 306.818 406.641 307.116 405.763 307.713C404.894 308.301 404.225 309.068 403.756 310.014C403.288 310.96 403.053 311.974 403.053 313.057V314.795C403.053 316.278 403.309 317.536 403.82 318.567C404.34 319.589 405.06 320.369 405.981 320.906C406.901 321.435 407.971 321.699 409.19 321.699C409.982 321.699 410.698 321.588 411.337 321.366C411.985 321.136 412.543 320.795 413.012 320.344C413.481 319.884 413.843 319.312 414.099 318.631L417.013 319.449C416.707 320.438 416.191 321.307 415.467 322.057C414.742 322.798 413.847 323.378 412.782 323.795C411.717 324.205 410.519 324.409 409.19 324.409ZM420.171 324V321.188H420.887C421.475 321.188 421.965 321.072 422.357 320.842C422.749 320.604 423.065 320.19 423.303 319.602C423.55 319.006 423.738 318.179 423.866 317.122C424.002 316.057 424.1 314.702 424.16 313.057L424.518 304.364H437.609V324H434.592V307.176H427.381L427.075 314.182C427.006 315.793 426.862 317.212 426.64 318.439C426.427 319.658 426.099 320.68 425.656 321.507C425.221 322.334 424.641 322.956 423.917 323.374C423.192 323.791 422.285 324 421.194 324H420.171ZM445.752 311.472H451.377C453.678 311.472 455.438 312.055 456.657 313.223C457.876 314.391 458.485 315.869 458.485 317.659C458.485 318.835 458.212 319.905 457.667 320.868C457.121 321.822 456.32 322.585 455.263 323.156C454.207 323.719 452.911 324 451.377 324H443.144V304.364H446.161V321.188H451.377C452.57 321.188 453.55 320.872 454.317 320.241C455.085 319.611 455.468 318.801 455.468 317.812C455.468 316.773 455.085 315.925 454.317 315.268C453.55 314.612 452.57 314.284 451.377 314.284H445.752V311.472ZM478.521 304.364V321.188H481.282V330.341H478.265V324H463.078V304.364H466.095V321.188H475.504V304.364H478.521ZM493.951 324.409C492.059 324.409 490.427 323.991 489.055 323.156C487.691 322.312 486.639 321.136 485.897 319.628C485.164 318.111 484.798 316.347 484.798 314.335C484.798 312.324 485.164 310.551 485.897 309.017C486.639 307.474 487.67 306.273 488.991 305.412C490.321 304.543 491.872 304.108 493.645 304.108C494.667 304.108 495.677 304.278 496.674 304.619C497.672 304.96 498.579 305.514 499.397 306.281C500.216 307.04 500.868 308.045 501.353 309.298C501.839 310.551 502.082 312.094 502.082 313.926V315.205H486.946V312.597H499.014C499.014 311.489 498.792 310.5 498.349 309.631C497.914 308.761 497.292 308.075 496.483 307.572C495.681 307.07 494.735 306.818 493.645 306.818C492.443 306.818 491.403 307.116 490.525 307.713C489.656 308.301 488.987 309.068 488.518 310.014C488.049 310.96 487.815 311.974 487.815 313.057V314.795C487.815 316.278 488.071 317.536 488.582 318.567C489.102 319.589 489.822 320.369 490.743 320.906C491.663 321.435 492.733 321.699 493.951 321.699C494.744 321.699 495.46 321.588 496.099 321.366C496.747 321.136 497.305 320.795 497.774 320.344C498.243 319.884 498.605 319.312 498.86 318.631L501.775 319.449C501.468 320.438 500.953 321.307 500.228 322.057C499.504 322.798 498.609 323.378 497.544 323.795C496.478 324.205 495.281 324.409 493.951 324.409ZM517.41 319.909L524.262 304.364H527.126L518.637 324H516.183L507.848 304.364H510.66L517.41 319.909ZM509.689 304.364V324H506.672V304.364H509.689ZM525.132 324V304.364H528.149V324H525.132Z" fill="black"/>
<circle cx="106" cy="141" r="75" fill="#9D3F3F"/>
<path d="M85.9541 192.985H85.9551C89.2233 192.893 92.5126 192.377 95.7314 191.454C102.746 189.445 110.158 189.445 117.173 191.454L117.777 191.623C120.803 192.441 123.886 192.899 126.949 192.985L127.879 192.999C132.468 193.001 136.211 192.03 139.206 189.949C144.663 186.159 147.311 178.271 145.479 171.559C143.845 165.576 139.442 161.529 135.447 157.826C134.902 157.319 134.343 156.803 133.811 156.297L133.81 156.296C129.772 152.468 126.083 148.151 122.846 143.468L122.845 143.467C122.434 142.874 122.02 142.26 121.616 141.659C120.076 139.368 118.423 136.909 116.38 134.813L116.381 134.812L116.309 134.737L116.304 134.732C113.701 132.092 110.199 130.64 106.452 130.64C102.708 130.64 99.205 132.091 96.6045 134.73L96.5303 134.805L96.5244 134.811C94.4804 136.907 92.8287 139.368 91.2881 141.659C90.8842 142.26 90.4704 142.874 90.0596 143.467L90.0586 143.468C86.8216 148.152 83.1322 152.468 79.0947 156.296C78.5599 156.803 78.0011 157.321 77.4561 157.826C73.461 161.529 69.0598 165.576 67.4258 171.559C65.5933 178.271 68.2414 186.159 73.6982 189.949C76.6885 192.026 80.4227 193 85.001 193C85.3161 193 85.6345 192.994 85.9541 192.985ZM127.075 188.552C124.362 188.474 121.626 188.068 118.933 187.34L118.395 187.19C110.826 185.021 102.838 184.952 95.2432 186.986L94.5098 187.19C91.6437 188.013 88.7221 188.469 85.8291 188.552C81.6169 188.671 78.5185 187.897 76.2275 186.306C72.3333 183.601 70.3333 177.749 71.7041 172.728C72.9793 168.06 76.6455 164.625 80.4707 161.08C81.0191 160.571 81.5924 160.041 82.1465 159.516C86.4081 155.475 90.2972 150.925 93.7061 145.992L94.9668 144.136L94.9678 144.135C96.3732 142.044 97.7718 139.971 99.376 138.249L99.6992 137.909L99.7021 137.906L99.7666 137.841H99.7656C101.523 136.06 103.892 135.076 106.452 135.076C109.015 135.076 111.386 136.062 113.144 137.847L113.204 137.908L113.205 137.909C114.946 139.694 116.437 141.905 117.937 144.135V144.136C118.343 144.739 118.769 145.373 119.197 145.992C122.606 150.925 126.497 155.475 130.758 159.516V159.516C131.313 160.041 131.885 160.571 132.433 161.08L133.855 162.407C137.137 165.503 140.084 168.643 141.2 172.728C142.57 177.75 140.57 183.601 136.677 186.306C134.528 187.797 131.67 188.572 127.852 188.563L127.075 188.552Z" fill="white" stroke="white" stroke-width="2"/>
<path d="M90.8652 130.087C91.4149 130.087 91.9748 130.06 92.5381 130.008C96.921 129.599 100.254 127.69 102.278 124.27C104.132 121.142 104.791 116.986 104.422 111.719L104.335 110.65C103.787 104.781 102.244 99.7016 99.8057 96.0077C97.1128 91.9268 93.4564 89.7758 89.2236 90.0184L88.8115 90.0497C84.5639 90.4474 80.9075 93.1234 78.418 97.4052L78.1807 97.8241C75.78 102.185 74.7774 107.704 75.3047 113.359C75.824 118.927 77.7706 123.497 81.0566 126.453C83.7256 128.854 87.1044 130.087 90.8652 130.087ZM92.127 125.591C88.8835 125.893 86.1054 125.027 84.0234 123.154C81.6895 121.054 80.1532 117.574 79.7217 112.948C79.2698 108.102 80.123 103.494 82.0664 99.9637C83.9303 96.5786 86.4985 94.7235 89.2207 94.4677H89.2217C89.4412 94.4476 89.6516 94.4364 89.8584 94.4364C92.1687 94.4365 94.2704 95.6755 96.1045 98.452C98.0532 101.407 99.4339 105.872 99.918 111.062C100.385 116.066 99.8324 119.696 98.4619 122.009V122.01C97.2226 124.103 95.2201 125.302 92.127 125.591Z" fill="white" stroke="white" stroke-width="2"/>
<path d="M67.7285 149.912C69.8796 149.912 72.0551 149.379 74.1709 148.343C77.8379 146.547 80.1085 143.788 80.7441 140.143C81.3613 136.601 80.419 132.51 78.0732 127.717L78.0742 127.716C75.6941 122.851 72.7097 118.981 69.4004 116.592C65.725 113.939 61.8338 113.27 58.2246 114.881L57.876 115.044C54.1967 116.846 51.8722 120.548 51.1992 125.281C50.5528 129.828 51.4906 134.912 53.7891 139.608C56.0547 144.238 59.2331 147.55 63.0508 149.032C64.5619 149.619 66.1328 149.912 67.7285 149.912ZM72.2197 144.359C69.7543 145.566 67.3136 145.778 65.0957 145.054L64.6553 144.897C62.0315 143.878 59.6237 141.437 57.7734 137.656C55.8328 133.691 55.078 129.514 55.5908 125.906L55.6953 125.273C56.2792 122.169 57.782 120.03 59.8262 119.028C60.6188 118.64 61.4212 118.453 62.2393 118.453C63.6208 118.453 65.1435 118.99 66.8047 120.19C69.4 122.063 72.0061 125.407 74.0898 129.666C76.0971 133.767 76.7885 137.009 76.375 139.381C76.0046 141.505 74.7215 143.133 72.2197 144.359Z" fill="white" stroke="white" stroke-width="2"/>
<path d="M122.041 130.087C125.801 130.087 129.18 128.855 131.849 126.454C135.136 123.498 137.082 118.928 137.602 113.36C138.13 107.705 137.126 102.185 134.727 97.8241C132.313 93.4395 128.714 90.6385 124.505 90.0946L124.096 90.0497C119.688 89.6392 115.881 91.7951 113.102 96.0077C110.816 99.4709 109.317 104.151 108.687 109.559L108.572 110.65C108.034 116.428 108.651 120.933 110.629 124.27C112.653 127.69 115.986 129.598 120.369 130.007C120.932 130.059 121.492 130.087 122.041 130.087ZM128.486 123.494C126.454 125.131 123.822 125.875 120.78 125.591C117.687 125.302 115.685 124.103 114.445 122.01V122.009C113.076 119.696 112.522 116.065 112.989 111.062C113.473 105.872 114.854 101.407 116.803 98.452C118.637 95.6742 120.738 94.4365 123.049 94.4364C123.151 94.4364 123.256 94.4391 123.362 94.4442L123.685 94.4677C126.408 94.7229 128.977 96.5781 130.841 99.9637C132.784 103.494 133.637 108.102 133.185 112.948C132.754 117.573 131.218 121.054 128.885 123.154L128.486 123.494Z" fill="white" stroke="white" stroke-width="2"/>
<path d="M145.177 149.912C146.772 149.912 148.344 149.619 149.854 149.032C153.672 147.55 156.85 144.237 159.116 139.608C161.414 134.912 162.351 129.828 161.706 125.281C161.054 120.696 158.852 117.079 155.37 115.219L155.029 115.044C151.323 113.229 147.299 113.853 143.504 116.592V116.593C140.195 118.982 137.211 122.85 134.831 127.715C132.485 132.508 131.543 136.601 132.161 140.143L132.226 140.482C132.939 143.96 135.182 146.603 138.734 148.343C140.851 149.379 143.025 149.912 145.177 149.912ZM148.249 144.897C145.917 145.802 143.316 145.647 140.687 144.359H140.686C138.184 143.133 136.902 141.505 136.531 139.381C136.118 137.009 136.809 133.767 138.816 129.666V129.665C140.77 125.673 143.181 122.484 145.614 120.558L146.102 120.19C147.762 118.99 149.283 118.453 150.666 118.453C151.483 118.453 152.287 118.641 153.079 119.028L153.282 119.133C155.356 120.246 156.84 122.567 157.314 125.906C157.827 129.514 157.073 133.692 155.132 137.656V137.657C153.283 141.438 150.874 143.878 148.25 144.897H148.249Z" fill="white" stroke="white" stroke-width="2"/>
</g>
<defs>
<filter id="filter0_d_99_43" x="0" y="0" width="650" height="395" filterUnits="userSpaceOnUse" color-interpolation-filters="sRGB">
<feFlood flood-opacity="0" result="BackgroundImageFix"/>
<feColorMatrix in="SourceAlpha" type="matrix" values="0 0 0 0 0 0 0 0 0 0 0 0 0 0 0 0 0 0 127 0" result="hardAlpha"/>
<feOffset dy="4"/>
<feGaussianBlur stdDeviation="2"/>
<feComposite in2="hardAlpha" operator="out"/>
<feColorMatrix type="matrix" values="0 0 0 0 0.615686 0 0 0 0 0.247059 0 0 0 0 0.247059 0 0 0 0.25 0"/>
<feBlend mode="normal" in2="BackgroundImageFix" result="effect1_dropShadow_99_43"/>
<feBlend mode="normal" in="SourceGraphic" in2="effect1_dropShadow_99_43" result="shape"/>
</filter>
</defs>
</svg>
