<svg width="642" height="387" viewBox="0 0 642 387" fill="none" xmlns="http://www.w3.org/2000/svg">
<rect width="642" height="387" rx="10" fill="#FFEAEA"/>
<rect x="213" y="173" width="392" height="83" rx="10" fill="#EFA8A8"/>
<path d="M257.756 201.818V228H254.585V204.631H241.392V228H238.222V201.818H257.756ZM271.975 228.409C270.083 228.409 268.451 227.991 267.078 227.156C265.715 226.312 264.662 225.136 263.921 223.628C263.188 222.111 262.821 220.347 262.821 218.335C262.821 216.324 263.188 214.551 263.921 213.017C264.662 211.474 265.694 210.273 267.015 209.412C268.344 208.543 269.895 208.108 271.668 208.108C272.691 208.108 273.701 208.278 274.698 208.619C275.695 208.96 276.603 209.514 277.421 210.281C278.239 211.04 278.891 212.045 279.377 213.298C279.863 214.551 280.105 216.094 280.105 217.926V219.205H264.969V216.597H277.037C277.037 215.489 276.816 214.5 276.373 213.631C275.938 212.761 275.316 212.075 274.506 211.572C273.705 211.07 272.759 210.818 271.668 210.818C270.466 210.818 269.426 211.116 268.549 211.713C267.679 212.301 267.01 213.068 266.542 214.014C266.073 214.96 265.838 215.974 265.838 217.057V218.795C265.838 220.278 266.094 221.536 266.605 222.567C267.125 223.589 267.846 224.369 268.766 224.906C269.686 225.435 270.756 225.699 271.975 225.699C272.767 225.699 273.483 225.588 274.123 225.366C274.77 225.136 275.328 224.795 275.797 224.344C276.266 223.884 276.628 223.312 276.884 222.631L279.799 223.449C279.492 224.438 278.976 225.307 278.252 226.057C277.527 226.798 276.632 227.378 275.567 227.795C274.502 228.205 273.304 228.409 271.975 228.409ZM284.695 235.364V208.364H287.61V211.483H287.968C288.189 211.142 288.496 210.707 288.888 210.179C289.289 209.642 289.86 209.165 290.601 208.747C291.351 208.321 292.365 208.108 293.644 208.108C295.297 208.108 296.755 208.521 298.016 209.348C299.277 210.175 300.262 211.347 300.969 212.864C301.676 214.381 302.03 216.17 302.03 218.233C302.03 220.312 301.676 222.115 300.969 223.641C300.262 225.158 299.282 226.334 298.029 227.169C296.776 227.996 295.331 228.409 293.695 228.409C292.434 228.409 291.424 228.2 290.665 227.783C289.907 227.357 289.323 226.875 288.914 226.338C288.505 225.793 288.189 225.341 287.968 224.983H287.712V235.364H284.695ZM287.661 218.182C287.661 219.665 287.878 220.973 288.313 222.107C288.748 223.232 289.382 224.114 290.218 224.753C291.053 225.384 292.076 225.699 293.286 225.699C294.547 225.699 295.6 225.366 296.444 224.702C297.296 224.028 297.935 223.125 298.361 221.991C298.796 220.849 299.013 219.58 299.013 218.182C299.013 216.801 298.8 215.557 298.374 214.449C297.956 213.332 297.321 212.45 296.469 211.803C295.625 211.146 294.564 210.818 293.286 210.818C292.059 210.818 291.027 211.129 290.192 211.751C289.357 212.365 288.726 213.226 288.3 214.334C287.874 215.433 287.661 216.716 287.661 218.182ZM314.865 228.409C312.973 228.409 311.341 227.991 309.969 227.156C308.605 226.312 307.553 225.136 306.811 223.628C306.078 222.111 305.712 220.347 305.712 218.335C305.712 216.324 306.078 214.551 306.811 213.017C307.553 211.474 308.584 210.273 309.905 209.412C311.235 208.543 312.786 208.108 314.559 208.108C315.581 208.108 316.591 208.278 317.588 208.619C318.586 208.96 319.493 209.514 320.311 210.281C321.13 211.04 321.782 212.045 322.267 213.298C322.753 214.551 322.996 216.094 322.996 217.926V219.205H307.86V216.597H319.928C319.928 215.489 319.706 214.5 319.263 213.631C318.828 212.761 318.206 212.075 317.397 211.572C316.596 211.07 315.65 210.818 314.559 210.818C313.357 210.818 312.317 211.116 311.439 211.713C310.57 212.301 309.901 213.068 309.432 214.014C308.963 214.96 308.729 215.974 308.729 217.057V218.795C308.729 220.278 308.985 221.536 309.496 222.567C310.016 223.589 310.736 224.369 311.657 224.906C312.577 225.435 313.647 225.699 314.865 225.699C315.658 225.699 316.374 225.588 317.013 225.366C317.661 225.136 318.219 224.795 318.688 224.344C319.157 223.884 319.519 223.312 319.775 222.631L322.689 223.449C322.382 224.438 321.867 225.307 321.142 226.057C320.418 226.798 319.523 227.378 318.458 227.795C317.392 228.205 316.195 228.409 314.865 228.409ZM327.586 228V208.364H335.614C337.728 208.364 339.407 208.841 340.651 209.795C341.895 210.75 342.517 212.011 342.517 213.58C342.517 214.773 342.164 215.697 341.456 216.354C340.749 217.001 339.841 217.44 338.733 217.67C339.458 217.773 340.161 218.028 340.843 218.438C341.533 218.847 342.104 219.409 342.556 220.125C343.007 220.832 343.233 221.702 343.233 222.733C343.233 223.739 342.978 224.638 342.466 225.43C341.955 226.223 341.222 226.849 340.267 227.31C339.313 227.77 338.171 228 336.841 228H327.586ZM330.449 225.239H336.841C337.881 225.239 338.695 224.991 339.283 224.497C339.871 224.003 340.165 223.33 340.165 222.477C340.165 221.463 339.871 220.666 339.283 220.087C338.695 219.499 337.881 219.205 336.841 219.205H330.449V225.239ZM330.449 216.597H335.614C336.424 216.597 337.118 216.486 337.698 216.264C338.277 216.034 338.721 215.71 339.027 215.293C339.343 214.866 339.5 214.364 339.5 213.784C339.5 212.957 339.155 212.31 338.465 211.841C337.775 211.364 336.824 211.125 335.614 211.125H330.449V216.597ZM355.778 228.409C354.005 228.409 352.45 227.987 351.112 227.143C349.782 226.3 348.742 225.119 347.992 223.602C347.251 222.085 346.88 220.312 346.88 218.284C346.88 216.239 347.251 214.453 347.992 212.928C348.742 211.402 349.782 210.217 351.112 209.374C352.45 208.53 354.005 208.108 355.778 208.108C357.55 208.108 359.102 208.53 360.431 209.374C361.769 210.217 362.809 211.402 363.55 212.928C364.3 214.453 364.675 216.239 364.675 218.284C364.675 220.312 364.3 222.085 363.55 223.602C362.809 225.119 361.769 226.3 360.431 227.143C359.102 227.987 357.55 228.409 355.778 228.409ZM355.778 225.699C357.124 225.699 358.232 225.354 359.102 224.663C359.971 223.973 360.614 223.065 361.032 221.94C361.45 220.815 361.658 219.597 361.658 218.284C361.658 216.972 361.45 215.749 361.032 214.615C360.614 213.482 359.971 212.565 359.102 211.866C358.232 211.168 357.124 210.818 355.778 210.818C354.431 210.818 353.323 211.168 352.454 211.866C351.585 212.565 350.941 213.482 350.523 214.615C350.106 215.749 349.897 216.972 349.897 218.284C349.897 219.597 350.106 220.815 350.523 221.94C350.941 223.065 351.585 223.973 352.454 224.663C353.323 225.354 354.431 225.699 355.778 225.699ZM368.054 222.989H371.275C371.343 223.875 371.744 224.548 372.477 225.009C373.218 225.469 374.181 225.699 375.366 225.699C376.576 225.699 377.612 225.452 378.473 224.957C379.333 224.455 379.764 223.645 379.764 222.528C379.764 221.872 379.602 221.301 379.278 220.815C378.954 220.321 378.498 219.937 377.91 219.665C377.322 219.392 376.627 219.256 375.826 219.256H372.451V216.545H375.826C377.028 216.545 377.914 216.273 378.485 215.727C379.065 215.182 379.355 214.5 379.355 213.682C379.355 212.804 379.044 212.101 378.422 211.572C377.799 211.036 376.917 210.767 375.775 210.767C374.625 210.767 373.666 211.027 372.899 211.547C372.132 212.058 371.727 212.719 371.684 213.528H368.514C368.548 212.472 368.872 211.538 369.485 210.729C370.099 209.911 370.934 209.271 371.991 208.811C373.048 208.342 374.258 208.108 375.622 208.108C377.002 208.108 378.2 208.351 379.214 208.837C380.237 209.314 381.025 209.966 381.579 210.793C382.142 211.611 382.423 212.54 382.423 213.58C382.423 214.688 382.112 215.582 381.49 216.264C380.868 216.946 380.088 217.432 379.15 217.722V217.926C379.892 217.977 380.535 218.216 381.081 218.642C381.635 219.06 382.065 219.609 382.372 220.291C382.679 220.964 382.832 221.71 382.832 222.528C382.832 223.722 382.512 224.761 381.873 225.648C381.234 226.526 380.356 227.207 379.24 227.693C378.123 228.17 376.849 228.409 375.417 228.409C374.028 228.409 372.784 228.183 371.684 227.732C370.585 227.271 369.711 226.636 369.064 225.827C368.424 225.009 368.088 224.062 368.054 222.989ZM387.07 228V208.364H390.087V216.903H392.081L399.138 208.364H403.025L395.098 217.824L403.127 228H399.24L392.797 219.716H390.087V228H387.07ZM412.184 228.46C410.94 228.46 409.811 228.226 408.797 227.757C407.782 227.28 406.977 226.594 406.38 225.699C405.784 224.795 405.485 223.705 405.485 222.426C405.485 221.301 405.707 220.389 406.15 219.69C406.593 218.983 407.186 218.429 407.927 218.028C408.669 217.628 409.487 217.33 410.382 217.134C411.285 216.929 412.193 216.767 413.105 216.648C414.298 216.494 415.265 216.379 416.007 216.303C416.757 216.217 417.302 216.077 417.643 215.881C417.993 215.685 418.167 215.344 418.167 214.858V214.756C418.167 213.494 417.822 212.514 417.132 211.815C416.45 211.116 415.414 210.767 414.025 210.767C412.585 210.767 411.456 211.082 410.637 211.713C409.819 212.344 409.244 213.017 408.912 213.733L406.048 212.71C406.559 211.517 407.241 210.588 408.093 209.923C408.954 209.25 409.892 208.781 410.906 208.517C411.929 208.244 412.934 208.108 413.923 208.108C414.554 208.108 415.278 208.185 416.096 208.338C416.923 208.483 417.72 208.786 418.487 209.246C419.262 209.706 419.906 210.401 420.417 211.33C420.929 212.259 421.184 213.503 421.184 215.062V228H418.167V225.341H418.014C417.809 225.767 417.468 226.223 416.991 226.709C416.514 227.195 415.879 227.608 415.086 227.949C414.294 228.29 413.326 228.46 412.184 228.46ZM412.645 225.75C413.838 225.75 414.843 225.516 415.662 225.047C416.488 224.578 417.11 223.973 417.528 223.232C417.954 222.49 418.167 221.71 418.167 220.892V218.131C418.039 218.284 417.758 218.425 417.324 218.553C416.897 218.672 416.403 218.778 415.841 218.872C415.287 218.957 414.745 219.034 414.217 219.102C413.697 219.162 413.275 219.213 412.951 219.256C412.167 219.358 411.434 219.524 410.752 219.754C410.079 219.976 409.534 220.312 409.116 220.764C408.707 221.207 408.502 221.812 408.502 222.58C408.502 223.628 408.89 224.42 409.666 224.957C410.45 225.486 411.443 225.75 412.645 225.75Z" fill="black"/>
<path d="M235.756 74.8182V101H232.585V77.6307H219.392V101H216.222V74.8182H235.756ZM249.719 101.409C247.946 101.409 246.391 100.987 245.053 100.143C243.723 99.2997 242.684 98.1193 241.934 96.6023C241.192 95.0852 240.821 93.3125 240.821 91.2841C240.821 89.2386 241.192 87.4531 241.934 85.9276C242.684 84.402 243.723 83.2173 245.053 82.3736C246.391 81.5298 247.946 81.108 249.719 81.108C251.492 81.108 253.043 81.5298 254.373 82.3736C255.711 83.2173 256.75 84.402 257.492 85.9276C258.242 87.4531 258.617 89.2386 258.617 91.2841C258.617 93.3125 258.242 95.0852 257.492 96.6023C256.75 98.1193 255.711 99.2997 254.373 100.143C253.043 100.987 251.492 101.409 249.719 101.409ZM249.719 98.6989C251.066 98.6989 252.174 98.3537 253.043 97.6634C253.912 96.973 254.556 96.0653 254.973 94.9403C255.391 93.8153 255.6 92.5966 255.6 91.2841C255.6 89.9716 255.391 88.7486 254.973 87.6151C254.556 86.4815 253.912 85.5653 253.043 84.8665C252.174 84.1676 251.066 83.8182 249.719 83.8182C248.373 83.8182 247.265 84.1676 246.395 84.8665C245.526 85.5653 244.882 86.4815 244.465 87.6151C244.047 88.7486 243.838 89.9716 243.838 91.2841C243.838 92.5966 244.047 93.8153 244.465 94.9403C244.882 96.0653 245.526 96.973 246.395 97.6634C247.265 98.3537 248.373 98.6989 249.719 98.6989ZM273.961 96.9091L280.813 81.3636H283.677L275.188 101H272.734L264.398 81.3636H267.211L273.961 96.9091ZM266.239 81.3636V101H263.222V81.3636H266.239ZM281.683 101V81.3636H284.7V101H281.683ZM298.2 101.409C296.427 101.409 294.871 100.987 293.533 100.143C292.204 99.2997 291.164 98.1193 290.414 96.6023C289.673 95.0852 289.302 93.3125 289.302 91.2841C289.302 89.2386 289.673 87.4531 290.414 85.9276C291.164 84.402 292.204 83.2173 293.533 82.3736C294.871 81.5298 296.427 81.108 298.2 81.108C299.972 81.108 301.523 81.5298 302.853 82.3736C304.191 83.2173 305.231 84.402 305.972 85.9276C306.722 87.4531 307.097 89.2386 307.097 91.2841C307.097 93.3125 306.722 95.0852 305.972 96.6023C305.231 98.1193 304.191 99.2997 302.853 100.143C301.523 100.987 299.972 101.409 298.2 101.409ZM298.2 98.6989C299.546 98.6989 300.654 98.3537 301.523 97.6634C302.393 96.973 303.036 96.0653 303.454 94.9403C303.871 93.8153 304.08 92.5966 304.08 91.2841C304.08 89.9716 303.871 88.7486 303.454 87.6151C303.036 86.4815 302.393 85.5653 301.523 84.8665C300.654 84.1676 299.546 83.8182 298.2 83.8182C296.853 83.8182 295.745 84.1676 294.876 84.8665C294.006 85.5653 293.363 86.4815 292.945 87.6151C292.528 88.7486 292.319 89.9716 292.319 91.2841C292.319 92.5966 292.528 93.8153 292.945 94.9403C293.363 96.0653 294.006 96.973 294.876 97.6634C295.745 98.3537 296.853 98.6989 298.2 98.6989ZM323.822 81.3636V84.1761H314.72V101H311.703V81.3636H323.822ZM331.243 96.5511L340.703 81.3636H344.181V101H341.164V85.8125L331.755 101H328.226V81.3636H331.243V96.5511ZM347.035 84.1761V81.3636H362.989V84.1761H356.546V101H353.529V84.1761H347.035ZM374.604 101.409C372.712 101.409 371.08 100.991 369.707 100.156C368.344 99.3125 367.291 98.1364 366.55 96.6278C365.817 95.1108 365.45 93.3466 365.45 91.3352C365.45 89.3239 365.817 87.5511 366.55 86.017C367.291 84.4744 368.322 83.2727 369.643 82.4119C370.973 81.5426 372.524 81.108 374.297 81.108C375.32 81.108 376.33 81.2784 377.327 81.6193C378.324 81.9602 379.232 82.5142 380.05 83.2812C380.868 84.0398 381.52 85.0455 382.006 86.2983C382.491 87.5511 382.734 89.0937 382.734 90.9261V92.2045H367.598V89.5966H379.666C379.666 88.4886 379.445 87.5 379.001 86.6307C378.567 85.7614 377.945 85.0753 377.135 84.5724C376.334 84.0696 375.388 83.8182 374.297 83.8182C373.095 83.8182 372.055 84.1165 371.178 84.7131C370.308 85.3011 369.639 86.0682 369.17 87.0142C368.702 87.9602 368.467 88.9744 368.467 90.0568V91.7955C368.467 93.2784 368.723 94.5355 369.234 95.5668C369.754 96.5895 370.474 97.3693 371.395 97.9062C372.315 98.4347 373.385 98.6989 374.604 98.6989C375.396 98.6989 376.112 98.5881 376.751 98.3665C377.399 98.1364 377.957 97.7955 378.426 97.3438C378.895 96.8835 379.257 96.3125 379.513 95.6307L382.428 96.4489C382.121 97.4375 381.605 98.3068 380.881 99.0568C380.156 99.7983 379.261 100.378 378.196 100.795C377.131 101.205 375.933 101.409 374.604 101.409ZM412.023 74L413.557 75.8409C412.96 76.4205 412.27 76.8253 411.486 77.0554C410.702 77.2855 409.815 77.4261 408.827 77.4773C407.838 77.5284 406.739 77.5795 405.528 77.6307C404.165 77.6818 403.036 78.0142 402.141 78.6278C401.246 79.2415 400.555 80.1278 400.07 81.2869C399.584 82.446 399.273 83.8693 399.136 85.5568H399.392C400.057 84.3295 400.977 83.4261 402.153 82.8466C403.33 82.267 404.591 81.9773 405.938 81.9773C407.472 81.9773 408.852 82.3352 410.08 83.0511C411.307 83.767 412.278 84.8281 412.994 86.2344C413.71 87.6406 414.068 89.375 414.068 91.4375C414.068 93.4915 413.702 95.2642 412.969 96.7557C412.244 98.2472 411.226 99.3977 409.913 100.207C408.609 101.009 407.08 101.409 405.324 101.409C403.568 101.409 402.03 100.996 400.709 100.169C399.388 99.3338 398.361 98.098 397.628 96.4616C396.895 94.8168 396.528 92.7841 396.528 90.3636V88.267C396.528 83.8949 397.27 80.5795 398.753 78.321C400.244 76.0625 402.486 74.8949 405.477 74.8182C406.534 74.7841 407.476 74.7756 408.303 74.7926C409.129 74.8097 409.849 74.7713 410.463 74.6776C411.077 74.5838 411.597 74.358 412.023 74ZM405.324 98.6989C406.509 98.6989 407.527 98.4006 408.379 97.804C409.24 97.2074 409.901 96.3679 410.361 95.2855C410.821 94.1946 411.051 92.9119 411.051 91.4375C411.051 90.0057 410.817 88.7869 410.348 87.7812C409.888 86.7756 409.227 86.0085 408.366 85.4801C407.506 84.9517 406.474 84.6875 405.273 84.6875C404.395 84.6875 403.607 84.8366 402.908 85.1349C402.209 85.4332 401.612 85.8722 401.118 86.4517C400.624 87.0312 400.24 87.7386 399.967 88.5739C399.703 89.4091 399.562 90.3636 399.545 91.4375C399.545 93.6364 400.061 95.3963 401.092 96.7173C402.124 98.0384 403.534 98.6989 405.324 98.6989ZM426.916 101.409C425.024 101.409 423.392 100.991 422.02 100.156C420.656 99.3125 419.604 98.1364 418.862 96.6278C418.129 95.1108 417.763 93.3466 417.763 91.3352C417.763 89.3239 418.129 87.5511 418.862 86.017C419.604 84.4744 420.635 83.2727 421.956 82.4119C423.286 81.5426 424.837 81.108 426.609 81.108C427.632 81.108 428.642 81.2784 429.639 81.6193C430.636 81.9602 431.544 82.5142 432.362 83.2812C433.18 84.0398 433.832 85.0455 434.318 86.2983C434.804 87.5511 435.047 89.0937 435.047 90.9261V92.2045H419.911V89.5966H431.979C431.979 88.4886 431.757 87.5 431.314 86.6307C430.879 85.7614 430.257 85.0753 429.447 84.5724C428.646 84.0696 427.7 83.8182 426.609 83.8182C425.408 83.8182 424.368 84.1165 423.49 84.7131C422.621 85.3011 421.952 86.0682 421.483 87.0142C421.014 87.9602 420.78 88.9744 420.78 90.0568V91.7955C420.78 93.2784 421.036 94.5355 421.547 95.5668C422.067 96.5895 422.787 97.3693 423.707 97.9062C424.628 98.4347 425.697 98.6989 426.916 98.6989C427.709 98.6989 428.425 98.5881 429.064 98.3665C429.712 98.1364 430.27 97.7955 430.739 97.3438C431.207 96.8835 431.57 96.3125 431.825 95.6307L434.74 96.4489C434.433 97.4375 433.918 98.3068 433.193 99.0568C432.469 99.7983 431.574 100.378 430.509 100.795C429.443 101.205 428.246 101.409 426.916 101.409ZM437.54 106.625V98.1875H439.176C439.577 97.7699 439.922 97.3182 440.212 96.8324C440.501 96.3466 440.753 95.7713 440.966 95.1065C441.188 94.4332 441.375 93.6151 441.528 92.652C441.682 91.6804 441.818 90.5085 441.938 89.1364L442.602 81.3636H455.08V98.1875H458.097V106.625H455.08V101H440.557V106.625H437.54ZM442.602 98.1875H452.062V84.1761H445.415L444.903 89.1364C444.69 91.1903 444.426 92.9844 444.111 94.5185C443.795 96.0526 443.293 97.2756 442.602 98.1875ZM475.243 89.8011V92.6136H464.402V89.8011H475.243ZM465.118 81.3636V101H462.101V81.3636H465.118ZM477.544 81.3636V101H474.527V81.3636H477.544ZM491.032 101.409C489.259 101.409 487.703 100.987 486.365 100.143C485.036 99.2997 483.996 98.1193 483.246 96.6023C482.505 95.0852 482.134 93.3125 482.134 91.2841C482.134 89.2386 482.505 87.4531 483.246 85.9276C483.996 84.402 485.036 83.2173 486.365 82.3736C487.703 81.5298 489.259 81.108 491.032 81.108C492.804 81.108 494.355 81.5298 495.685 82.3736C497.023 83.2173 498.063 84.402 498.804 85.9276C499.554 87.4531 499.929 89.2386 499.929 91.2841C499.929 93.3125 499.554 95.0852 498.804 96.6023C498.063 98.1193 497.023 99.2997 495.685 100.143C494.355 100.987 492.804 101.409 491.032 101.409ZM491.032 98.6989C492.378 98.6989 493.486 98.3537 494.355 97.6634C495.225 96.973 495.868 96.0653 496.286 94.9403C496.703 93.8153 496.912 92.5966 496.912 91.2841C496.912 89.9716 496.703 88.7486 496.286 87.6151C495.868 86.4815 495.225 85.5653 494.355 84.8665C493.486 84.1676 492.378 83.8182 491.032 83.8182C489.685 83.8182 488.577 84.1676 487.708 84.8665C486.838 85.5653 486.195 86.4815 485.777 87.6151C485.36 88.7486 485.151 89.9716 485.151 91.2841C485.151 92.5966 485.36 93.8153 485.777 94.9403C486.195 96.0653 486.838 96.973 487.708 97.6634C488.577 98.3537 489.685 98.6989 491.032 98.6989ZM507.552 96.5511L517.012 81.3636H520.489V101H517.472V85.8125L508.063 101H504.535V81.3636H507.552V96.5511ZM515.018 74.8182H517.83C517.83 76.1989 517.353 77.3281 516.398 78.206C515.444 79.0838 514.148 79.5227 512.512 79.5227C510.901 79.5227 509.619 79.0838 508.664 78.206C507.718 77.3281 507.245 76.1989 507.245 74.8182H510.058C510.058 75.483 510.241 76.0668 510.607 76.5696C510.982 77.0724 511.617 77.3239 512.512 77.3239C513.407 77.3239 514.046 77.0724 514.43 76.5696C514.822 76.0668 515.018 75.483 515.018 74.8182ZM216.17 118.818H219.955L228.852 140.551H229.159L238.057 118.818H241.841V145H238.875V125.108H238.619L230.438 145H227.574L219.392 125.108H219.136V145H216.17V118.818ZM249.732 152.364C249.221 152.364 248.765 152.321 248.364 152.236C247.963 152.159 247.686 152.082 247.533 152.006L248.3 149.347C249.033 149.534 249.681 149.602 250.243 149.551C250.806 149.5 251.304 149.249 251.739 148.797C252.182 148.354 252.587 147.634 252.953 146.636L253.516 145.102L246.255 125.364H249.527L254.948 141.011H255.152L260.573 125.364H263.846L255.51 147.864C255.135 148.878 254.671 149.717 254.117 150.382C253.563 151.055 252.919 151.554 252.186 151.878C251.462 152.202 250.644 152.364 249.732 152.364ZM275.102 145.409C273.261 145.409 271.676 144.974 270.346 144.105C269.017 143.236 267.994 142.038 267.278 140.513C266.562 138.987 266.204 137.244 266.204 135.284C266.204 133.29 266.571 131.53 267.304 130.004C268.045 128.47 269.076 127.273 270.397 126.412C271.727 125.543 273.278 125.108 275.051 125.108C276.431 125.108 277.676 125.364 278.784 125.875C279.892 126.386 280.799 127.102 281.507 128.023C282.214 128.943 282.653 130.017 282.824 131.244H279.806C279.576 130.349 279.065 129.557 278.272 128.866C277.488 128.168 276.431 127.818 275.102 127.818C273.926 127.818 272.895 128.125 272.008 128.739C271.13 129.344 270.444 130.2 269.95 131.308C269.464 132.408 269.221 133.699 269.221 135.182C269.221 136.699 269.46 138.02 269.937 139.145C270.423 140.27 271.105 141.143 271.983 141.766C272.869 142.388 273.909 142.699 275.102 142.699C275.886 142.699 276.598 142.562 277.237 142.29C277.876 142.017 278.417 141.625 278.86 141.114C279.304 140.602 279.619 139.989 279.806 139.273H282.824C282.653 140.432 282.231 141.476 281.558 142.405C280.893 143.325 280.011 144.058 278.912 144.604C277.821 145.141 276.551 145.409 275.102 145.409ZM295.467 145.409C293.575 145.409 291.943 144.991 290.571 144.156C289.207 143.312 288.154 142.136 287.413 140.628C286.68 139.111 286.314 137.347 286.314 135.335C286.314 133.324 286.68 131.551 287.413 130.017C288.154 128.474 289.186 127.273 290.507 126.412C291.836 125.543 293.387 125.108 295.16 125.108C296.183 125.108 297.193 125.278 298.19 125.619C299.187 125.96 300.095 126.514 300.913 127.281C301.731 128.04 302.383 129.045 302.869 130.298C303.355 131.551 303.598 133.094 303.598 134.926V136.205H288.461V133.597H300.529C300.529 132.489 300.308 131.5 299.865 130.631C299.43 129.761 298.808 129.075 297.998 128.572C297.197 128.07 296.251 127.818 295.16 127.818C293.958 127.818 292.919 128.116 292.041 128.713C291.172 129.301 290.502 130.068 290.034 131.014C289.565 131.96 289.331 132.974 289.331 134.057V135.795C289.331 137.278 289.586 138.536 290.098 139.567C290.618 140.589 291.338 141.369 292.258 141.906C293.179 142.435 294.248 142.699 295.467 142.699C296.26 142.699 296.975 142.588 297.615 142.366C298.262 142.136 298.821 141.795 299.289 141.344C299.758 140.884 300.12 140.312 300.376 139.631L303.291 140.449C302.984 141.438 302.468 142.307 301.744 143.057C301.02 143.798 300.125 144.378 299.059 144.795C297.994 145.205 296.797 145.409 295.467 145.409Z" fill="black"/>
<rect x="61" y="271" width="542" height="80" rx="10" fill="#FFD0D0" stroke="#B37777" stroke-width="4"/>
<path d="M111.239 306H108.068C107.881 305.088 107.553 304.287 107.084 303.597C106.624 302.906 106.061 302.327 105.396 301.858C104.74 301.381 104.011 301.023 103.21 300.784C102.409 300.545 101.574 300.426 100.705 300.426C99.1193 300.426 97.6832 300.827 96.3963 301.628C95.1179 302.429 94.0994 303.609 93.3409 305.169C92.5909 306.729 92.2159 308.642 92.2159 310.909C92.2159 313.176 92.5909 315.089 93.3409 316.649C94.0994 318.209 95.1179 319.389 96.3963 320.19C97.6832 320.991 99.1193 321.392 100.705 321.392C101.574 321.392 102.409 321.273 103.21 321.034C104.011 320.795 104.74 320.442 105.396 319.973C106.061 319.496 106.624 318.912 107.084 318.222C107.553 317.523 107.881 316.722 108.068 315.818H111.239C111 317.156 110.565 318.354 109.935 319.411C109.304 320.467 108.52 321.366 107.582 322.108C106.645 322.841 105.592 323.399 104.425 323.783C103.266 324.166 102.026 324.358 100.705 324.358C98.4716 324.358 96.4858 323.812 94.7472 322.722C93.0085 321.631 91.6406 320.08 90.6435 318.068C89.6463 316.057 89.1477 313.67 89.1477 310.909C89.1477 308.148 89.6463 305.761 90.6435 303.75C91.6406 301.739 93.0085 300.188 94.7472 299.097C96.4858 298.006 98.4716 297.46 100.705 297.46C102.026 297.46 103.266 297.652 104.425 298.036C105.592 298.419 106.645 298.982 107.582 299.723C108.52 300.456 109.304 301.351 109.935 302.408C110.565 303.456 111 304.653 111.239 306ZM115.953 324V304.364H123.981C126.095 304.364 127.774 304.841 129.018 305.795C130.262 306.75 130.885 308.011 130.885 309.58C130.885 310.773 130.531 311.697 129.824 312.354C129.116 313.001 128.208 313.44 127.1 313.67C127.825 313.773 128.528 314.028 129.21 314.438C129.9 314.847 130.471 315.409 130.923 316.125C131.375 316.832 131.6 317.702 131.6 318.733C131.6 319.739 131.345 320.638 130.833 321.43C130.322 322.223 129.589 322.849 128.635 323.31C127.68 323.77 126.538 324 125.208 324H115.953ZM118.816 321.239H125.208C126.248 321.239 127.062 320.991 127.65 320.497C128.238 320.003 128.532 319.33 128.532 318.477C128.532 317.463 128.238 316.666 127.65 316.087C127.062 315.499 126.248 315.205 125.208 315.205H118.816V321.239ZM118.816 312.597H123.981C124.791 312.597 125.485 312.486 126.065 312.264C126.645 312.034 127.088 311.71 127.395 311.293C127.71 310.866 127.868 310.364 127.868 309.784C127.868 308.957 127.522 308.31 126.832 307.841C126.142 307.364 125.191 307.125 123.981 307.125H118.816V312.597ZM147.98 324V307.125H142.764C141.588 307.125 140.663 307.398 139.99 307.943C139.317 308.489 138.98 309.239 138.98 310.193C138.98 311.131 139.283 311.868 139.888 312.405C140.501 312.942 141.341 313.21 142.406 313.21H148.747V316.023H142.406C141.077 316.023 139.93 315.788 138.967 315.32C138.004 314.851 137.263 314.182 136.743 313.312C136.223 312.435 135.963 311.395 135.963 310.193C135.963 308.983 136.236 307.943 136.781 307.074C137.327 306.205 138.107 305.536 139.121 305.067C140.143 304.598 141.358 304.364 142.764 304.364H150.844V324H147.98ZM134.889 324L140.463 314.233H143.736L138.162 324H134.889ZM155.155 318.989H158.377C158.445 319.875 158.846 320.548 159.578 321.009C160.32 321.469 161.283 321.699 162.468 321.699C163.678 321.699 164.713 321.452 165.574 320.957C166.435 320.455 166.865 319.645 166.865 318.528C166.865 317.872 166.703 317.301 166.38 316.815C166.056 316.321 165.6 315.937 165.012 315.665C164.424 315.392 163.729 315.256 162.928 315.256H159.553V312.545H162.928C164.13 312.545 165.016 312.273 165.587 311.727C166.167 311.182 166.456 310.5 166.456 309.682C166.456 308.804 166.145 308.101 165.523 307.572C164.901 307.036 164.019 306.767 162.877 306.767C161.726 306.767 160.767 307.027 160 307.547C159.233 308.058 158.828 308.719 158.786 309.528H155.615C155.65 308.472 155.973 307.538 156.587 306.729C157.201 305.911 158.036 305.271 159.093 304.811C160.15 304.342 161.36 304.108 162.723 304.108C164.104 304.108 165.301 304.351 166.316 304.837C167.338 305.314 168.127 305.966 168.681 306.793C169.243 307.611 169.525 308.54 169.525 309.58C169.525 310.688 169.213 311.582 168.591 312.264C167.969 312.946 167.189 313.432 166.252 313.722V313.926C166.993 313.977 167.637 314.216 168.182 314.642C168.736 315.06 169.167 315.609 169.473 316.291C169.78 316.964 169.934 317.71 169.934 318.528C169.934 319.722 169.614 320.761 168.975 321.648C168.336 322.526 167.458 323.207 166.341 323.693C165.225 324.17 163.951 324.409 162.519 324.409C161.13 324.409 159.885 324.183 158.786 323.732C157.686 323.271 156.813 322.636 156.165 321.827C155.526 321.009 155.189 320.062 155.155 318.989ZM179.95 324.46C178.706 324.46 177.576 324.226 176.562 323.757C175.548 323.28 174.743 322.594 174.146 321.699C173.549 320.795 173.251 319.705 173.251 318.426C173.251 317.301 173.473 316.389 173.916 315.69C174.359 314.983 174.951 314.429 175.693 314.028C176.434 313.628 177.252 313.33 178.147 313.134C179.051 312.929 179.958 312.767 180.87 312.648C182.064 312.494 183.031 312.379 183.772 312.303C184.522 312.217 185.068 312.077 185.409 311.881C185.758 311.685 185.933 311.344 185.933 310.858V310.756C185.933 309.494 185.588 308.514 184.897 307.815C184.216 307.116 183.18 306.767 181.791 306.767C180.35 306.767 179.221 307.082 178.403 307.713C177.585 308.344 177.01 309.017 176.677 309.733L173.814 308.71C174.325 307.517 175.007 306.588 175.859 305.923C176.72 305.25 177.657 304.781 178.672 304.517C179.694 304.244 180.7 304.108 181.689 304.108C182.319 304.108 183.044 304.185 183.862 304.338C184.689 304.483 185.485 304.786 186.252 305.246C187.028 305.706 187.672 306.401 188.183 307.33C188.694 308.259 188.95 309.503 188.95 311.062V324H185.933V321.341H185.779C185.575 321.767 185.234 322.223 184.757 322.709C184.279 323.195 183.645 323.608 182.852 323.949C182.059 324.29 181.092 324.46 179.95 324.46ZM180.41 321.75C181.603 321.75 182.609 321.516 183.427 321.047C184.254 320.578 184.876 319.973 185.294 319.232C185.72 318.49 185.933 317.71 185.933 316.892V314.131C185.805 314.284 185.524 314.425 185.089 314.553C184.663 314.672 184.169 314.778 183.606 314.872C183.052 314.957 182.511 315.034 181.983 315.102C181.463 315.162 181.041 315.213 180.717 315.256C179.933 315.358 179.2 315.524 178.518 315.754C177.845 315.976 177.299 316.312 176.882 316.764C176.473 317.207 176.268 317.812 176.268 318.58C176.268 319.628 176.656 320.42 177.431 320.957C178.216 321.486 179.208 321.75 180.41 321.75ZM191.785 307.176V304.364H207.739V307.176H201.296V324H198.279V307.176H191.785ZM214.748 311.472H220.373C222.674 311.472 224.434 312.055 225.653 313.223C226.872 314.391 227.481 315.869 227.481 317.659C227.481 318.835 227.208 319.905 226.663 320.868C226.118 321.822 225.316 322.585 224.26 323.156C223.203 323.719 221.907 324 220.373 324H212.14V304.364H215.157V321.188H220.373C221.566 321.188 222.547 320.872 223.314 320.241C224.081 319.611 224.464 318.801 224.464 317.812C224.464 316.773 224.081 315.925 223.314 315.268C222.547 314.612 221.566 314.284 220.373 314.284H214.748V311.472ZM240.051 324.409C238.21 324.409 236.625 323.974 235.295 323.105C233.966 322.236 232.943 321.038 232.227 319.513C231.511 317.987 231.153 316.244 231.153 314.284C231.153 312.29 231.52 310.53 232.253 309.004C232.994 307.47 234.026 306.273 235.347 305.412C236.676 304.543 238.227 304.108 240 304.108C241.381 304.108 242.625 304.364 243.733 304.875C244.841 305.386 245.749 306.102 246.456 307.023C247.163 307.943 247.602 309.017 247.773 310.244H244.756C244.526 309.349 244.014 308.557 243.222 307.866C242.438 307.168 241.381 306.818 240.051 306.818C238.875 306.818 237.844 307.125 236.957 307.739C236.08 308.344 235.393 309.2 234.899 310.308C234.413 311.408 234.17 312.699 234.17 314.182C234.17 315.699 234.409 317.02 234.886 318.145C235.372 319.27 236.054 320.143 236.932 320.766C237.818 321.388 238.858 321.699 240.051 321.699C240.835 321.699 241.547 321.562 242.186 321.29C242.825 321.017 243.366 320.625 243.81 320.114C244.253 319.602 244.568 318.989 244.756 318.273H247.773C247.602 319.432 247.18 320.476 246.507 321.405C245.842 322.325 244.96 323.058 243.861 323.604C242.77 324.141 241.5 324.409 240.051 324.409ZM263.996 324V307.125H258.78C257.604 307.125 256.679 307.398 256.006 307.943C255.332 308.489 254.996 309.239 254.996 310.193C254.996 311.131 255.298 311.868 255.903 312.405C256.517 312.942 257.357 313.21 258.422 313.21H264.763V316.023H258.422C257.092 316.023 255.946 315.788 254.983 315.32C254.02 314.851 253.278 314.182 252.759 313.312C252.239 312.435 251.979 311.395 251.979 310.193C251.979 308.983 252.251 307.943 252.797 307.074C253.342 306.205 254.122 305.536 255.136 305.067C256.159 304.598 257.374 304.364 258.78 304.364H266.859V324H263.996ZM250.905 324L256.479 314.233H259.751L254.178 324H250.905ZM290.5 324.409C288.659 324.409 287.074 323.974 285.745 323.105C284.415 322.236 283.392 321.038 282.676 319.513C281.961 317.987 281.603 316.244 281.603 314.284C281.603 312.29 281.969 310.53 282.702 309.004C283.444 307.47 284.475 306.273 285.796 305.412C287.125 304.543 288.676 304.108 290.449 304.108C291.83 304.108 293.074 304.364 294.182 304.875C295.29 305.386 296.198 306.102 296.905 307.023C297.613 307.943 298.051 309.017 298.222 310.244H295.205C294.975 309.349 294.463 308.557 293.671 307.866C292.887 307.168 291.83 306.818 290.5 306.818C289.324 306.818 288.293 307.125 287.407 307.739C286.529 308.344 285.843 309.2 285.348 310.308C284.863 311.408 284.62 312.699 284.62 314.182C284.62 315.699 284.858 317.02 285.336 318.145C285.821 319.27 286.503 320.143 287.381 320.766C288.267 321.388 289.307 321.699 290.5 321.699C291.284 321.699 291.996 321.562 292.635 321.29C293.275 321.017 293.816 320.625 294.259 320.114C294.702 319.602 295.017 318.989 295.205 318.273H298.222C298.051 319.432 297.63 320.476 296.956 321.405C296.292 322.325 295.409 323.058 294.31 323.604C293.219 324.141 291.949 324.409 290.5 324.409ZM312.757 324V304.364H320.786C322.9 304.364 324.578 304.841 325.823 305.795C327.067 306.75 327.689 308.011 327.689 309.58C327.689 310.773 327.336 311.697 326.628 312.354C325.921 313.001 325.013 313.44 323.905 313.67C324.63 313.773 325.333 314.028 326.015 314.438C326.705 314.847 327.276 315.409 327.728 316.125C328.179 316.832 328.405 317.702 328.405 318.733C328.405 319.739 328.15 320.638 327.638 321.43C327.127 322.223 326.394 322.849 325.439 323.31C324.485 323.77 323.343 324 322.013 324H312.757ZM315.621 321.239H322.013C323.053 321.239 323.867 320.991 324.455 320.497C325.043 320.003 325.337 319.33 325.337 318.477C325.337 317.463 325.043 316.666 324.455 316.087C323.867 315.499 323.053 315.205 322.013 315.205H315.621V321.239ZM315.621 312.597H320.786C321.596 312.597 322.29 312.486 322.87 312.264C323.449 312.034 323.892 311.71 324.199 311.293C324.515 310.866 324.672 310.364 324.672 309.784C324.672 308.957 324.327 308.31 323.637 307.841C322.946 307.364 321.996 307.125 320.786 307.125H315.621V312.597ZM331.234 324V321.188H331.95C332.538 321.188 333.028 321.072 333.42 320.842C333.812 320.604 334.127 320.19 334.366 319.602C334.613 319.006 334.8 318.179 334.928 317.122C335.065 316.057 335.163 314.702 335.222 313.057L335.58 304.364H348.671V324H345.654V307.176H338.444L338.137 314.182C338.069 315.793 337.924 317.212 337.702 318.439C337.489 319.658 337.161 320.68 336.718 321.507C336.283 322.334 335.704 322.956 334.979 323.374C334.255 323.791 333.347 324 332.256 324H331.234ZM359.985 324.46C358.741 324.46 357.612 324.226 356.597 323.757C355.583 323.28 354.778 322.594 354.181 321.699C353.585 320.795 353.286 319.705 353.286 318.426C353.286 317.301 353.508 316.389 353.951 315.69C354.394 314.983 354.987 314.429 355.728 314.028C356.469 313.628 357.288 313.33 358.183 313.134C359.086 312.929 359.994 312.767 360.906 312.648C362.099 312.494 363.066 312.379 363.808 312.303C364.558 312.217 365.103 312.077 365.444 311.881C365.793 311.685 365.968 311.344 365.968 310.858V310.756C365.968 309.494 365.623 308.514 364.933 307.815C364.251 307.116 363.215 306.767 361.826 306.767C360.386 306.767 359.256 307.082 358.438 307.713C357.62 308.344 357.045 309.017 356.712 309.733L353.849 308.71C354.36 307.517 355.042 306.588 355.894 305.923C356.755 305.25 357.692 304.781 358.707 304.517C359.729 304.244 360.735 304.108 361.724 304.108C362.354 304.108 363.079 304.185 363.897 304.338C364.724 304.483 365.521 304.786 366.288 305.246C367.063 305.706 367.707 306.401 368.218 307.33C368.729 308.259 368.985 309.503 368.985 311.062V324H365.968V321.341H365.815C365.61 321.767 365.269 322.223 364.792 322.709C364.315 323.195 363.68 323.608 362.887 323.949C362.094 324.29 361.127 324.46 359.985 324.46ZM360.445 321.75C361.638 321.75 362.644 321.516 363.462 321.047C364.289 320.578 364.911 319.973 365.329 319.232C365.755 318.49 365.968 317.71 365.968 316.892V314.131C365.84 314.284 365.559 314.425 365.124 314.553C364.698 314.672 364.204 314.778 363.641 314.872C363.087 314.957 362.546 315.034 362.018 315.102C361.498 315.162 361.076 315.213 360.752 315.256C359.968 315.358 359.235 315.524 358.553 315.754C357.88 315.976 357.335 316.312 356.917 316.764C356.508 317.207 356.303 317.812 356.303 318.58C356.303 319.628 356.691 320.42 357.467 320.957C358.251 321.486 359.244 321.75 360.445 321.75ZM372.395 329.625V321.188H374.032C374.432 320.77 374.777 320.318 375.067 319.832C375.357 319.347 375.608 318.771 375.821 318.107C376.043 317.433 376.23 316.615 376.384 315.652C376.537 314.68 376.674 313.509 376.793 312.136L377.458 304.364H389.935V321.188H392.952V329.625H389.935V324H375.412V329.625H372.395ZM377.458 321.188H386.918V307.176H380.27L379.759 312.136C379.546 314.19 379.282 315.984 378.966 317.518C378.651 319.053 378.148 320.276 377.458 321.188ZM405.19 324.409C403.298 324.409 401.665 323.991 400.293 323.156C398.93 322.312 397.877 321.136 397.136 319.628C396.403 318.111 396.036 316.347 396.036 314.335C396.036 312.324 396.403 310.551 397.136 309.017C397.877 307.474 398.908 306.273 400.229 305.412C401.559 304.543 403.11 304.108 404.883 304.108C405.906 304.108 406.915 304.278 407.913 304.619C408.91 304.96 409.817 305.514 410.636 306.281C411.454 307.04 412.106 308.045 412.592 309.298C413.077 310.551 413.32 312.094 413.32 313.926V315.205H398.184V312.597H410.252C410.252 311.489 410.031 310.5 409.587 309.631C409.153 308.761 408.531 308.075 407.721 307.572C406.92 307.07 405.974 306.818 404.883 306.818C403.681 306.818 402.641 307.116 401.763 307.713C400.894 308.301 400.225 309.068 399.756 310.014C399.288 310.96 399.053 311.974 399.053 313.057V314.795C399.053 316.278 399.309 317.536 399.82 318.567C400.34 319.589 401.06 320.369 401.981 320.906C402.901 321.435 403.971 321.699 405.19 321.699C405.982 321.699 406.698 321.588 407.337 321.366C407.985 321.136 408.543 320.795 409.012 320.344C409.481 319.884 409.843 319.312 410.099 318.631L413.013 319.449C412.707 320.438 412.191 321.307 411.467 322.057C410.742 322.798 409.847 323.378 408.782 323.795C407.717 324.205 406.519 324.409 405.19 324.409ZM416.171 324V321.188H416.887C417.475 321.188 417.965 321.072 418.357 320.842C418.749 320.604 419.065 320.19 419.303 319.602C419.55 319.006 419.738 318.179 419.866 317.122C420.002 316.057 420.1 314.702 420.16 313.057L420.518 304.364H433.609V324H430.592V307.176H423.381L423.075 314.182C423.006 315.793 422.862 317.212 422.64 318.439C422.427 319.658 422.099 320.68 421.656 321.507C421.221 322.334 420.641 322.956 419.917 323.374C419.192 323.791 418.285 324 417.194 324H416.171ZM441.752 311.472H447.377C449.678 311.472 451.438 312.055 452.657 313.223C453.876 314.391 454.485 315.869 454.485 317.659C454.485 318.835 454.212 319.905 453.667 320.868C453.121 321.822 452.32 322.585 451.263 323.156C450.207 323.719 448.911 324 447.377 324H439.144V304.364H442.161V321.188H447.377C448.57 321.188 449.55 320.872 450.317 320.241C451.085 319.611 451.468 318.801 451.468 317.812C451.468 316.773 451.085 315.925 450.317 315.268C449.55 314.612 448.57 314.284 447.377 314.284H441.752V311.472ZM474.521 304.364V321.188H477.282V330.341H474.265V324H459.078V304.364H462.095V321.188H471.504V304.364H474.521ZM489.951 324.409C488.059 324.409 486.427 323.991 485.055 323.156C483.691 322.312 482.639 321.136 481.897 319.628C481.164 318.111 480.798 316.347 480.798 314.335C480.798 312.324 481.164 310.551 481.897 309.017C482.639 307.474 483.67 306.273 484.991 305.412C486.321 304.543 487.872 304.108 489.645 304.108C490.667 304.108 491.677 304.278 492.674 304.619C493.672 304.96 494.579 305.514 495.397 306.281C496.216 307.04 496.868 308.045 497.353 309.298C497.839 310.551 498.082 312.094 498.082 313.926V315.205H482.946V312.597H495.014C495.014 311.489 494.792 310.5 494.349 309.631C493.914 308.761 493.292 308.075 492.483 307.572C491.681 307.07 490.735 306.818 489.645 306.818C488.443 306.818 487.403 307.116 486.525 307.713C485.656 308.301 484.987 309.068 484.518 310.014C484.049 310.96 483.815 311.974 483.815 313.057V314.795C483.815 316.278 484.071 317.536 484.582 318.567C485.102 319.589 485.822 320.369 486.743 320.906C487.663 321.435 488.733 321.699 489.951 321.699C490.744 321.699 491.46 321.588 492.099 321.366C492.747 321.136 493.305 320.795 493.774 320.344C494.243 319.884 494.605 319.312 494.86 318.631L497.775 319.449C497.468 320.438 496.953 321.307 496.228 322.057C495.504 322.798 494.609 323.378 493.544 323.795C492.478 324.205 491.281 324.409 489.951 324.409ZM513.41 319.909L520.262 304.364H523.126L514.637 324H512.183L503.848 304.364H506.66L513.41 319.909ZM505.689 304.364V324H502.672V304.364H505.689ZM521.132 324V304.364H524.149V324H521.132Z" fill="black"/>
<circle cx="102" cy="141" r="75" fill="#9D3F3F"/>
<path d="M81.9541 192.985H81.9551C85.2233 192.893 88.5126 192.377 91.7314 191.454C98.746 189.445 106.158 189.445 113.173 191.454L113.777 191.623C116.803 192.441 119.886 192.899 122.949 192.985L123.879 192.999C128.468 193.001 132.211 192.03 135.206 189.949C140.663 186.159 143.311 178.271 141.479 171.559C139.845 165.576 135.442 161.529 131.447 157.826C130.902 157.319 130.343 156.803 129.811 156.297L129.81 156.296C125.772 152.468 122.083 148.151 118.846 143.468L118.845 143.467C118.434 142.874 118.02 142.26 117.616 141.659C116.076 139.368 114.423 136.909 112.38 134.813L112.381 134.812L112.309 134.737L112.304 134.732C109.701 132.092 106.199 130.64 102.452 130.64C98.7081 130.64 95.205 132.091 92.6045 134.73L92.5303 134.805L92.5244 134.811C90.4804 136.907 88.8287 139.368 87.2881 141.659C86.8842 142.26 86.4704 142.874 86.0596 143.467L86.0586 143.468C82.8216 148.152 79.1322 152.468 75.0947 156.296C74.5599 156.803 74.0011 157.321 73.4561 157.826C69.461 161.529 65.0598 165.576 63.4258 171.559C61.5933 178.271 64.2414 186.159 69.6982 189.949C72.6885 192.026 76.4227 193 81.001 193C81.3161 193 81.6345 192.994 81.9541 192.985ZM123.075 188.552C120.362 188.474 117.626 188.068 114.933 187.34L114.395 187.19C106.826 185.021 98.8382 184.952 91.2432 186.986L90.5098 187.19C87.6437 188.013 84.7221 188.469 81.8291 188.552C77.6169 188.671 74.5185 187.897 72.2275 186.306C68.3333 183.601 66.3333 177.749 67.7041 172.728C68.9793 168.06 72.6455 164.625 76.4707 161.08C77.0191 160.571 77.5924 160.041 78.1465 159.516C82.4081 155.475 86.2972 150.925 89.7061 145.992L90.9668 144.136L90.9678 144.135C92.3732 142.044 93.7718 139.971 95.376 138.249L95.6992 137.909L95.7021 137.906L95.7666 137.841H95.7656C97.5228 136.06 99.8922 135.076 102.452 135.076C105.015 135.076 107.386 136.062 109.144 137.847L109.204 137.908L109.205 137.909C110.946 139.694 112.437 141.905 113.937 144.135V144.136C114.343 144.739 114.769 145.373 115.197 145.992C118.606 150.925 122.497 155.475 126.758 159.516V159.516C127.313 160.041 127.885 160.571 128.433 161.08L129.855 162.407C133.137 165.503 136.084 168.643 137.2 172.728C138.57 177.75 136.57 183.601 132.677 186.306C130.528 187.797 127.67 188.572 123.852 188.563L123.075 188.552Z" fill="white" stroke="white" stroke-width="2"/>
<path d="M86.8652 130.087C87.4149 130.087 87.9748 130.06 88.5381 130.008C92.921 129.599 96.2542 127.69 98.2783 124.27C100.132 121.142 100.791 116.986 100.422 111.719L100.335 110.65C99.7867 104.781 98.2435 99.7016 95.8057 96.0077C93.1128 91.9268 89.4564 89.7758 85.2236 90.0184L84.8115 90.0497C80.5639 90.4474 76.9075 93.1234 74.418 97.4052L74.1807 97.8241C71.78 102.185 70.7774 107.704 71.3047 113.359C71.824 118.927 73.7706 123.497 77.0566 126.453C79.7256 128.854 83.1044 130.087 86.8652 130.087ZM88.127 125.591C84.8835 125.893 82.1054 125.027 80.0234 123.154C77.6895 121.054 76.1532 117.574 75.7217 112.948C75.2698 108.102 76.123 103.494 78.0664 99.9637C79.9303 96.5786 82.4985 94.7235 85.2207 94.4677H85.2217C85.4412 94.4476 85.6516 94.4364 85.8584 94.4364C88.1687 94.4365 90.2704 95.6755 92.1045 98.452C94.0532 101.407 95.4339 105.872 95.918 111.062C96.3851 116.066 95.8324 119.696 94.4619 122.009V122.01C93.2226 124.103 91.2201 125.302 88.127 125.591Z" fill="white" stroke="white" stroke-width="2"/>
<path d="M63.7285 149.912C65.8796 149.912 68.0551 149.379 70.1709 148.343C73.8379 146.547 76.1085 143.788 76.7441 140.143C77.3613 136.601 76.419 132.51 74.0732 127.717L74.0742 127.716C71.6941 122.851 68.7097 118.981 65.4004 116.592C61.725 113.939 57.8338 113.27 54.2246 114.881L53.876 115.044C50.1967 116.846 47.8722 120.548 47.1992 125.281C46.5528 129.828 47.4906 134.912 49.7891 139.608C52.0547 144.238 55.2331 147.55 59.0508 149.032C60.5619 149.619 62.1328 149.912 63.7285 149.912ZM68.2197 144.359C65.7543 145.566 63.3136 145.778 61.0957 145.054L60.6553 144.897C58.0315 143.878 55.6237 141.437 53.7734 137.656C51.8328 133.691 51.078 129.514 51.5908 125.906L51.6953 125.273C52.2792 122.169 53.782 120.03 55.8262 119.028C56.6188 118.64 57.4212 118.453 58.2393 118.453C59.6208 118.453 61.1435 118.99 62.8047 120.19C65.4 122.063 68.0061 125.407 70.0898 129.666C72.0971 133.767 72.7885 137.009 72.375 139.381C72.0046 141.505 70.7215 143.133 68.2197 144.359Z" fill="white" stroke="white" stroke-width="2"/>
<path d="M118.041 130.087C121.801 130.087 125.18 128.855 127.849 126.454C131.136 123.498 133.082 118.928 133.602 113.36C134.13 107.705 133.126 102.185 130.727 97.8241C128.313 93.4395 124.714 90.6385 120.505 90.0946L120.096 90.0497C115.688 89.6392 111.881 91.7951 109.102 96.0077C106.816 99.4709 105.317 104.151 104.687 109.559L104.572 110.65C104.034 116.428 104.651 120.933 106.629 124.27C108.653 127.69 111.986 129.598 116.369 130.007C116.932 130.059 117.492 130.087 118.041 130.087ZM124.486 123.494C122.454 125.131 119.822 125.875 116.78 125.591C113.687 125.302 111.685 124.103 110.445 122.01V122.009C109.076 119.696 108.522 116.065 108.989 111.062C109.473 105.872 110.854 101.407 112.803 98.452C114.637 95.6742 116.738 94.4365 119.049 94.4364C119.151 94.4364 119.256 94.4391 119.362 94.4442L119.685 94.4677C122.408 94.7229 124.977 96.5781 126.841 99.9637C128.784 103.494 129.637 108.102 129.185 112.948C128.754 117.573 127.218 121.054 124.885 123.154L124.486 123.494Z" fill="white" stroke="white" stroke-width="2"/>
<path d="M141.177 149.912C142.772 149.912 144.344 149.619 145.854 149.032C149.672 147.55 152.85 144.237 155.116 139.608C157.414 134.912 158.351 129.828 157.706 125.281C157.054 120.696 154.852 117.079 151.37 115.219L151.029 115.044C147.323 113.229 143.299 113.853 139.504 116.592V116.593C136.195 118.982 133.211 122.85 130.831 127.715C128.485 132.508 127.543 136.601 128.161 140.143L128.226 140.482C128.939 143.96 131.182 146.603 134.734 148.343C136.851 149.379 139.025 149.912 141.177 149.912ZM144.249 144.897C141.917 145.802 139.316 145.647 136.687 144.359H136.686C134.184 143.133 132.902 141.505 132.531 139.381C132.118 137.009 132.809 133.767 134.816 129.666V129.665C136.77 125.673 139.181 122.484 141.614 120.558L142.102 120.19C143.762 118.99 145.283 118.453 146.666 118.453C147.483 118.453 148.287 118.641 149.079 119.028L149.282 119.133C151.356 120.246 152.84 122.567 153.314 125.906C153.827 129.514 153.073 133.692 151.132 137.656V137.657C149.283 141.438 146.874 143.878 144.25 144.897H144.249Z" fill="white" stroke="white" stroke-width="2"/>
</svg>
