<svg width="720" height="180" viewBox="0 0 720 180" fill="none" xmlns="http://www.w3.org/2000/svg">
<rect width="720" height="180" fill="#FEBDBD"/>
<rect x="46" y="62" width="57" height="13" fill="#9D3F3F"/>
<rect x="46" y="82" width="57" height="13" fill="#9D3F3F"/>
<rect x="46" y="102" width="57" height="13" fill="#9D3F3F"/>
<path d="M527 117C530.688 117 533.737 114.534 534.247 111.325H519.754C520.264 114.534 523.314 117 527 117Z" fill="#9D3F3F"/>
<path d="M552.3 105.814C550.244 104.694 544.369 100.8 544.369 92.8811V83.5431C544.369 79.2018 542.424 75.2707 539.282 72.4266C536.121 69.5655 531.747 67.8017 526.918 67.8217C517.342 67.8617 509.631 74.9642 509.631 83.6327V92.8811C509.631 100.8 503.756 104.694 501.7 105.814C501.265 106.051 501 106.477 501 106.936V108.73C501 109.454 501.648 110.041 502.448 110.041H551.553C552.352 110.041 553 109.454 553 108.73V106.936C553 106.477 552.735 106.051 552.3 105.814Z" fill="#9D3F3F"/>
<path d="M527.001 66.538C528.87 66.538 530.699 66.784 532.441 67.2583C531.542 65.3435 529.444 64 527.001 64C524.554 64 522.455 65.3458 521.559 67.2644C523.274 66.7931 525.073 66.5457 526.913 66.538H527.001Z" fill="#9D3F3F"/>
<circle cx="635" cy="90" r="43" fill="#9D3F3F"/>
<path d="M635.115 65C645.483 65 653.916 73.357 653.916 83.6309C653.916 90.1081 650.56 95.818 645.484 99.1582C655.155 102.694 662.515 110.998 664.6 121.188C663.183 122.532 661.674 123.78 660.085 124.924C658.967 112.243 648.197 102.262 635.115 102.262C621.979 102.262 611.172 112.326 610.13 125.082C608.533 123.948 607.019 122.706 605.594 121.37C607.627 111.097 615.018 102.715 624.746 99.1582C619.671 95.818 616.314 90.1081 616.314 83.6309C616.315 73.357 624.748 65 635.115 65ZM635.115 69.9688C627.513 69.9688 621.328 76.098 621.328 83.6309C621.328 91.1647 627.513 97.2939 635.115 97.2939C642.718 97.2939 648.902 91.1647 648.902 83.6309C648.902 76.098 642.718 69.9688 635.115 69.9688Z" fill="white"/>
<path d="M340.902 34.0489C348.098 34.0866 351.65 39.3731 354.617 45.107C358.61 35.9457 369.027 28.7018 376.867 39.1322C380.18 43.5402 380.682 49.8831 379.665 55.2465C382.906 52.2831 388.867 50.7101 392.917 52.5957C400.266 56.0166 400.541 66.0672 397.56 72.5185C395.203 77.6206 391.279 81.9434 386.049 83.9667C388.389 87.0734 390.223 89.7921 391.12 93.7012C392.207 98.2977 391.389 103.138 388.853 107.122C386.017 111.588 381.718 114.82 376.53 115.967C370.088 117.132 367.238 114.917 361.594 113.256C359.243 112.588 356.811 112.247 354.367 112.243C347.606 112.253 343.373 115.351 337.131 116.189C327.768 117.446 318.132 109.101 317.446 99.7554C316.978 93.3873 318.882 88.7684 322.927 83.8938C316.72 80.2938 312.158 75.4937 310.701 68.2408C309.337 61.4464 311.583 53.4748 319.233 52.0395C323.232 51.2894 325.981 52.2998 329.267 54.522C329.211 54.1358 329.166 53.7477 329.133 53.3588C328.434 45.4281 331.608 34.7869 340.902 34.0489Z" fill="#671414"/>
<path d="M353.508 64.5477C354.133 64.4805 355.161 64.5227 355.792 64.5604C362.787 64.9761 368.903 68.7984 372.973 74.394C374.09 75.9513 374.837 77.7106 376.077 79.1874C377.269 80.607 378.511 81.9428 379.855 83.2204C381.042 84.3482 382.276 85.4649 383.354 86.6965C386.183 89.9302 388.053 94.7726 387.739 99.0787C387.458 102.921 385.066 106.742 382.205 109.202C378.448 112.434 373.389 113.684 368.647 112.086C366.707 111.432 364.897 110.401 362.877 109.777C360.366 109.001 358.385 108.746 355.818 108.548C353.425 108.521 347.416 108.669 345.419 109.696C338.538 113.232 333.121 114.344 326.478 109.102C318.734 102.991 319.957 91.9644 326.554 85.3712C328.177 83.749 330.064 82.4132 331.501 80.5958C333.485 78.2556 334.968 75.7247 336.836 73.3154C341.561 67.8403 346.328 65.1192 353.508 64.5477Z" fill="white"/>
<path d="M346.444 71.1679C346.542 71.1629 346.638 71.1587 346.735 71.1555C349.858 71.0668 353.145 71.1532 356.256 71.139C363.855 71.1039 363.707 70.1486 363.672 77.6439C365.753 77.6347 372.468 77.1555 373.954 78.3437C374.58 78.8445 374.977 79.623 375.058 80.4154C375.197 81.7645 375.101 83.2091 375.1 84.5667L375.107 91.9317L375.127 100.263C375.133 103.176 375.992 106.977 372.115 107.152L372.105 108.888L364.644 108.843L364.626 107.026L362.726 107.036L344.425 107.06L344.433 108.842C341.985 108.843 339.536 108.82 337.087 108.773C337.077 108.537 337.028 107.228 336.922 107.136C336.24 106.679 335.372 106.974 334.754 106.269C334.019 105.423 334.128 104.226 334.125 103.179C334.121 101.26 334.125 99.3386 334.123 97.4195L334.045 82.7539C334.046 82.1418 334.062 81.5169 334.084 80.9197C334.231 76.9346 338.077 77.6304 340.87 77.6205C342.334 77.6155 343.769 77.6392 345.204 77.6489C345.19 75.9121 345.156 74.1741 345.23 72.4393C345.619 71.7731 345.778 71.5509 346.444 71.1679Z" fill="#671414"/>
<path d="M351.684 84.1342C353.775 84.1184 355.967 84.0698 358.048 84.1451L358.059 89.3197L363.017 89.337C363.031 91.5919 363.033 93.8465 363.023 96.1013L358.101 96.0832C358.078 97.1089 358.128 100.414 357.993 101.143L357.795 101.261L351.222 101.327L351.22 96.11C349.571 96.0914 347.891 96.1083 346.239 96.1078L346.227 89.2969L351.163 89.2942C351.22 88.2093 351.044 84.9075 351.311 84.2243L351.684 84.1342Z" fill="white"/>
<path d="M348.338 74.4993C352.308 74.4145 356.961 74.4306 360.919 74.5081L360.928 77.7858C356.74 77.7692 352.519 77.8317 348.336 77.786C348.322 76.6904 348.323 75.5947 348.338 74.4993Z" fill="white"/>
<path d="M367.605 37.8723C373.063 37.4275 376.305 45.0952 376.297 49.5611C376.285 56.3663 373.772 63.6382 365.916 63.7825C360.684 63.2648 357.863 60.0628 357.258 54.8869C356.711 50.1839 358.062 45.4571 361.011 41.753C362.647 39.6994 364.965 38.1745 367.605 37.8723Z" fill="white"/>
<path d="M340.532 37.963C346.213 37.3155 350.766 44.2147 351.547 49.1185C352.54 55.3571 351.306 62.3049 344.173 63.65C329.753 65.7428 329.9 39.9224 340.532 37.963Z" fill="white"/>
<path d="M387.963 55.5477C388.082 55.5359 388.202 55.5289 388.322 55.5264C393.511 55.4398 395.469 60.13 395.446 64.6224C395.452 69.0407 393.686 73.2771 390.545 76.3842C388.412 78.4915 386.187 79.7208 383.175 79.7173C381.734 79.6553 380.125 78.9472 378.993 78.0831C373.783 74.1072 375.496 65.7304 378.978 61.2087C381.092 58.4625 384.459 55.9984 387.963 55.5477Z" fill="white"/>
<path d="M319.996 55.7317C321.631 55.6031 323.537 55.7483 325.061 56.4777C331.233 59.4324 335.937 68.1289 333.042 74.7622C331.991 77.1703 330.374 78.4081 328.018 79.3177C325.607 79.9555 323.727 79.6594 321.506 78.3182C315.212 74.5178 312.244 65.1335 315.672 58.5494C316.488 56.9818 318.309 56.1297 319.996 55.7317Z" fill="white"/>
<path fill-rule="evenodd" clip-rule="evenodd" d="M326.575 116.469C330.646 116.529 335.05 116.479 338.268 119.418C341.3 122.043 342.421 127.665 339.424 130.739C336.499 133.74 331.16 134.51 327.19 134.561C327.181 137.918 326.727 143.077 329.387 145.455C329.487 145.545 329.47 145.69 329.452 145.801C328.998 145.886 328.07 145.847 327.57 145.84C326.677 145.825 325.783 145.816 324.89 145.813L320.5 145.806C319.842 145.806 318.628 145.844 318.014 145.777C317.905 145.65 317.869 145.303 318.02 145.199C319.609 144.104 319.917 142.198 320.128 140.404C320.315 137.829 320.197 134.287 320.199 131.604L320.197 125.661C320.196 123.655 320.484 119.036 318.939 117.643C314.726 118.929 314.037 124.176 316.565 127.308C317.047 127.906 317.867 128.784 318.035 129.484L318.053 129.563C317.647 131.2 316.2 131.715 314.717 131.76C307.152 131.99 305.873 123.603 311.409 119.53C314.886 116.972 318.106 116.615 322.168 116.493C323.585 116.421 325.153 116.459 326.575 116.469ZM329.16 117.29C327.981 119.022 328.204 122.965 328.196 125.087L328.164 133.673C329.493 133.47 330.489 132.968 331.464 131.953C333.207 130.071 334.073 127.68 334.044 125.04C334.019 122.809 333.46 120.5 331.925 118.896C331.113 118.046 330.221 117.649 329.16 117.29Z" fill="#671414"/>
<path d="M397.471 123.193C398.216 123.138 399.04 123.168 399.725 123.492C400.345 123.778 400.822 124.306 401.045 124.955C401.749 127 400.524 130.088 399.8 132.021C399.214 133.583 398.591 135.136 397.94 136.671C397.255 138.284 396.676 139.942 395.903 141.518C395.05 143.265 394.159 145.311 392.172 145.977C390.865 146.427 389.069 146.336 387.849 145.702C385.7 144.586 385.241 142.621 384.615 140.519C384.314 139.487 383.995 138.461 383.658 137.442C382.483 139.597 381.835 142.239 380.557 144.26C378.962 146.785 374.587 146.922 372.627 144.753C371.414 143.41 371.169 142.185 370.637 140.513C370.406 139.809 370.164 139.109 369.912 138.412C368.971 135.764 365.478 126.452 363.518 125.004L363.449 124.955L363.482 124.033C364.333 124.009 365.22 124.027 366.074 124.033C368.864 124.055 371.577 123.916 374.343 123.547L374.947 123.465C374.536 124.434 373.952 125.748 374.278 126.835C374.908 128.941 375.886 130.945 376.667 133.002L378.775 138.601C379.046 139.335 379.632 141.074 379.956 141.701C380.946 139.705 382.674 136.164 382.33 133.952C382.147 132.777 379.675 127.116 378.969 126.013C378.633 125.488 378.278 125.112 377.779 124.743C377.759 124.507 377.767 124.245 377.768 124.006C381.709 124.092 384.886 124.085 388.829 123.49C388.752 123.643 388.677 123.797 388.606 123.953C387.55 126.237 388.46 127.828 389.329 130.012L390.782 133.673C391.85 136.438 392.881 139.218 393.874 142.011C396.691 136.55 397.972 128.877 392.445 124.605C394.153 123.887 395.598 123.369 397.471 123.193Z" fill="#671414"/>
<path fill-rule="evenodd" clip-rule="evenodd" d="M353.06 123.205C355.381 122.99 358.314 123.787 360.107 125.183C363.187 127.581 363.241 130.776 363.235 134.262C363.231 136.951 362.775 142.728 365.126 144.527L365.129 145.258L355.284 145.273C355.341 144.028 355.465 143.063 355.64 141.833C354.148 143.543 353.128 145.11 350.733 145.627C346.984 146.436 343.533 145.115 342.58 141.287C342.327 140.004 342.432 138.676 342.885 137.446C344.617 132.843 350.592 131.885 354.678 130.425C356.684 129.42 355.545 124.966 353.606 124.442C352.789 124.231 352.004 124.735 351.779 125.516C351.37 126.936 351.832 127.996 352.611 129.162C350.734 129.962 348.953 130.937 347.143 131.866C346.58 132.156 345.75 132.404 345.236 131.878C343.685 130.289 344.213 127.648 345.633 126.151C347.543 124.071 350.297 123.366 353.06 123.205ZM355.373 131.572C353.162 133.332 350.815 135.417 350.465 138.391C350.329 139.545 350.539 140.561 351.306 141.457C351.83 141.905 352.29 142.118 353.002 142.067C354.611 141.951 355.106 140.039 355.297 138.727C355.545 137.021 355.446 135.269 355.455 133.549C355.457 133.211 355.478 131.755 355.373 131.572Z" fill="#671414"/>
</svg>
