<svg width="54" height="54" viewBox="0 0 54 54" fill="none" xmlns="http://www.w3.org/2000/svg">
<path d="M26.9988 3.47434C14.028 3.47434 3.47431 14.0282 3.47431 26.9991C3.47431 39.9719 14.028 50.5257 26.9988 50.5257C31.5814 50.5257 36.0216 49.2078 39.841 46.7148C40.2348 46.4578 40.7154 46.3713 41.174 46.4751L48.0253 48.0258L46.4746 41.1741C46.3704 40.7155 46.4573 40.2346 46.7144 39.8409C49.2078 36.0222 50.5257 31.5818 50.5257 26.9991C50.5257 14.0282 39.9719 3.47434 26.9988 3.47434ZM26.9988 54C19.7873 54 13.0077 51.1916 7.908 46.0919C2.8084 40.9922 0 34.2118 0 26.9991C0 19.7875 2.8084 13.0079 7.908 7.90874C13.0077 2.80842 19.7873 0 26.9988 0C34.2115 0 40.9922 2.80842 46.0913 7.90759C51.1916 13.0079 54 19.7875 54 26.9991C54 32.0084 52.6265 36.8705 50.0219 41.1104L52.022 49.9444C52.1528 50.526 51.978 51.1346 51.5552 51.5563C51.1337 51.9779 50.5257 52.1538 49.9443 52.0222L41.1103 50.0228C36.8705 52.6273 32.0076 54 26.9988 54Z" fill="#671414"/>
</svg>
