<svg width="72" height="56" viewBox="0 0 72 56" fill="none" xmlns="http://www.w3.org/2000/svg">
<path fill-rule="evenodd" clip-rule="evenodd" d="M39.6027 12.3803C42.568 7.02375 48.3516 0.954624 54.784 1.39589C63.6442 2.00378 70.4513 8.34221 69.9584 15.5282C69.916 16.1453 69.8112 16.7656 69.6389 17.4228C69.5217 17.9479 68.6544 21.3191 64.8172 26.9768C59.7236 34.4876 51.8575 42.5702 41.437 50.9978L38.0124 53.7677C37.9821 53.7913 37.9516 53.815 37.92 53.8357L37.6458 54.0249C37.3694 54.2157 37.0444 54.2996 36.7284 54.2824L36.9652 50.8337L39.5773 48.7229C63.9192 29.0353 66.6604 17.2693 66.7657 16.7743C66.7701 16.7531 66.7751 16.7302 66.781 16.7078C66.91 16.2188 66.9874 15.7675 67.0177 15.3264C67.3998 9.75463 61.8202 4.8165 54.5831 4.32003C49.8904 3.99822 45.3271 8.63039 42.7037 12.9249L42.6949 12.9201L39.5316 18.1836C39.4249 18.2001 39.3152 18.2069 39.2036 18.1993L39.6027 12.3803Z" fill="#671414"/>
<path d="M38.1719 49.9871L36.8875 40.184L44.3348 31.4227L35.2787 22.2507L40.6504 13.4866" stroke="#671414" stroke-width="3" stroke-linecap="square" stroke-linejoin="round"/>
<path fill-rule="evenodd" clip-rule="evenodd" d="M17.1382 1.96373C23.5725 1.55581 29.3244 7.65528 32.2621 13.0269L32.5656 17.8214L31.9597 18.7324C31.5641 18.5641 31.2496 18.2284 31.1234 17.7964C29.7817 13.2031 23.6944 4.48661 17.3239 4.89028C10.0848 5.34957 4.47977 10.2575 4.83274 15.8308C4.86073 16.272 4.93596 16.7242 5.06244 17.2138C5.06815 17.2363 5.07297 17.2593 5.07718 17.2805C5.17988 17.7757 7.85975 29.5558 32.0996 49.3688L34.659 51.4586L34.7734 52.6273L34.9203 54.9439C34.6044 54.9593 34.2801 54.8728 34.0048 54.6807L33.7309 54.4905C33.6996 54.4698 33.6691 54.4456 33.6391 54.4219L30.2285 51.6342C19.8521 43.1533 12.0276 35.0307 6.97292 27.494C3.16457 21.816 2.31467 18.4393 2.20034 17.9142C2.03143 17.2563 1.92972 16.6355 1.89054 16.0183C1.43484 8.82999 8.27516 2.52601 17.1382 1.96373Z" fill="#671414"/>
<path fill-rule="evenodd" clip-rule="evenodd" d="M33.3121 16.6906L28.7762 23.5548L36.8312 32.0375C37.3666 32.6014 37.3825 33.4809 36.8677 34.0636L29.9279 41.9135L34.2649 50.3928L34.6256 51.0998L34.6986 51.8567L32.2766 53.0951L31.5941 51.7598L26.7927 42.369C26.512 41.8199 26.5951 41.154 27.0034 40.6919L33.7093 33.1065L25.7785 24.7582C25.2977 24.252 25.2308 23.48 25.6157 22.8975L31.6616 13.7456L32.2247 12.8926L33.3121 16.6906Z" fill="#671414"/>
</svg>
