<svg width="69" height="54" viewBox="0 0 69 54" fill="none" xmlns="http://www.w3.org/2000/svg">
<path d="M15.2686 0.590088C21.6613 0.184805 27.3792 6.2041 30.334 11.55L30.3555 11.5188L31.4414 15.3186L30.6953 16.4465L30.6963 16.4485L30.585 16.6155L26.9072 22.1819L34.9619 30.6643C35.4968 31.2281 35.5125 32.1081 34.998 32.6907L28.0586 40.5403L32.3945 49.0198L32.7549 49.7268L32.7891 50.0842L32.79 50.0852L32.9043 51.2542L33.0508 53.5706C32.7351 53.5858 32.4108 53.4988 32.1357 53.3069L31.8613 53.1174C31.8302 53.0967 31.7995 53.0717 31.7695 53.0481L28.3594 50.261C17.9831 41.7802 10.1582 33.657 5.10352 26.1204C1.29743 20.4457 0.44612 17.0692 0.331055 16.5413C0.162184 15.8836 0.0606822 15.2619 0.0214844 14.6448C-0.0319745 13.8013 0.0153866 12.9697 0.154297 12.1584C0.161297 12.117 0.168724 12.0756 0.176758 12.0344C1.28459 5.98874 7.49888 1.0832 15.2686 0.590088ZM38.29 10.052C41.3864 4.95636 46.8645 -0.392499 52.917 0.0227051C55.4658 0.197611 57.8446 0.846619 59.9287 1.85376C59.9977 1.8735 60.0678 1.89511 60.1387 1.91821L60.4512 2.02954L60.6572 2.1145C61.3946 2.43653 61.9667 2.87598 62.4014 3.31177C66.1247 5.95854 68.3819 9.90879 68.0908 14.1545C68.0484 14.7715 67.9438 15.3931 67.7715 16.05C67.6534 16.5786 66.7849 19.9498 62.9502 25.6038C57.8566 33.1145 49.9898 41.1968 39.5693 49.6243L36.1455 52.3948C36.1153 52.4183 36.0841 52.4416 36.0527 52.4622L35.7783 52.6516C35.502 52.8422 35.1772 52.9265 34.8613 52.9094L35.04 50.2903L35.0107 50.2952L33.5322 39.0051C33.4774 38.5855 33.602 38.1617 33.876 37.8391L40.4326 30.1243L32.3428 21.9309C31.8584 21.44 31.7716 20.6811 32.1318 20.093L38.2871 10.05L38.29 10.052Z" fill="#671414"/>
</svg>
