<svg width="61" height="54" viewBox="0 0 61 54" fill="none" xmlns="http://www.w3.org/2000/svg">
<path d="M16.1065 2.93175C22.4901 2.93175 28.0134 12.0169 29.0614 16.6858C29.2116 17.3549 29.8092 17.8316 30.5007 17.8316C31.1893 17.8316 31.787 17.3549 31.9386 16.6858C32.9852 12.0169 38.5099 2.93175 44.8921 2.93175C52.1492 2.93175 58.0521 7.47575 58.0521 13.0607C58.0521 13.5057 58.0045 13.9695 57.8991 14.5179C57.8948 14.5395 57.8904 14.5682 57.8861 14.5897C57.8702 14.7103 55.904 26.944 32.9607 48.2572L30.5007 50.5428L28.0379 48.2572C5.09744 26.9469 3.17162 15.0204 3.10088 14.5222C3.098 14.5007 3.09372 14.4777 3.08939 14.4548C2.99411 13.958 2.94792 13.5029 2.94792 13.0607C2.94792 7.47575 8.85229 2.93175 16.1065 2.93175ZM26.0269 50.3992L29.2534 53.397C29.2823 53.4228 29.3112 53.4487 29.3415 53.4717L29.6028 53.6784C29.8713 53.8923 30.1976 54 30.521 54C30.8876 54 31.2529 53.8636 31.5373 53.5951L34.9731 50.3992C58.2759 28.7544 60.6507 16.0097 60.8008 15.0334C60.9365 14.3126 61 13.6852 61 13.0607C61 5.8577 53.7733 0 44.8921 0C38.4449 0 33.0906 6.45354 30.5007 12.0011C27.9095 6.45354 22.5551 0 16.1065 0C7.22534 0 0 5.8577 0 13.0607C0 13.6795 0.0620839 14.3054 0.189122 14.973C0.269964 15.5043 0.903717 18.927 4.3453 24.8349C8.91289 32.6768 16.2075 41.2781 26.0269 50.3992Z" fill="#671414"/>
</svg>
