<svg width="61" height="54" viewBox="0 0 61 54" fill="none" xmlns="http://www.w3.org/2000/svg">
<path d="M44.6465 0C53.4788 8.49967e-05 60.6658 5.8577 60.666 13.0605C60.666 13.685 60.6027 14.3126 60.4678 15.0332C60.3185 16.0095 57.9564 28.7544 34.7812 50.3994L31.3643 53.5957C31.0814 53.8641 30.7181 54.001 30.3535 54.001C30.032 54.0009 29.7074 53.8926 29.4404 53.6787L29.1807 53.4727C29.1505 53.4497 29.1215 53.4233 29.0928 53.3975L25.8848 50.3994C16.1191 41.2782 8.86387 32.6769 4.32129 24.835C0.899621 18.9287 0.269142 15.5062 0.188477 14.9736C0.0690874 14.3428 0.00838342 13.7487 0.00195312 13.1631L0 13.1611L0.00195312 13.1582C0.00161354 13.1257 0 13.093 0 13.0605C0.000210567 5.85764 7.1862 0 16.0186 0C22.4317 0.00019982 27.7569 6.45345 30.334 12.001C32.9097 6.45341 38.2348 0 44.6465 0Z" fill="#F64646"/>
</svg>
