<svg width="60" height="60" viewBox="0 0 60 60" fill="none" xmlns="http://www.w3.org/2000/svg">
<path d="M29.9998 51.8215C17.9476 51.8215 8.17956 42.0513 8.17956 29.9996C8.17956 17.9486 17.9476 8.17844 29.9998 8.17844C42.052 8.17844 51.8217 17.9486 51.8217 29.9996C51.8217 42.0513 42.052 51.8215 29.9998 51.8215ZM59.2797 23.4369C58.4844 19.8705 57.0525 16.542 55.1117 13.5793C54.5061 12.6547 53.8514 11.7666 53.1493 10.9173C48.2618 4.99486 41.1454 0.979557 33.0853 0.155434C32.0717 0.052784 31.0418 0 29.9998 0C13.4319 0 0 13.4316 0 29.9996C0 31.0418 0.0527939 32.0706 0.156219 33.0854C0.979567 41.1463 4.99486 48.2615 10.9174 53.1494C11.7662 53.851 12.6556 54.5054 13.5794 55.1106C16.5416 57.0522 19.8703 58.4842 23.4372 59.2794C25.5497 59.7516 27.745 60 29.9998 60C46.5685 60 60 46.569 60 29.9996C60 27.745 59.7516 25.5494 59.2797 23.4369Z" fill="#D70004"/>
<path d="M33.2564 19.7827L32.7785 31.8639C32.7489 32.6098 32.4269 33.2783 31.9266 33.7597C31.4256 34.241 30.7455 34.5358 29.9991 34.5358C28.5055 34.5358 27.2789 33.3564 27.2197 31.8639L26.7411 19.7827C26.6675 17.9326 28.1475 16.3936 29.9991 16.3936C31.8499 16.3936 33.3299 17.9326 33.2564 19.7827ZM29.9991 43.6066C28.2306 43.6066 26.797 42.1731 26.797 40.4054C26.797 38.637 28.2306 37.2036 29.9991 37.2036C31.7668 37.2036 33.2004 38.637 33.2004 40.4054C33.2004 42.1731 31.7668 43.6066 29.9991 43.6066ZM29.9991 10.3453C19.1437 10.3453 10.3438 19.145 10.3438 30.0004C10.3438 40.8551 19.1437 49.6549 29.9991 49.6549C40.8537 49.6549 49.6537 40.8551 49.6537 30.0004C49.6537 19.145 40.8537 10.3453 29.9991 10.3453Z" fill="#D70004"/>
</svg>
