<svg width="40" height="26" viewBox="0 0 40 26" fill="none" xmlns="http://www.w3.org/2000/svg">
<path d="M20.1326 7.46059C22.8548 7.46059 25.062 9.69745 25.062 12.4565C25.062 15.2149 22.8548 17.4524 20.1326 17.4524C17.4097 17.4524 15.2031 15.2149 15.2031 12.4565C15.2031 9.69745 17.4097 7.46059 20.1326 7.46059Z" fill="#FFEFEF"/>
<path d="M25.1295 12.4565C25.1295 9.72574 22.9309 7.46057 20.2001 7.46057C17.4687 7.46057 15.2707 9.72574 15.2707 12.4565C15.2707 15.1879 17.4687 17.4524 20.2001 17.4524C22.9309 17.4524 25.1295 15.1879 25.1295 12.4565ZM20.7993 0.799368C26.8614 1.13256 31.7243 6.19496 31.7243 12.4565C31.7243 18.718 26.8614 23.7797 20.7993 24.1129H20.7328C20.5333 24.1129 20.2666 24.1129 20.0671 24.1129C13.7383 24.0471 8.60938 18.851 8.60938 12.4565C8.60938 6.06129 13.7383 0.865873 20.0671 0.799368C20.2666 0.799368 20.5333 0.799368 20.7328 0.799368C20.7328 0.799368 20.7328 0.799368 20.7993 0.799368Z" fill="#EFA8A8"/>
<path d="M20.0001 0.799368C13.7385 0.865873 8.60951 6.06129 8.60951 12.4565C8.60951 18.851 13.7385 24.0471 20.0672 24.1129H20.0001C12.3399 24.1129 5.47841 19.5832 0.882812 12.4565C5.47841 5.32906 12.3399 0.799368 20.0001 0.799368Z" fill="#FFEFEF"/>
<path d="M20.7988 0.799368C28.1265 1.06539 34.7212 5.52924 39.1838 12.4565C34.7212 19.3172 28.1923 23.7797 20.7988 24.1129C26.8609 23.7797 31.7238 18.718 31.7238 12.4565C31.7238 6.19496 26.8609 1.13256 20.7988 0.799368Z" fill="#FFEFEF"/>
<path d="M19.9998 24.9795C12.3396 24.9795 5.07909 20.5828 0.149642 12.9227C-0.0498805 12.656 -0.0498805 12.3235 0.149642 11.9903C5.07909 4.32952 12.3396 0 19.9998 0H20.067C20.2665 0 20.5332 0 20.7327 0C21.1989 0 21.5321 0.399033 21.5321 0.865898C21.5321 1.3321 21.1324 1.66529 20.6662 1.66529C20.466 1.66529 20.2665 1.66529 20.067 1.66529C13.139 1.66529 6.54491 5.59512 1.88149 12.523C6.54491 19.3844 13.0725 23.3807 20.067 23.3807C20.2665 23.3807 20.466 23.3807 20.6662 23.3807C21.1324 23.3807 21.4656 23.7139 21.4656 24.1801C21.4656 24.6463 21.1324 25.046 20.6662 25.046C20.466 25.046 20.2 25.046 19.9998 25.046C20.067 24.9124 19.9998 24.9795 19.9998 24.9795Z" fill="black"/>
<path d="M20.7994 24.9124C20.3332 24.9124 20 24.5792 20 24.113C20 23.6468 20.3332 23.2477 20.7994 23.2477C27.4607 22.9804 33.7222 19.0512 38.1855 12.4565C33.7222 5.86181 27.3942 1.93199 20.7994 1.6653C20.3332 1.6653 20 1.26561 20 0.799404C20 0.333199 20.4004 5.72205e-06 20.8666 5.72205e-06C24.5969 0.13302 28.1929 1.33212 31.5242 3.46362C34.7218 5.52928 37.5198 8.39302 39.8508 11.9903C40.0503 12.2563 40.0503 12.5895 39.8508 12.9227C37.5198 16.5193 34.7218 19.3844 31.5242 21.4487C28.1929 23.5809 24.5969 24.7793 20.7994 24.9124Z" fill="black"/>
<path d="M20.1323 1.6654C20.0658 1.6654 20.0658 1.6654 20.0658 1.6654C14.2033 1.7319 9.40751 6.5948 9.40751 12.4566C9.40751 18.3178 14.2033 23.2478 20.0658 23.2478H20.1323C20.3318 23.2478 20.4649 23.2478 20.665 23.2478C20.665 23.2478 20.665 23.2478 20.7315 23.2478C26.3939 22.9146 30.8565 18.1847 30.8565 12.4566C30.8565 6.72781 26.3939 1.93208 20.7315 1.6654C20.7315 1.6654 20.7315 1.6654 20.665 1.6654C20.532 1.6654 20.3318 1.59889 20.1323 1.6654ZM20.1323 24.9796C20.0658 24.9796 20.0658 24.9796 19.9986 24.9796C16.7352 24.9796 13.604 23.6469 11.3395 21.3158C9.00845 18.9841 7.74219 15.8537 7.74219 12.5231C7.74219 9.19251 9.00845 6.06142 11.3395 3.7304C13.6712 1.39871 16.7352 0.0672665 19.9986 0.0672665C20.0658 0.0672665 20.0658 0.0672665 20.1323 0.0672665C20.3318 0.0672665 20.532 0.0672665 20.7315 0.0672665H20.798C27.3928 0.399141 32.5224 5.92841 32.5224 12.5231C32.5224 19.1172 27.3928 24.6464 20.798 24.9796H20.7315C20.532 24.9125 20.3318 24.9796 20.1323 24.9796Z" fill="black"/>
<path d="M20.1332 8.32648C17.8687 8.32648 16.0032 10.192 16.0032 12.523C16.0032 14.8547 17.8687 16.7195 20.1332 16.7195C22.3978 16.7195 24.2633 14.8547 24.2633 12.523C24.2633 10.192 22.4643 8.32648 20.1332 8.32648ZM20.1332 18.3176C16.9356 18.3176 14.3379 15.7199 14.3379 12.4565C14.3379 9.19239 16.9356 6.59467 20.1332 6.59467C23.3309 6.59467 25.9286 9.19239 25.9286 12.4565C25.9286 15.6541 23.3309 18.3176 20.1332 18.3176Z" fill="black"/>
</svg>
