<svg width="226" height="226" viewBox="0 0 226 226" fill="none" xmlns="http://www.w3.org/2000/svg">
<circle cx="113" cy="113" r="113" fill="#9D3F3F"/>
<path d="M81.3613 190.84C81.8307 190.84 82.306 190.832 82.7842 190.818H82.7852C87.6656 190.68 92.5788 189.911 97.3887 188.531L98.3896 188.254C108.752 185.48 119.647 185.573 129.975 188.531C134.784 189.911 139.698 190.68 144.578 190.818L145.275 190.833C152.437 190.937 158.189 189.496 162.741 186.335C170.647 180.844 174.578 169.462 172.116 159.643L171.994 159.177C169.575 150.323 163.06 144.318 157.023 138.723C156.202 137.96 155.358 137.179 154.553 136.414L154.552 136.413C148.442 130.621 142.86 124.092 137.964 117.007L137.963 117.006C137.341 116.109 136.717 115.18 136.108 114.275C133.783 110.817 131.319 107.15 128.277 104.031L128.168 103.918L128.163 103.913C124.339 100.033 119.193 97.8974 113.682 97.8974C108.174 97.8974 103.027 100.031 99.2051 103.91L99.0928 104.022L99.0869 104.029C96.0446 107.148 93.5806 110.816 91.2549 114.275C90.6467 115.18 90.0216 116.108 89.4004 117.005L89.3994 117.007C84.5029 124.092 78.9215 130.621 72.8125 136.413C72.4082 136.796 71.9949 137.184 71.5801 137.57L70.3389 138.723C64.3015 144.318 57.7879 150.323 55.3701 159.177C52.661 169.099 56.5897 180.757 64.6211 186.335C69.0187 189.389 74.5351 190.84 81.3613 190.84ZM145.336 185.164L144.739 185.15C140.611 185.033 136.449 184.416 132.354 183.309L131.535 183.08C120.22 179.836 108.279 179.735 96.9248 182.776L95.8281 183.08C91.4701 184.331 87.027 185.025 82.625 185.15C76.2131 185.332 71.4252 184.156 67.8545 181.676C61.7944 177.467 58.7227 168.422 60.8389 160.671L61.0342 160.002C62.8841 154.028 67.2743 149.383 72.0508 144.879L74.1924 142.883C75.019 142.116 75.8795 141.318 76.7119 140.529C83.1072 134.466 88.9447 127.637 94.0615 120.232C94.3833 119.768 94.7038 119.298 95.0205 118.83L95.957 117.441L95.958 117.44C98.0706 114.298 100.2 111.139 102.65 108.509L103.145 107.989L103.147 107.986L103.237 107.893C105.983 105.107 109.687 103.568 113.682 103.568C117.676 103.568 121.38 105.106 124.125 107.893L124.218 107.988V107.989C126.879 110.717 129.152 114.089 131.405 117.44V117.441C132.019 118.352 132.657 119.303 133.301 120.232C138.418 127.637 144.256 134.466 150.65 140.529H150.651C151.485 141.318 152.344 142.115 153.17 142.882L153.171 142.883C158.91 148.203 164.557 153.473 166.524 160.671C168.638 168.423 165.568 177.467 159.509 181.676C156.049 184.078 151.448 185.26 145.336 185.164Z" fill="white" stroke="white" stroke-width="2"/>
<path d="M90.1973 96.0508C91.0091 96.0508 91.8356 96.0116 92.6689 95.9337C99.1386 95.3299 104.001 92.5259 106.955 87.5362C109.856 82.6402 110.793 75.9772 109.986 67.3204C109.165 58.5303 106.857 50.9662 103.244 45.4913C99.2631 39.4581 93.911 36.3394 87.749 36.6934L87.1494 36.7383C80.7501 37.3376 75.2235 41.482 71.5293 48.1924C67.9686 54.6599 66.47 62.8719 67.2568 71.3087L67.3359 72.0821C68.2146 80.0317 71.0794 86.4975 75.7578 90.7061C79.6795 94.2339 84.6464 96.0508 90.1973 96.0508ZM92.1436 90.2872C87.1353 90.7544 82.8042 89.4178 79.5488 86.4893C75.9067 83.2126 73.5597 77.8298 72.9023 70.7823C72.2138 63.3992 73.51 56.3511 76.4951 50.9288C79.3589 45.7273 83.3574 42.7899 87.6758 42.3858H87.6748C88.0187 42.3544 88.3504 42.338 88.6787 42.338C92.3794 42.338 95.6865 44.3369 98.5127 48.6153C101.51 53.1598 103.607 59.9761 104.341 67.8467C105.048 75.4247 104.225 81.0241 102.079 84.6446L102.078 84.6456C100.112 87.9679 96.9307 89.8402 92.1436 90.2872Z" fill="white" stroke="white" stroke-width="2"/>
<path d="M55.3389 125.921C58.4946 125.921 61.6957 125.14 64.8213 123.609L65.3223 123.357C70.4296 120.709 73.5537 116.763 74.4502 111.621C75.3538 106.436 73.9832 100.385 70.4697 93.2072C66.9074 85.9253 62.4594 80.1731 57.5615 76.6368C51.9611 72.5935 46.0973 71.7137 40.7168 74.3488C35.3595 76.9732 31.9329 82.3802 30.9365 89.3888C29.9791 96.1237 31.3662 103.68 34.792 110.679C38.168 117.578 42.8744 122.457 48.4736 124.63C50.6922 125.492 52.9974 125.921 55.3389 125.921ZM62.3281 118.515C58.2563 120.51 54.1886 120.765 50.5244 119.343C46.4135 117.747 42.7057 113.952 39.8838 108.186C36.9234 102.137 35.7594 95.7411 36.5488 90.1876C37.3033 84.882 39.73 81.1464 43.21 79.4415C44.4703 78.8243 45.7549 78.5226 47.0684 78.5226C49.2861 78.5226 51.6817 79.3852 54.2432 81.2345L54.6182 81.5118C58.4907 84.4434 62.3151 89.4399 65.3779 95.7003C68.4194 101.914 69.5145 106.916 68.8643 110.647C68.2728 114.039 66.2113 116.613 62.3281 118.515Z" fill="white" stroke="white" stroke-width="2"/>
<path d="M137.168 96.0508C142.717 96.0508 147.684 94.2344 151.605 90.7071C156.437 86.3627 159.333 79.6124 160.107 71.3087C160.895 62.8717 159.396 54.6597 155.836 48.1924C152.142 41.4821 146.616 37.3377 140.217 36.7383H140.216C133.801 36.141 128.231 39.2634 124.121 45.4913C120.508 50.9662 118.2 58.5303 117.379 67.3204C116.572 75.9772 117.509 82.6402 120.41 87.5362C123.364 92.5259 128.227 95.3299 134.696 95.9337C135.53 96.0116 136.356 96.0508 137.168 96.0508ZM147.509 86.7598C144.29 89.5004 140.075 90.7406 135.222 90.2872C130.435 89.8402 127.254 87.9679 125.287 84.6456C123.143 81.0246 122.317 75.4244 123.024 67.8467C123.758 59.9764 125.855 53.1598 128.852 48.6153C131.678 44.3347 134.986 42.338 138.687 42.338C139.012 42.338 139.349 42.3545 139.688 42.3858L140.093 42.4317C144.257 42.9762 148.096 45.8899 150.87 50.9288L151.146 51.4415C153.935 56.7913 155.129 63.6289 154.462 70.7813V70.7823C153.806 77.8294 151.458 83.2125 147.817 86.4893L147.509 86.7598Z" fill="white" stroke="white" stroke-width="2"/>
<path d="M172.026 125.921C174.367 125.921 176.673 125.491 178.891 124.63C184.49 122.457 189.197 117.578 192.573 110.679C195.892 103.898 197.296 96.5953 196.512 90.0226L196.429 89.3888C195.432 82.3801 192.005 76.9724 186.647 74.3478C181.436 71.7957 175.771 72.5419 170.329 76.2667L169.803 76.6368C164.905 80.1731 160.456 85.9255 156.894 93.2072C153.38 100.386 152.01 106.436 152.915 111.621C153.839 116.929 157.139 120.962 162.543 123.609C165.67 125.14 168.869 125.921 172.026 125.921ZM176.839 119.343C173.176 120.765 169.109 120.511 165.037 118.516V118.515C161.153 116.613 159.092 114.039 158.501 110.647C157.851 106.916 158.946 101.914 161.987 95.7003C165.149 89.238 169.122 84.1222 173.123 81.2345C175.683 79.3855 178.077 78.5227 180.297 78.5226C181.608 78.5226 182.896 78.8245 184.156 79.4415C187.635 81.1465 190.062 84.8824 190.815 90.1876C191.579 95.5677 190.512 101.738 187.752 107.617L187.479 108.186C184.66 113.952 180.951 117.747 176.839 119.343Z" fill="white" stroke="white" stroke-width="2"/>
</svg>
