<svg width="252" height="30" viewBox="0 0 252 30" fill="none" xmlns="http://www.w3.org/2000/svg">
<path d="M17.3637 -2.28882e-05V23.2727H14.5456V2.49998H2.81829V23.2727H0.000111103V-2.28882e-05H17.3637ZM22.6848 29.8182V5.81816H25.2757V8.59089H25.5939C25.7908 8.28786 26.0636 7.90149 26.412 7.4318C26.7681 6.95452 27.2757 6.53028 27.9348 6.15907C28.6014 5.78028 29.503 5.59089 30.6393 5.59089C32.109 5.59089 33.4045 5.95831 34.5257 6.69316C35.6469 7.42801 36.5219 8.46967 37.1507 9.81816C37.7795 11.1666 38.0939 12.7576 38.0939 14.5909C38.0939 16.4394 37.7795 18.0416 37.1507 19.3977C36.5219 20.7462 35.6507 21.7916 34.537 22.5341C33.4234 23.2689 32.1393 23.6363 30.6848 23.6363C29.5636 23.6363 28.6658 23.4507 27.9916 23.0795C27.3173 22.7007 26.7984 22.2727 26.4348 21.7954C26.0711 21.3106 25.7908 20.9091 25.5939 20.5909H25.3666V29.8182H22.6848ZM25.3211 14.5454C25.3211 15.8636 25.5143 17.0265 25.9007 18.0341C26.287 19.0341 26.8514 19.8182 27.5939 20.3863C28.3363 20.9469 29.2454 21.2273 30.3211 21.2273C31.4423 21.2273 32.378 20.9318 33.128 20.3409C33.8855 19.7424 34.4537 18.9394 34.8325 17.9318C35.2189 16.9166 35.412 15.7879 35.412 14.5454C35.412 13.3182 35.2226 12.2121 34.8439 11.2273C34.4726 10.2348 33.9083 9.45074 33.1507 8.87498C32.4007 8.29164 31.4575 7.99998 30.3211 7.99998C29.2302 7.99998 28.3136 8.27649 27.5711 8.82952C26.8287 9.37498 26.2681 10.1401 25.8893 11.125C25.5105 12.1022 25.3211 13.2424 25.3211 14.5454ZM49.2757 23.6363C47.6999 23.6363 46.3173 23.2613 45.128 22.5113C43.9461 21.7613 43.0219 20.7121 42.3552 19.3636C41.6961 18.0151 41.3666 16.4394 41.3666 14.6363C41.3666 12.8182 41.6961 11.231 42.3552 9.87498C43.0219 8.51892 43.9461 7.46589 45.128 6.71589C46.3173 5.96589 47.6999 5.59089 49.2757 5.59089C50.8514 5.59089 52.2302 5.96589 53.412 6.71589C54.6014 7.46589 55.5257 8.51892 56.1848 9.87498C56.8514 11.231 57.1848 12.8182 57.1848 14.6363C57.1848 16.4394 56.8514 18.0151 56.1848 19.3636C55.5257 20.7121 54.6014 21.7613 53.412 22.5113C52.2302 23.2613 50.8514 23.6363 49.2757 23.6363ZM49.2757 21.2273C50.4726 21.2273 51.4575 20.9204 52.2302 20.3068C53.003 19.6932 53.5749 18.8863 53.9461 17.8863C54.3173 16.8863 54.503 15.803 54.503 14.6363C54.503 13.4697 54.3173 12.3826 53.9461 11.375C53.5749 10.3674 53.003 9.55301 52.2302 8.9318C51.4575 8.31058 50.4726 7.99998 49.2757 7.99998C48.0787 7.99998 47.0939 8.31058 46.3211 8.9318C45.5484 9.55301 44.9764 10.3674 44.6052 11.375C44.234 12.3826 44.0484 13.4697 44.0484 14.6363C44.0484 15.803 44.234 16.8863 44.6052 17.8863C44.9764 18.8863 45.5484 19.6932 46.3211 20.3068C47.0939 20.9204 48.0787 21.2273 49.2757 21.2273ZM68.3694 29.2273V-2.28882e-05H71.0512V29.2273H68.3694ZM68.3694 23.6363C67.1876 23.6363 66.1119 23.4242 65.1422 23C64.1725 22.5682 63.3391 21.9583 62.6422 21.1704C61.9452 20.375 61.4073 19.4242 61.0285 18.3182C60.6497 17.2121 60.4603 15.9848 60.4603 14.6363C60.4603 13.2727 60.6497 12.0379 61.0285 10.9318C61.4073 9.81816 61.9452 8.86361 62.6422 8.06816C63.3391 7.2727 64.1725 6.66286 65.1422 6.23861C66.1119 5.8068 67.1876 5.59089 68.3694 5.59089H69.1876V23.6363H68.3694ZM68.3694 21.2273H68.824V7.99998H68.3694C67.4755 7.99998 66.699 8.1818 66.0399 8.54543C65.3808 8.90149 64.8353 9.39013 64.4035 10.0113C63.9793 10.625 63.6611 11.3295 63.449 12.125C63.2444 12.9204 63.1422 13.7576 63.1422 14.6363C63.1422 15.803 63.3278 16.8863 63.699 17.8863C64.0702 18.8863 64.6422 19.6932 65.4149 20.3068C66.1876 20.9204 67.1725 21.2273 68.3694 21.2273ZM71.0512 23.6363H70.2331V5.59089H71.0512C72.2331 5.59089 73.3088 5.8068 74.2785 6.23861C75.2482 6.66286 76.0816 7.2727 76.7785 8.06816C77.4755 8.86361 78.0134 9.81816 78.3922 10.9318C78.7709 12.0379 78.9603 13.2727 78.9603 14.6363C78.9603 15.9848 78.7709 17.2121 78.3922 18.3182C78.0134 19.4242 77.4755 20.375 76.7785 21.1704C76.0816 21.9583 75.2482 22.5682 74.2785 23C73.3088 23.4242 72.2331 23.6363 71.0512 23.6363ZM71.0512 21.2273C71.9528 21.2273 72.7293 21.053 73.3808 20.7045C74.0399 20.3485 74.5816 19.8636 75.0058 19.25C75.4376 18.6288 75.7558 17.9242 75.9603 17.1363C76.1725 16.3409 76.2785 15.5076 76.2785 14.6363C76.2785 13.4697 76.0929 12.3826 75.7217 11.375C75.3505 10.3674 74.7785 9.55301 74.0058 8.9318C73.2331 8.31058 72.2482 7.99998 71.0512 7.99998H70.5967V21.2273H71.0512ZM85.7416 19.3182L94.1507 5.81816H97.2416V23.2727H94.5598V9.77271L86.1961 23.2727H83.0598V5.81816H85.7416V19.3182ZM100.608 23.2727V20.7727H101.244C101.767 20.7727 102.203 20.6704 102.551 20.4659C102.9 20.2538 103.18 19.8863 103.392 19.3636C103.612 18.8333 103.779 18.0985 103.892 17.1591C104.013 16.2121 104.1 15.0076 104.154 13.5454L104.472 5.81816H116.108V23.2727H113.426V8.31816H107.017L106.744 14.5454C106.684 15.9773 106.555 17.2386 106.358 18.3295C106.169 19.4129 105.877 20.3219 105.483 21.0568C105.097 21.7916 104.582 22.3447 103.938 22.7159C103.294 23.0871 102.487 23.2727 101.517 23.2727H100.608ZM123.347 12.1363H128.347C130.392 12.1363 131.957 12.6553 133.04 13.6932C134.123 14.731 134.665 16.0454 134.665 17.6363C134.665 18.6818 134.422 19.6326 133.938 20.4886C133.453 21.3371 132.741 22.0151 131.801 22.5227C130.862 23.0227 129.71 23.2727 128.347 23.2727H121.029V5.81816H123.71V20.7727H128.347C129.407 20.7727 130.279 20.4924 130.96 19.9318C131.642 19.3712 131.983 18.6515 131.983 17.7727C131.983 16.8485 131.642 16.0947 130.96 15.5113C130.279 14.928 129.407 14.6363 128.347 14.6363H123.347V12.1363ZM152.884 23.6818C151.778 23.6818 150.774 23.4735 149.872 23.0568C148.971 22.6326 148.255 22.0227 147.725 21.2273C147.194 20.4242 146.929 19.4545 146.929 18.3182C146.929 17.3182 147.126 16.5076 147.52 15.8863C147.914 15.2576 148.44 14.7651 149.1 14.4091C149.759 14.053 150.486 13.7879 151.281 13.6136C152.084 13.4318 152.891 13.2879 153.702 13.1818C154.762 13.0454 155.622 12.9432 156.281 12.875C156.948 12.7992 157.433 12.6742 157.736 12.5C158.047 12.3257 158.202 12.0227 158.202 11.5909V11.5C158.202 10.3788 157.895 9.50755 157.281 8.88634C156.675 8.26513 155.755 7.95452 154.52 7.95452C153.24 7.95452 152.236 8.23483 151.509 8.79543C150.781 9.35604 150.27 9.95452 149.975 10.5909L147.429 9.6818C147.884 8.62119 148.49 7.79543 149.247 7.20452C150.012 6.60604 150.846 6.18937 151.747 5.95452C152.656 5.7121 153.55 5.59089 154.429 5.59089C154.99 5.59089 155.634 5.65907 156.361 5.79543C157.096 5.92422 157.804 6.19316 158.486 6.60225C159.175 7.01134 159.747 7.62877 160.202 8.45452C160.656 9.28028 160.884 10.3863 160.884 11.7727V23.2727H158.202V20.9091H158.065C157.884 21.2879 157.581 21.6932 157.156 22.125C156.732 22.5568 156.168 22.9242 155.463 23.2273C154.759 23.5303 153.899 23.6818 152.884 23.6818ZM153.293 21.2727C154.353 21.2727 155.247 21.0644 155.975 20.6477C156.709 20.231 157.262 19.6932 157.634 19.0341C158.012 18.375 158.202 17.6818 158.202 16.9545V14.5C158.088 14.6363 157.838 14.7613 157.452 14.875C157.073 14.981 156.634 15.0757 156.134 15.1591C155.641 15.2348 155.16 15.303 154.69 15.3636C154.228 15.4166 153.853 15.4621 153.565 15.5C152.868 15.5909 152.217 15.7386 151.611 15.9432C151.012 16.1401 150.528 16.4394 150.156 16.8409C149.793 17.2348 149.611 17.7727 149.611 18.4545C149.611 19.3863 149.956 20.0909 150.645 20.5682C151.342 21.0379 152.225 21.2727 153.293 21.2727ZM165.779 23.2727V5.81816H172.915C174.794 5.81816 176.286 6.2424 177.392 7.09089C178.498 7.93937 179.051 9.06058 179.051 10.4545C179.051 11.5151 178.737 12.3371 178.108 12.9204C177.479 13.4962 176.672 13.8863 175.688 14.0909C176.332 14.1818 176.957 14.4091 177.563 14.7727C178.176 15.1363 178.684 15.6363 179.085 16.2727C179.487 16.9015 179.688 17.6742 179.688 18.5909C179.688 19.4848 179.46 20.2841 179.006 20.9886C178.551 21.6932 177.9 22.25 177.051 22.6591C176.203 23.0682 175.188 23.2727 174.006 23.2727H165.779ZM168.324 20.8182H174.006C174.93 20.8182 175.654 20.5985 176.176 20.1591C176.699 19.7197 176.96 19.1212 176.96 18.3636C176.96 17.4621 176.699 16.7538 176.176 16.2386C175.654 15.7159 174.93 15.4545 174.006 15.4545H168.324V20.8182ZM168.324 13.1363H172.915C173.635 13.1363 174.252 13.0379 174.767 12.8409C175.282 12.6363 175.676 12.3485 175.949 11.9773C176.229 11.5985 176.369 11.1515 176.369 10.6363C176.369 9.90149 176.063 9.32573 175.449 8.90907C174.835 8.48483 173.991 8.27271 172.915 8.27271H168.324V13.1363ZM182.747 8.31816V5.81816H196.929V8.31816H191.202V23.2727H188.52V8.31816H182.747ZM207.026 23.6363C205.45 23.6363 204.067 23.2613 202.878 22.5113C201.696 21.7613 200.772 20.7121 200.105 19.3636C199.446 18.0151 199.117 16.4394 199.117 14.6363C199.117 12.8182 199.446 11.231 200.105 9.87498C200.772 8.51892 201.696 7.46589 202.878 6.71589C204.067 5.96589 205.45 5.59089 207.026 5.59089C208.601 5.59089 209.98 5.96589 211.162 6.71589C212.351 7.46589 213.276 8.51892 213.935 9.87498C214.601 11.231 214.935 12.8182 214.935 14.6363C214.935 16.4394 214.601 18.0151 213.935 19.3636C213.276 20.7121 212.351 21.7613 211.162 22.5113C209.98 23.2613 208.601 23.6363 207.026 23.6363ZM207.026 21.2273C208.223 21.2273 209.207 20.9204 209.98 20.3068C210.753 19.6932 211.325 18.8863 211.696 17.8863C212.067 16.8863 212.253 15.803 212.253 14.6363C212.253 13.4697 212.067 12.3826 211.696 11.375C211.325 10.3674 210.753 9.55301 209.98 8.9318C209.207 8.31058 208.223 7.99998 207.026 7.99998C205.829 7.99998 204.844 8.31058 204.071 8.9318C203.298 9.55301 202.726 10.3674 202.355 11.375C201.984 12.3826 201.798 13.4697 201.798 14.6363C201.798 15.803 201.984 16.8863 202.355 17.8863C202.726 18.8863 203.298 19.6932 204.071 20.3068C204.844 20.9204 205.829 21.2273 207.026 21.2273ZM219.029 29.8182V5.81816H221.619V8.59089H221.938C222.135 8.28786 222.407 7.90149 222.756 7.4318C223.112 6.95452 223.619 6.53028 224.279 6.15907C224.945 5.78028 225.847 5.59089 226.983 5.59089C228.453 5.59089 229.748 5.95831 230.869 6.69316C231.991 7.42801 232.866 8.46967 233.494 9.81816C234.123 11.1666 234.438 12.7576 234.438 14.5909C234.438 16.4394 234.123 18.0416 233.494 19.3977C232.866 20.7462 231.994 21.7916 230.881 22.5341C229.767 23.2689 228.483 23.6363 227.029 23.6363C225.907 23.6363 225.01 23.4507 224.335 23.0795C223.661 22.7007 223.142 22.2727 222.779 21.7954C222.415 21.3106 222.135 20.9091 221.938 20.5909H221.71V29.8182H219.029ZM221.665 14.5454C221.665 15.8636 221.858 17.0265 222.244 18.0341C222.631 19.0341 223.195 19.8182 223.938 20.3863C224.68 20.9469 225.589 21.2273 226.665 21.2273C227.786 21.2273 228.722 20.9318 229.472 20.3409C230.229 19.7424 230.797 18.9394 231.176 17.9318C231.563 16.9166 231.756 15.7879 231.756 14.5454C231.756 13.3182 231.566 12.2121 231.188 11.2273C230.816 10.2348 230.252 9.45074 229.494 8.87498C228.744 8.29164 227.801 7.99998 226.665 7.99998C225.574 7.99998 224.657 8.27649 223.915 8.82952C223.172 9.37498 222.612 10.1401 222.233 11.125C221.854 12.1022 221.665 13.2424 221.665 14.5454ZM243.665 23.6818C242.559 23.6818 241.555 23.4735 240.654 23.0568C239.752 22.6326 239.036 22.0227 238.506 21.2273C237.975 20.4242 237.71 19.4545 237.71 18.3182C237.71 17.3182 237.907 16.5076 238.301 15.8863C238.695 15.2576 239.222 14.7651 239.881 14.4091C240.54 14.053 241.267 13.7879 242.063 13.6136C242.866 13.4318 243.672 13.2879 244.483 13.1818C245.544 13.0454 246.404 12.9432 247.063 12.875C247.729 12.7992 248.214 12.6742 248.517 12.5C248.828 12.3257 248.983 12.0227 248.983 11.5909V11.5C248.983 10.3788 248.676 9.50755 248.063 8.88634C247.457 8.26513 246.536 7.95452 245.301 7.95452C244.021 7.95452 243.017 8.23483 242.29 8.79543C241.563 9.35604 241.051 9.95452 240.756 10.5909L238.21 9.6818C238.665 8.62119 239.271 7.79543 240.029 7.20452C240.794 6.60604 241.627 6.18937 242.529 5.95452C243.438 5.7121 244.332 5.59089 245.21 5.59089C245.771 5.59089 246.415 5.65907 247.142 5.79543C247.877 5.92422 248.585 6.19316 249.267 6.60225C249.957 7.01134 250.529 7.62877 250.983 8.45452C251.438 9.28028 251.665 10.3863 251.665 11.7727V23.2727H248.983V20.9091H248.847C248.665 21.2879 248.362 21.6932 247.938 22.125C247.513 22.5568 246.949 22.9242 246.244 23.2273C245.54 23.5303 244.68 23.6818 243.665 23.6818ZM244.074 21.2727C245.135 21.2727 246.029 21.0644 246.756 20.6477C247.491 20.231 248.044 19.6932 248.415 19.0341C248.794 18.375 248.983 17.6818 248.983 16.9545V14.5C248.869 14.6363 248.619 14.7613 248.233 14.875C247.854 14.981 247.415 15.0757 246.915 15.1591C246.422 15.2348 245.941 15.303 245.472 15.3636C245.01 15.4166 244.635 15.4621 244.347 15.5C243.65 15.5909 242.998 15.7386 242.392 15.9432C241.794 16.1401 241.309 16.4394 240.938 16.8409C240.574 17.2348 240.392 17.7727 240.392 18.4545C240.392 19.3863 240.737 20.0909 241.426 20.5682C242.123 21.0379 243.006 21.2727 244.074 21.2727Z" fill="black"/>
</svg>
