<svg width="402" height="24" viewBox="0 0 402 24" fill="none" xmlns="http://www.w3.org/2000/svg">
<path d="M6.67572e-05 23.2727V-2.28882e-05H8.13643C9.75764 -2.28882e-05 11.0948 0.28028 12.1478 0.840887C13.2008 1.39392 13.9849 2.14013 14.5001 3.07952C15.0152 4.01134 15.2728 5.04543 15.2728 6.1818C15.2728 7.1818 15.0948 8.00755 14.7387 8.65907C14.3902 9.31058 13.9281 9.82574 13.3523 10.2045C12.7842 10.5833 12.1667 10.8636 11.5001 11.0454V11.2727C12.2122 11.3182 12.9281 11.5682 13.6478 12.0227C14.3675 12.4773 14.9698 13.1288 15.4546 13.9773C15.9395 14.8257 16.1819 15.8636 16.1819 17.0909C16.1819 18.2576 15.9167 19.3068 15.3864 20.2386C14.8561 21.1704 14.019 21.9091 12.8751 22.4545C11.7311 23 10.2425 23.2727 8.40916 23.2727H6.67572e-05ZM2.81825 20.7727H8.40916C10.2501 20.7727 11.5569 20.4166 12.3296 19.7045C13.1099 18.9848 13.5001 18.1136 13.5001 17.0909C13.5001 16.303 13.2993 15.5757 12.8978 14.9091C12.4963 14.2348 11.9243 13.6969 11.1819 13.2954C10.4395 12.8863 9.56067 12.6818 8.54552 12.6818H2.81825V20.7727ZM2.81825 10.2273H8.04552C8.89401 10.2273 9.65916 10.0606 10.341 9.72725C11.0304 9.39392 11.5758 8.92422 11.9773 8.31816C12.3864 7.7121 12.591 6.99998 12.591 6.1818C12.591 5.15907 12.2349 4.29164 11.5228 3.57952C10.8107 2.85983 9.68189 2.49998 8.13643 2.49998H2.81825V10.2273ZM22.7671 12.1363H27.7671C29.8126 12.1363 31.377 12.6553 32.4603 13.6932C33.5436 14.731 34.0853 16.0454 34.0853 17.6363C34.0853 18.6818 33.8429 19.6326 33.358 20.4886C32.8732 21.3371 32.1611 22.0151 31.2217 22.5227C30.2823 23.0227 29.1307 23.2727 27.7671 23.2727H20.4489V5.81816H23.1307V20.7727H27.7671C28.8277 20.7727 29.6989 20.4924 30.3807 19.9318C31.0626 19.3712 31.4035 18.6515 31.4035 17.7727C31.4035 16.8485 31.0626 16.0947 30.3807 15.5113C29.6989 14.928 28.8277 14.6363 27.7671 14.6363H22.7671V12.1363ZM36.858 23.2727V5.81816H39.5398V23.2727H36.858ZM53.4489 23.2727V5.81816H67.1762V23.2727H64.4944V8.31816H56.1307V23.2727H53.4489ZM79.1648 23.6363C77.5891 23.6363 76.2065 23.2613 75.0171 22.5113C73.8353 21.7613 72.9111 20.7121 72.2444 19.3636C71.5853 18.0151 71.2557 16.4394 71.2557 14.6363C71.2557 12.8182 71.5853 11.231 72.2444 9.87498C72.9111 8.51892 73.8353 7.46589 75.0171 6.71589C76.2065 5.96589 77.5891 5.59089 79.1648 5.59089C80.7406 5.59089 82.1194 5.96589 83.3012 6.71589C84.4906 7.46589 85.4148 8.51892 86.0739 9.87498C86.7406 11.231 87.0739 12.8182 87.0739 14.6363C87.0739 16.4394 86.7406 18.0151 86.0739 19.3636C85.4148 20.7121 84.4906 21.7613 83.3012 22.5113C82.1194 23.2613 80.7406 23.6363 79.1648 23.6363ZM79.1648 21.2273C80.3618 21.2273 81.3467 20.9204 82.1194 20.3068C82.8921 19.6932 83.4641 18.8863 83.8353 17.8863C84.2065 16.8863 84.3921 15.803 84.3921 14.6363C84.3921 13.4697 84.2065 12.3826 83.8353 11.375C83.4641 10.3674 82.8921 9.55301 82.1194 8.9318C81.3467 8.31058 80.3618 7.99998 79.1648 7.99998C77.9679 7.99998 76.983 8.31058 76.2103 8.9318C75.4376 9.55301 74.8656 10.3674 74.4944 11.375C74.1232 12.3826 73.9376 13.4697 73.9376 14.6363C73.9376 15.803 74.1232 16.8863 74.4944 17.8863C74.8656 18.8863 75.4376 19.6932 76.2103 20.3068C76.983 20.9204 77.9679 21.2273 79.1648 21.2273ZM91.1677 23.2727V5.81816H93.8495V13.4091H95.6222L101.895 5.81816H105.349L98.304 14.2273L105.44 23.2727H101.986L96.2586 15.9091H93.8495V23.2727H91.1677ZM113.492 23.6818C112.385 23.6818 111.382 23.4735 110.48 23.0568C109.579 22.6326 108.863 22.0227 108.332 21.2273C107.802 20.4242 107.537 19.4545 107.537 18.3182C107.537 17.3182 107.734 16.5076 108.128 15.8863C108.522 15.2576 109.048 14.7651 109.707 14.4091C110.367 14.053 111.094 13.7879 111.889 13.6136C112.692 13.4318 113.499 13.2879 114.31 13.1818C115.37 13.0454 116.23 12.9432 116.889 12.875C117.556 12.7992 118.041 12.6742 118.344 12.5C118.654 12.3257 118.81 12.0227 118.81 11.5909V11.5C118.81 10.3788 118.503 9.50755 117.889 8.88634C117.283 8.26513 116.363 7.95452 115.128 7.95452C113.848 7.95452 112.844 8.23483 112.117 8.79543C111.389 9.35604 110.878 9.95452 110.582 10.5909L108.037 9.6818C108.492 8.62119 109.098 7.79543 109.855 7.20452C110.62 6.60604 111.454 6.18937 112.355 5.95452C113.264 5.7121 114.158 5.59089 115.037 5.59089C115.598 5.59089 116.242 5.65907 116.969 5.79543C117.704 5.92422 118.412 6.19316 119.094 6.60225C119.783 7.01134 120.355 7.62877 120.81 8.45452C121.264 9.28028 121.492 10.3863 121.492 11.7727V23.2727H118.81V20.9091H118.673C118.492 21.2879 118.189 21.6932 117.764 22.125C117.34 22.5568 116.776 22.9242 116.071 23.2273C115.367 23.5303 114.507 23.6818 113.492 23.6818ZM113.901 21.2727C114.961 21.2727 115.855 21.0644 116.582 20.6477C117.317 20.231 117.87 19.6932 118.242 19.0341C118.62 18.375 118.81 17.6818 118.81 16.9545V14.5C118.696 14.6363 118.446 14.7613 118.06 14.875C117.681 14.981 117.242 15.0757 116.742 15.1591C116.249 15.2348 115.768 15.303 115.298 15.3636C114.836 15.4166 114.461 15.4621 114.173 15.5C113.476 15.5909 112.825 15.7386 112.219 15.9432C111.62 16.1401 111.135 16.4394 110.764 16.8409C110.401 17.2348 110.219 17.7727 110.219 18.4545C110.219 19.3863 110.564 20.0909 111.253 20.5682C111.95 21.0379 112.832 21.2727 113.901 21.2727ZM147.068 13.3182V15.8182H137.432V13.3182H147.068ZM138.068 5.81816V23.2727H135.386V5.81816H138.068ZM149.114 5.81816V23.2727H146.432V5.81816H149.114ZM161.33 23.6363C159.648 23.6363 158.197 23.2651 156.977 22.5227C155.765 21.7727 154.83 20.7273 154.171 19.3863C153.519 18.0379 153.193 16.4697 153.193 14.6818C153.193 12.8939 153.519 11.3182 154.171 9.95452C154.83 8.58331 155.746 7.51513 156.921 6.74998C158.102 5.97725 159.481 5.59089 161.057 5.59089C161.966 5.59089 162.864 5.7424 163.75 6.04543C164.636 6.34846 165.443 6.84089 166.171 7.52271C166.898 8.19695 167.477 9.09089 167.909 10.2045C168.341 11.3182 168.557 12.6894 168.557 14.3182V15.4545H155.102V13.1363H165.83C165.83 12.1515 165.633 11.2727 165.239 10.5C164.852 9.72725 164.299 9.1174 163.58 8.67043C162.867 8.22346 162.027 7.99998 161.057 7.99998C159.989 7.99998 159.064 8.26513 158.284 8.79543C157.511 9.31816 156.917 9.99998 156.5 10.8409C156.083 11.6818 155.875 12.5833 155.875 13.5454V15.0909C155.875 16.4091 156.102 17.5265 156.557 18.4432C157.019 19.3523 157.659 20.0454 158.477 20.5227C159.296 20.9924 160.246 21.2273 161.33 21.2273C162.034 21.2273 162.671 21.1288 163.239 20.9318C163.814 20.7273 164.311 20.4242 164.727 20.0227C165.144 19.6136 165.466 19.106 165.693 18.5L168.284 19.2273C168.011 20.106 167.553 20.8788 166.909 21.5454C166.265 22.2045 165.47 22.7197 164.523 23.0909C163.576 23.4545 162.511 23.6363 161.33 23.6363ZM181.636 23.2727V5.81816H195.364V23.2727H192.682V8.31816H184.318V23.2727H181.636ZM202.943 19.3182L211.352 5.81816H214.443V23.2727H211.761V9.77271L203.398 23.2727H200.261V5.81816H202.943V19.3182ZM226.446 23.6363C224.81 23.6363 223.401 23.25 222.219 22.4773C221.037 21.7045 220.128 20.6401 219.492 19.2841C218.855 17.928 218.537 16.3788 218.537 14.6363C218.537 12.8636 218.863 11.2992 219.514 9.94316C220.173 8.57952 221.09 7.51513 222.264 6.74998C223.446 5.97725 224.825 5.59089 226.401 5.59089C227.628 5.59089 228.734 5.81816 229.719 6.27271C230.704 6.72725 231.51 7.36361 232.139 8.1818C232.768 8.99998 233.158 9.95452 233.31 11.0454H230.628C230.423 10.25 229.969 9.54543 229.264 8.9318C228.567 8.31058 227.628 7.99998 226.446 7.99998C225.401 7.99998 224.484 8.2727 223.696 8.81816C222.916 9.35604 222.306 10.1174 221.867 11.1023C221.435 12.0795 221.219 13.2273 221.219 14.5454C221.219 15.8939 221.431 17.0682 221.855 18.0682C222.287 19.0682 222.893 19.8447 223.673 20.3977C224.461 20.9507 225.385 21.2273 226.446 21.2273C227.143 21.2273 227.776 21.106 228.344 20.8636C228.912 20.6212 229.393 20.2727 229.787 19.8182C230.181 19.3636 230.461 18.8182 230.628 18.1818H233.31C233.158 19.2121 232.783 20.1401 232.185 20.9659C231.594 21.7841 230.81 22.4356 229.832 22.9204C228.863 23.3977 227.734 23.6363 226.446 23.6363ZM242.367 23.6818C241.26 23.6818 240.257 23.4735 239.355 23.0568C238.454 22.6326 237.738 22.0227 237.207 21.2273C236.677 20.4242 236.412 19.4545 236.412 18.3182C236.412 17.3182 236.609 16.5076 237.003 15.8863C237.397 15.2576 237.923 14.7651 238.582 14.4091C239.242 14.053 239.969 13.7879 240.764 13.6136C241.567 13.4318 242.374 13.2879 243.185 13.1818C244.245 13.0454 245.105 12.9432 245.764 12.875C246.431 12.7992 246.916 12.6742 247.219 12.5C247.529 12.3257 247.685 12.0227 247.685 11.5909V11.5C247.685 10.3788 247.378 9.50755 246.764 8.88634C246.158 8.26513 245.238 7.95452 244.003 7.95452C242.723 7.95452 241.719 8.23483 240.992 8.79543C240.264 9.35604 239.753 9.95452 239.457 10.5909L236.912 9.6818C237.367 8.62119 237.973 7.79543 238.73 7.20452C239.495 6.60604 240.329 6.18937 241.23 5.95452C242.139 5.7121 243.033 5.59089 243.912 5.59089C244.473 5.59089 245.117 5.65907 245.844 5.79543C246.579 5.92422 247.287 6.19316 247.969 6.60225C248.658 7.01134 249.23 7.62877 249.685 8.45452C250.139 9.28028 250.367 10.3863 250.367 11.7727V23.2727H247.685V20.9091H247.548C247.367 21.2879 247.064 21.6932 246.639 22.125C246.215 22.5568 245.651 22.9242 244.946 23.2273C244.242 23.5303 243.382 23.6818 242.367 23.6818ZM242.776 21.2727C243.836 21.2727 244.73 21.0644 245.457 20.6477C246.192 20.231 246.745 19.6932 247.117 19.0341C247.495 18.375 247.685 17.6818 247.685 16.9545V14.5C247.571 14.6363 247.321 14.7613 246.935 14.875C246.556 14.981 246.117 15.0757 245.617 15.1591C245.124 15.2348 244.643 15.303 244.173 15.3636C243.711 15.4166 243.336 15.4621 243.048 15.5C242.351 15.5909 241.7 15.7386 241.094 15.9432C240.495 16.1401 240.01 16.4394 239.639 16.8409C239.276 17.2348 239.094 17.7727 239.094 18.4545C239.094 19.3863 239.439 20.0909 240.128 20.5682C240.825 21.0379 241.707 21.2727 242.776 21.2727ZM253.716 23.2727V20.7727H254.352C254.875 20.7727 255.311 20.6704 255.659 20.4659C256.008 20.2538 256.288 19.8863 256.5 19.3636C256.72 18.8333 256.886 18.0985 257 17.1591C257.121 16.2121 257.208 15.0076 257.261 13.5454L257.58 5.81816H269.216V23.2727H266.534V8.31816H260.125L259.852 14.5454C259.792 15.9773 259.663 17.2386 259.466 18.3295C259.277 19.4129 258.985 20.3219 258.591 21.0568C258.205 21.7916 257.689 22.3447 257.046 22.7159C256.402 23.0871 255.595 23.2727 254.625 23.2727H253.716ZM276.818 19.3182L285.227 5.81816H288.318V23.2727H285.636V9.77271L277.273 23.2727H274.136V5.81816H276.818V19.3182ZM309.321 23.6363C307.685 23.6363 306.276 23.25 305.094 22.4773C303.912 21.7045 303.003 20.6401 302.367 19.2841C301.73 17.928 301.412 16.3788 301.412 14.6363C301.412 12.8636 301.738 11.2992 302.389 9.94316C303.048 8.57952 303.965 7.51513 305.139 6.74998C306.321 5.97725 307.7 5.59089 309.276 5.59089C310.503 5.59089 311.609 5.81816 312.594 6.27271C313.579 6.72725 314.385 7.36361 315.014 8.1818C315.643 8.99998 316.033 9.95452 316.185 11.0454H313.503C313.298 10.25 312.844 9.54543 312.139 8.9318C311.442 8.31058 310.503 7.99998 309.321 7.99998C308.276 7.99998 307.359 8.2727 306.571 8.81816C305.791 9.35604 305.181 10.1174 304.742 11.1023C304.31 12.0795 304.094 13.2273 304.094 14.5454C304.094 15.8939 304.306 17.0682 304.73 18.0682C305.162 19.0682 305.768 19.8447 306.548 20.3977C307.336 20.9507 308.26 21.2273 309.321 21.2273C310.018 21.2273 310.651 21.106 311.219 20.8636C311.787 20.6212 312.268 20.2727 312.662 19.8182C313.056 19.3636 313.336 18.8182 313.503 18.1818H316.185C316.033 19.2121 315.658 20.1401 315.06 20.9659C314.469 21.7841 313.685 22.4356 312.707 22.9204C311.738 23.3977 310.609 23.6363 309.321 23.6363ZM318.73 8.31816V5.81816H332.912V8.31816H327.185V23.2727H324.503V8.31816H318.73ZM341.054 23.6818C339.948 23.6818 338.944 23.4735 338.043 23.0568C337.141 22.6326 336.425 22.0227 335.895 21.2273C335.365 20.4242 335.099 19.4545 335.099 18.3182C335.099 17.3182 335.296 16.5076 335.69 15.8863C336.084 15.2576 336.611 14.7651 337.27 14.4091C337.929 14.053 338.656 13.7879 339.452 13.6136C340.255 13.4318 341.062 13.2879 341.872 13.1818C342.933 13.0454 343.793 12.9432 344.452 12.875C345.118 12.7992 345.603 12.6742 345.906 12.5C346.217 12.3257 346.372 12.0227 346.372 11.5909V11.5C346.372 10.3788 346.065 9.50755 345.452 8.88634C344.846 8.26513 343.925 7.95452 342.69 7.95452C341.41 7.95452 340.406 8.23483 339.679 8.79543C338.952 9.35604 338.44 9.95452 338.145 10.5909L335.599 9.6818C336.054 8.62119 336.66 7.79543 337.418 7.20452C338.183 6.60604 339.016 6.18937 339.918 5.95452C340.827 5.7121 341.721 5.59089 342.599 5.59089C343.16 5.59089 343.804 5.65907 344.531 5.79543C345.266 5.92422 345.974 6.19316 346.656 6.60225C347.346 7.01134 347.918 7.62877 348.372 8.45452C348.827 9.28028 349.054 10.3863 349.054 11.7727V23.2727H346.372V20.9091H346.236C346.054 21.2879 345.751 21.6932 345.327 22.125C344.903 22.5568 344.338 22.9242 343.634 23.2273C342.929 23.5303 342.069 23.6818 341.054 23.6818ZM341.463 21.2727C342.524 21.2727 343.418 21.0644 344.145 20.6477C344.88 20.231 345.433 19.6932 345.804 19.0341C346.183 18.375 346.372 17.6818 346.372 16.9545V14.5C346.259 14.6363 346.009 14.7613 345.622 14.875C345.243 14.981 344.804 15.0757 344.304 15.1591C343.812 15.2348 343.331 15.303 342.861 15.3636C342.399 15.4166 342.024 15.4621 341.736 15.5C341.039 15.5909 340.387 15.7386 339.781 15.9432C339.183 16.1401 338.698 16.4394 338.327 16.8409C337.963 17.2348 337.781 17.7727 337.781 18.4545C337.781 19.3863 338.126 20.0909 338.815 20.5682C339.512 21.0379 340.395 21.2727 341.463 21.2727ZM351.574 8.31816V5.81816H365.756V8.31816H360.028V23.2727H357.347V8.31816H351.574ZM371.986 12.1363H376.986C379.031 12.1363 380.596 12.6553 381.679 13.6932C382.762 14.731 383.304 16.0454 383.304 17.6363C383.304 18.6818 383.062 19.6326 382.577 20.4886C382.092 21.3371 381.38 22.0151 380.44 22.5227C379.501 23.0227 378.349 23.2727 376.986 23.2727H369.668V5.81816H372.349V20.7727H376.986C378.046 20.7727 378.918 20.4924 379.599 19.9318C380.281 19.3712 380.622 18.6515 380.622 17.7727C380.622 16.8485 380.281 16.0947 379.599 15.5113C378.918 14.928 378.046 14.6363 376.986 14.6363H371.986V12.1363ZM390.068 19.3182L398.477 5.81816H401.568V23.2727H398.886V9.77271L390.523 23.2727H387.386V5.81816H390.068V19.3182Z" fill="black"/>
</svg>
