<svg width="124" height="121" viewBox="0 0 124 121" fill="none" xmlns="http://www.w3.org/2000/svg">
<circle cx="72" cy="72" r="72" fill="#9D3F3F"/>
<path d="M70.3383 79.2856C65.2113 79.2856 61.0461 75.127 61.0461 70C61.0461 64.873 65.2113 60.7144 70.3383 60.7144C75.4652 60.7144 79.6238 64.873 79.6238 70C79.6238 75.127 75.4652 79.2856 70.3383 79.2856ZM99.6476 73.6346L105.67 73.1836L104.794 61.5435L98.8384 62.0011C97.943 58.7379 96.5103 55.7002 94.6267 52.9941L98.719 48.7028L90.2758 40.6443L86.2166 44.9024C83.1988 42.9723 79.8096 41.5795 76.1683 40.8499V35H64.5016V40.8499C59.9185 41.7652 55.7268 43.7417 52.1717 46.5141L47.7212 42.654L40.0739 51.4753L44.5575 55.3553C42.6937 58.6849 41.4469 62.3991 40.9826 66.3587L35 66.8164L35.8755 78.4499L41.9244 77.9989C42.8463 81.209 44.2988 84.2003 46.1825 86.86L41.9509 91.2839L50.3941 99.349L54.6523 94.8854C57.6236 96.7491 60.9399 98.0955 64.5016 98.8118V105H76.1683V98.8118C80.6718 97.9098 84.7906 95.9864 88.2992 93.3002L92.9487 97.3394L100.596 88.5247L95.9864 84.5253C97.87 81.2355 99.1368 77.5611 99.6476 73.6346Z" stroke="white" stroke-width="7.2418" stroke-miterlimit="10"/>
</svg>
