<svg width="86" height="86" viewBox="0 0 86 86" fill="none" xmlns="http://www.w3.org/2000/svg">
<circle cx="43" cy="43" r="43" fill="#9D3F3F"/>
<path d="M43.1162 18C53.4838 18 61.9169 26.357 61.917 36.6309C61.917 43.1081 58.5608 48.818 53.4854 52.1582C63.156 55.6941 70.5159 63.9979 72.6006 74.1875C71.1841 75.5324 69.6752 76.7802 68.0859 77.9238C66.9679 65.2425 56.1978 55.2617 43.1162 55.2617C29.9802 55.2617 19.1727 65.3255 18.1309 78.082C16.5341 76.9481 15.0197 75.7063 13.5947 74.3701C15.6284 64.0972 23.0187 55.7152 32.7471 52.1582C27.6716 48.818 24.3154 43.1081 24.3154 36.6309C24.3156 26.357 32.7486 18 43.1162 18ZM43.1162 22.9688C35.5137 22.9688 29.3292 29.098 29.3291 36.6309C29.3291 44.1647 35.5136 50.2939 43.1162 50.2939C50.7188 50.2939 56.9033 44.1647 56.9033 36.6309C56.9032 29.098 50.7187 22.9688 43.1162 22.9688Z" fill="white"/>
</svg>
