<svg width="44" height="39" viewBox="0 0 44 39" fill="none" xmlns="http://www.w3.org/2000/svg">
<path d="M20.5959 0.67331C20.9062 -0.224433 22.1758 -0.224433 22.4861 0.673309L26.9211 13.5038C27.0604 13.9068 27.4399 14.1771 27.8663 14.1771H42.0801C43.0637 14.1771 43.4563 15.4482 42.644 16.0029L31.2534 23.7821C30.8811 24.0364 30.725 24.5085 30.8723 24.9346L35.2478 37.5932C35.5626 38.5037 34.5343 39.289 33.7387 38.7457L22.105 30.8004C21.7649 30.5681 21.3172 30.5681 20.977 30.8004L9.3433 38.7457C8.54773 39.289 7.51946 38.5037 7.83419 37.5932L12.2097 24.9346C12.357 24.5085 12.2009 24.0364 11.8286 23.7821L0.43799 16.0029C-0.37429 15.4482 0.0183308 14.1771 1.00197 14.1771H15.2158C15.6421 14.1771 16.0216 13.9068 16.1609 13.5038L20.5959 0.67331Z" fill="#FECB41"/>
</svg>
